999
"DXF R12 Output" (www.mydxf.blogspot.com)
 0 
SECTION
 2 
HEADER
 9 
$ACADVER
 1 
AC1009
 9 
$EXTMIN
 10 
 0 
 20 
 0 
 9 
$EXTMAX
 10 
 8.5 
 20 
 11 
 0 
ENDSEC
 0 
SECTION
 2 
ENTITIES
0
LINE
8
Layer 1
10
0.793749
20
297.793749
11
-0.793749
21
296.206251
0
LINE
8
Layer 1
10
0.000000
20
298.322915
11
0.000000
21
295.677085
0
LINE
8
Layer 1
10
2.116664
20
295.941668
11
1.058332
21
294.883336
0
LINE
8
Layer 1
10
1.587498
20
296.470834
11
0.529166
21
295.412502
0
LINE
8
Layer 1
10
1.058332
20
297.000000
11
0.000000
21
295.941668
0
LINE
8
0
10
208.121565
20
194.517154
11
208.121035
21
194.517154
0
LINE
8
0
10
210.565454
20
171.992933
11
210.412099
21
177.667380
0
LINE
8
0
10
210.412099
20
177.667380
11
209.952754
21
183.321132
0
LINE
8
0
10
209.952754
20
183.321132
11
209.188760
21
188.941828
0
LINE
8
0
10
209.188760
20
188.941828
11
208.121459
21
194.517106
0
LINE
8
0
10
210.565518
20
171.992938
11
210.565518
21
171.992938
0
LINE
8
0
10
208.121099
20
194.517125
11
209.188493
21
188.941848
0
LINE
8
0
10
209.188493
20
188.941848
11
209.952577
21
183.321150
0
LINE
8
0
10
209.952577
20
183.321150
11
210.412011
21
177.667391
0
LINE
8
0
10
210.412011
20
177.667391
11
210.565454
21
171.992933
0
LINE
8
0
10
208.121035
20
194.517154
11
208.121035
21
194.517154
0
LINE
8
0
10
110.565579
20
171.992938
11
110.565579
21
171.992938
0
LINE
8
0
10
109.101118
20
168.457403
11
109.725524
21
169.218934
0
LINE
8
0
10
109.725524
20
169.218934
11
110.184979
21
170.079518
0
LINE
8
0
10
110.184979
20
170.079518
11
110.468620
21
171.012927
0
LINE
8
0
10
110.468620
20
171.012927
11
110.565582
21
171.992933
0
LINE
8
0
10
105.565588
20
166.992939
11
106.545592
21
167.089900
0
LINE
8
0
10
106.545592
20
167.089900
11
107.479002
21
167.373541
0
LINE
8
0
10
107.479002
20
167.373541
11
108.339586
21
167.832997
0
LINE
8
0
10
108.339586
20
167.832997
11
109.101118
21
168.457403
0
LINE
8
0
10
102.030057
20
168.457403
11
102.791589
21
167.832997
0
LINE
8
0
10
102.791589
20
167.832997
11
103.652174
21
167.373541
0
LINE
8
0
10
103.652174
20
167.373541
11
104.585583
21
167.089900
0
LINE
8
0
10
104.585583
20
167.089900
11
105.565588
21
166.992939
0
LINE
8
0
10
100.565593
20
171.992933
11
100.662555
21
171.012927
0
LINE
8
0
10
100.662555
20
171.012927
11
100.946196
21
170.079518
0
LINE
8
0
10
100.946196
20
170.079518
11
101.405651
21
169.218934
0
LINE
8
0
10
101.405651
20
169.218934
11
102.030057
21
168.457403
0
LINE
8
0
10
102.030057
20
175.528463
11
101.405651
21
174.766933
0
LINE
8
0
10
101.405651
20
174.766933
11
100.946196
21
173.906349
0
LINE
8
0
10
100.946196
20
173.906349
11
100.662555
21
172.972939
0
LINE
8
0
10
100.662555
20
172.972939
11
100.565593
21
171.992933
0
LINE
8
0
10
105.565588
20
176.992927
11
104.585583
21
176.895966
0
LINE
8
0
10
104.585583
20
176.895966
11
103.652174
21
176.612326
0
LINE
8
0
10
103.652174
20
176.612326
11
102.791589
21
176.152870
0
LINE
8
0
10
102.791589
20
176.152870
11
102.030057
21
175.528463
0
LINE
8
0
10
109.101118
20
175.528463
11
108.339586
21
176.152870
0
LINE
8
0
10
108.339586
20
176.152870
11
107.479002
21
176.612326
0
LINE
8
0
10
107.479002
20
176.612326
11
106.545592
21
176.895966
0
LINE
8
0
10
106.545592
20
176.895966
11
105.565588
21
176.992927
0
LINE
8
0
10
110.565582
20
171.992933
11
110.468620
21
172.972939
0
LINE
8
0
10
110.468620
20
172.972939
11
110.184979
21
173.906349
0
LINE
8
0
10
110.184979
20
173.906349
11
109.725524
21
174.766933
0
LINE
8
0
10
109.725524
20
174.766933
11
109.101118
21
175.528463
0
LINE
8
0
10
190.780795
20
184.505598
11
208.121035
21
194.517154
0
LINE
8
0
10
190.780795
20
184.505598
11
190.780795
21
184.505598
0
LINE
8
0
10
208.121035
20
194.517154
11
190.780795
21
184.505598
0
LINE
8
0
10
208.121035
20
194.517154
11
208.121035
21
194.517154
0
LINE
8
0
10
110.565579
20
171.992938
11
110.565579
21
171.992938
0
LINE
8
0
10
109.101118
20
168.457403
11
109.725524
21
169.218934
0
LINE
8
0
10
109.725524
20
169.218934
11
110.184979
21
170.079518
0
LINE
8
0
10
110.184979
20
170.079518
11
110.468620
21
171.012927
0
LINE
8
0
10
110.468620
20
171.012927
11
110.565582
21
171.992933
0
LINE
8
0
10
105.565588
20
166.992939
11
106.545592
21
167.089900
0
LINE
8
0
10
106.545592
20
167.089900
11
107.479002
21
167.373541
0
LINE
8
0
10
107.479002
20
167.373541
11
108.339586
21
167.832997
0
LINE
8
0
10
108.339586
20
167.832997
11
109.101118
21
168.457403
0
LINE
8
0
10
102.030057
20
168.457403
11
102.791589
21
167.832997
0
LINE
8
0
10
102.791589
20
167.832997
11
103.652174
21
167.373541
0
LINE
8
0
10
103.652174
20
167.373541
11
104.585583
21
167.089900
0
LINE
8
0
10
104.585583
20
167.089900
11
105.565588
21
166.992939
0
LINE
8
0
10
100.565593
20
171.992933
11
100.662555
21
171.012927
0
LINE
8
0
10
100.662555
20
171.012927
11
100.946196
21
170.079518
0
LINE
8
0
10
100.946196
20
170.079518
11
101.405651
21
169.218934
0
LINE
8
0
10
101.405651
20
169.218934
11
102.030057
21
168.457403
0
LINE
8
0
10
102.030057
20
175.528463
11
101.405651
21
174.766933
0
LINE
8
0
10
101.405651
20
174.766933
11
100.946196
21
173.906349
0
LINE
8
0
10
100.946196
20
173.906349
11
100.662555
21
172.972939
0
LINE
8
0
10
100.662555
20
172.972939
11
100.565593
21
171.992933
0
LINE
8
0
10
105.565588
20
176.992927
11
104.585583
21
176.895966
0
LINE
8
0
10
104.585583
20
176.895966
11
103.652174
21
176.612326
0
LINE
8
0
10
103.652174
20
176.612326
11
102.791589
21
176.152870
0
LINE
8
0
10
102.791589
20
176.152870
11
102.030057
21
175.528463
0
LINE
8
0
10
109.101118
20
175.528463
11
108.339586
21
176.152870
0
LINE
8
0
10
108.339586
20
176.152870
11
107.479002
21
176.612326
0
LINE
8
0
10
107.479002
20
176.612326
11
106.545592
21
176.895966
0
LINE
8
0
10
106.545592
20
176.895966
11
105.565588
21
176.992927
0
LINE
8
0
10
110.565582
20
171.992933
11
110.468620
21
172.972939
0
LINE
8
0
10
110.468620
20
172.972939
11
110.184979
21
173.906349
0
LINE
8
0
10
110.184979
20
173.906349
11
109.725524
21
174.766933
0
LINE
8
0
10
109.725524
20
174.766933
11
109.101118
21
175.528463
0
LINE
8
0
10
208.137440
20
149.542542
11
208.137175
21
149.542542
0
LINE
8
0
10
210.565454
20
171.992933
11
210.413075
21
166.337365
0
LINE
8
0
10
210.413075
20
166.337365
11
209.956733
21
160.702287
0
LINE
8
0
10
209.956733
20
160.702287
11
209.197753
21
155.099940
0
LINE
8
0
10
209.197753
20
155.099940
11
208.137458
21
149.542563
0
LINE
8
0
10
210.565518
20
171.992938
11
210.565518
21
171.992938
0
LINE
8
0
10
208.137278
20
149.542550
11
209.197620
21
155.099927
0
LINE
8
0
10
209.197620
20
155.099927
11
209.956645
21
160.702276
0
LINE
8
0
10
209.956645
20
160.702276
11
210.413031
21
166.337358
0
LINE
8
0
10
210.413031
20
166.337358
11
210.565454
21
171.992933
0
LINE
8
0
10
73.722396
20
272.047910
11
73.722396
21
252.089885
0
LINE
8
0
10
73.722396
20
272.047910
11
73.722396
21
272.047910
0
LINE
8
0
10
73.722396
20
252.089885
11
73.722396
21
272.047910
0
LINE
8
0
10
73.722396
20
252.089885
11
73.722396
21
252.089885
0
LINE
8
0
10
77.722362
20
252.089885
11
77.722362
21
252.089885
0
LINE
8
0
10
76.723900
20
250.353229
11
77.456197
21
251.087523
0
LINE
8
0
10
77.456197
20
251.087523
11
77.722323
21
252.089832
0
LINE
8
0
10
74.720740
20
250.353245
11
75.722318
21
250.084374
0
LINE
8
0
10
75.722318
20
250.084374
11
76.723900
21
250.353229
0
LINE
8
0
10
73.722343
20
252.089864
11
73.988497
21
251.087550
0
LINE
8
0
10
73.988497
20
251.087550
11
74.720740
21
250.353245
0
LINE
8
0
10
73.722396
20
252.089885
11
73.722396
21
252.089885
0
LINE
8
0
10
74.722343
20
250.357785
11
73.990285
21
251.089832
0
LINE
8
0
10
73.990285
20
251.089832
11
73.722328
21
252.089832
0
LINE
8
0
10
76.722350
20
250.357801
11
75.722348
21
250.089843
0
LINE
8
0
10
75.722348
20
250.089843
11
74.722343
21
250.357785
0
LINE
8
0
10
77.722338
20
252.089864
11
77.454396
21
251.089859
0
LINE
8
0
10
77.454396
20
251.089859
11
76.722350
21
250.357801
0
LINE
8
0
10
77.722362
20
252.089885
11
77.722362
21
273.233771
0
LINE
8
0
10
77.722362
20
252.089885
11
77.722362
21
252.089885
0
LINE
8
0
10
77.722362
20
273.233771
11
77.722362
21
252.089885
0
LINE
8
0
10
77.722362
20
273.233771
11
77.722362
21
273.233771
0
LINE
8
0
10
83.524403
20
274.653788
11
83.524403
21
274.653259
0
LINE
8
0
10
77.722338
20
273.233866
11
83.524517
21
274.653804
0
LINE
8
0
10
77.722362
20
273.233771
11
77.722362
21
273.233771
0
LINE
8
0
10
83.524466
20
274.653354
11
77.722323
21
273.233805
0
LINE
8
0
10
83.524403
20
274.653259
11
83.524403
21
232.097465
0
LINE
8
0
10
83.524403
20
274.653259
11
83.524403
21
274.653259
0
LINE
8
0
10
83.524403
20
232.097465
11
83.524403
21
274.653259
0
LINE
8
0
10
83.524403
20
232.097465
11
83.524403
21
232.097465
0
LINE
8
0
10
87.524633
20
232.097465
11
87.524369
21
232.097465
0
LINE
8
0
10
86.524517
20
230.365377
11
87.256568
21
231.097444
0
LINE
8
0
10
87.256568
20
231.097444
11
87.524511
21
232.097457
0
LINE
8
0
10
84.524495
20
230.365359
11
85.524508
21
230.097416
0
LINE
8
0
10
85.524508
20
230.097416
11
86.524517
21
230.365377
0
LINE
8
0
10
83.524466
20
232.097420
11
83.792429
21
231.097410
0
LINE
8
0
10
83.792429
20
231.097410
11
84.524495
21
230.365359
0
LINE
8
0
10
83.524403
20
232.097465
11
83.524403
21
232.097465
0
LINE
8
0
10
85.524468
20
230.107340
11
84.748381
21
230.263516
0
LINE
8
0
10
84.748381
20
230.263516
11
84.113767
21
230.689644
0
LINE
8
0
10
84.113767
20
230.689644
11
83.684515
21
231.322149
0
LINE
8
0
10
83.684515
20
231.322149
11
83.524517
21
232.097457
0
LINE
8
0
10
87.524461
20
232.097420
11
87.364449
21
231.322114
0
LINE
8
0
10
87.364449
20
231.322114
11
86.935185
21
230.689617
0
LINE
8
0
10
86.935185
20
230.689617
11
86.300560
21
230.263501
0
LINE
8
0
10
86.300560
20
230.263501
11
85.524468
21
230.107340
0
LINE
8
0
10
87.524369
20
232.097465
11
87.524369
21
275.431397
0
LINE
8
0
10
87.524369
20
232.097465
11
87.524369
21
232.097465
0
LINE
8
0
10
87.524369
20
275.431397
11
87.524369
21
232.097465
0
LINE
8
0
10
87.524369
20
275.431397
11
87.524369
21
275.431397
0
LINE
8
0
10
93.235657
20
276.266686
11
93.235657
21
276.266421
0
LINE
8
0
10
87.524461
20
275.431273
11
93.235604
21
276.266802
0
LINE
8
0
10
87.524633
20
275.430868
11
87.524369
21
275.431397
0
LINE
8
0
10
93.235602
20
276.266342
11
87.524511
21
275.430802
0
LINE
8
0
10
93.235657
20
276.266421
11
93.235657
21
212.072500
0
LINE
8
0
10
93.235657
20
276.266421
11
93.235657
21
276.266421
0
LINE
8
0
10
93.235657
20
212.072500
11
93.235657
21
276.266421
0
LINE
8
0
10
93.235657
20
212.072500
11
93.235657
21
212.072500
0
LINE
8
0
10
97.235623
20
212.072500
11
97.235623
21
212.072500
0
LINE
8
0
10
95.235582
20
210.073036
11
96.013918
21
210.230134
0
LINE
8
0
10
96.013918
20
210.230134
11
96.649574
21
210.658585
0
LINE
8
0
10
96.649574
20
210.658585
11
97.078238
21
211.294099
0
LINE
8
0
10
97.078238
20
211.294099
11
97.235599
21
212.072384
0
LINE
8
0
10
93.235602
20
212.072421
11
93.392915
21
211.294133
0
LINE
8
0
10
93.392915
20
211.294133
11
93.821570
21
210.658612
0
LINE
8
0
10
93.821570
20
210.658612
11
94.457236
21
210.230149
0
LINE
8
0
10
94.457236
20
210.230149
11
95.235582
21
210.073036
0
LINE
8
0
10
93.235657
20
212.072500
11
93.235657
21
212.072500
0
LINE
8
0
10
95.235619
20
210.073954
11
94.457504
21
210.230959
0
LINE
8
0
10
94.457504
20
210.230959
11
93.821950
21
210.659178
0
LINE
8
0
10
93.821950
20
210.659178
11
93.393227
21
211.294393
0
LINE
8
0
10
93.393227
20
211.294393
11
93.235604
21
212.072384
0
LINE
8
0
10
97.235597
20
212.072421
11
97.078010
21
211.294428
0
LINE
8
0
10
97.078010
20
211.294428
11
96.649296
21
210.659206
0
LINE
8
0
10
96.649296
20
210.659206
11
96.013738
21
210.230974
0
LINE
8
0
10
96.013738
20
210.230974
11
95.235619
21
210.073954
0
LINE
8
0
10
97.235623
20
212.072500
11
97.235623
21
276.661973
0
LINE
8
0
10
97.235623
20
212.072500
11
97.235623
21
212.072500
0
LINE
8
0
10
97.235623
20
276.661973
11
97.235623
21
212.072500
0
LINE
8
0
10
97.235623
20
276.661973
11
97.235623
21
276.661973
0
LINE
8
0
10
103.392999
20
276.970741
11
103.392999
21
276.970212
0
LINE
8
0
10
97.235597
20
276.661862
11
103.393030
21
276.970802
0
LINE
8
0
10
97.235623
20
276.661708
11
97.235623
21
276.661973
0
LINE
8
0
10
103.393033
20
276.970321
11
97.235599
21
276.661801
0
LINE
8
0
10
103.392999
20
276.970212
11
103.392999
21
192.007055
0
LINE
8
0
10
103.392999
20
276.970212
11
103.392999
21
276.970212
0
LINE
8
0
10
103.392999
20
192.007055
11
103.392999
21
276.970212
0
LINE
8
0
10
103.392999
20
192.007055
11
103.392999
21
192.007055
0
LINE
8
0
10
107.392964
20
192.007055
11
107.392964
21
192.007055
0
LINE
8
0
10
106.393875
20
190.272562
11
107.126043
21
191.005797
0
LINE
8
0
10
107.126043
20
191.005797
11
107.393025
21
192.007007
0
LINE
8
0
10
104.392225
20
190.272539
11
105.393053
21
190.004123
0
LINE
8
0
10
105.393053
20
190.004123
11
106.393875
21
190.272562
0
LINE
8
0
10
103.393033
20
192.006960
11
103.660023
21
191.005755
0
LINE
8
0
10
103.660023
20
191.005755
11
104.392225
21
190.272539
0
LINE
8
0
10
103.392999
20
192.007055
11
103.392999
21
192.007055
0
LINE
8
0
10
104.392879
20
190.274573
11
103.660818
21
191.006816
0
LINE
8
0
10
103.660818
20
191.006816
11
103.393030
21
192.007007
0
LINE
8
0
10
106.393137
20
190.274549
11
105.393006
21
190.006538
0
LINE
8
0
10
105.393006
20
190.006538
11
104.392879
21
190.274573
0
LINE
8
0
10
107.393028
20
192.006960
11
107.125217
21
191.006775
0
LINE
8
0
10
107.125217
20
191.006775
11
106.393137
21
190.274549
0
LINE
8
0
10
107.392964
20
192.007055
11
107.392964
21
276.976827
0
LINE
8
0
10
107.392964
20
192.007055
11
107.392964
21
192.007055
0
LINE
8
0
10
107.392964
20
276.976827
11
107.392964
21
192.007055
0
LINE
8
0
10
107.392964
20
276.976827
11
107.392964
21
276.976827
0
LINE
8
0
10
113.644532
20
276.681817
11
113.644532
21
276.681552
0
LINE
8
0
10
107.393028
20
276.976901
11
113.644616
21
276.681801
0
LINE
8
0
10
107.392964
20
276.976827
11
107.392964
21
276.976827
0
LINE
8
0
10
113.644621
20
276.681520
11
107.393025
21
276.976800
0
LINE
8
0
10
113.644532
20
276.681552
11
113.644532
21
276.681552
0
LINE
8
0
10
113.644532
20
276.681552
11
113.644532
21
211.874328
0
LINE
8
0
10
113.644532
20
276.681552
11
113.644532
21
276.681552
0
LINE
8
0
10
113.644532
20
211.874328
11
113.644532
21
276.681552
0
LINE
8
0
10
113.644532
20
211.874328
11
113.644532
21
211.874328
0
LINE
8
0
10
117.644497
20
211.874328
11
117.644497
21
211.874328
0
LINE
8
0
10
115.644612
20
209.883692
11
116.420816
21
210.039916
0
LINE
8
0
10
116.420816
20
210.039916
11
117.055484
21
210.466163
0
LINE
8
0
10
117.055484
20
210.466163
11
117.484706
21
211.098822
0
LINE
8
0
10
117.484706
20
211.098822
11
117.644571
21
211.874283
0
LINE
8
0
10
113.644621
20
211.874254
11
113.804495
21
211.098794
0
LINE
8
0
10
113.804495
20
211.098794
11
114.233728
21
210.466140
0
LINE
8
0
10
114.233728
20
210.466140
11
114.868405
21
210.039903
0
LINE
8
0
10
114.868405
20
210.039903
11
115.644612
21
209.883692
0
LINE
8
0
10
113.644532
20
211.874328
11
113.644532
21
211.874328
0
LINE
8
0
10
115.644602
20
209.875162
11
114.866329
21
210.032247
0
LINE
8
0
10
114.866329
20
210.032247
11
114.230709
21
210.460642
0
LINE
8
0
10
114.230709
20
210.460642
11
113.802038
21
211.096078
0
LINE
8
0
10
113.802038
20
211.096078
11
113.644616
21
211.874283
0
LINE
8
0
10
117.644616
20
211.874254
11
117.487172
21
211.096051
0
LINE
8
0
10
117.487172
20
211.096051
11
117.058493
21
210.460622
0
LINE
8
0
10
117.058493
20
210.460622
11
116.422872
21
210.032236
0
LINE
8
0
10
116.422872
20
210.032236
11
115.644602
21
209.875162
0
LINE
8
0
10
117.644497
20
211.874328
11
117.644497
21
276.295790
0
LINE
8
0
10
117.644497
20
211.874328
11
117.644497
21
211.874328
0
LINE
8
0
10
117.644497
20
276.295790
11
117.644497
21
211.874328
0
LINE
8
0
10
117.644497
20
276.295790
11
117.644497
21
276.295790
0
LINE
8
0
10
123.498132
20
275.449918
11
123.498132
21
275.450183
0
LINE
8
0
10
117.644616
20
276.295713
11
123.498166
21
275.449802
0
LINE
8
0
10
117.644497
20
276.295790
11
117.644497
21
276.295790
0
LINE
8
0
10
123.498171
20
275.450143
11
117.644571
21
276.295803
0
LINE
8
0
10
123.498132
20
275.450183
11
123.498132
21
275.450183
0
LINE
8
0
10
123.498132
20
275.450183
11
123.498132
21
232.251981
0
LINE
8
0
10
123.498132
20
275.450183
11
123.498132
21
275.450183
0
LINE
8
0
10
123.498132
20
232.251981
11
123.498132
21
275.450183
0
LINE
8
0
10
123.498132
20
232.251981
11
123.498132
21
232.251981
0
LINE
8
0
10
127.498097
20
232.251981
11
127.498097
21
232.251981
0
LINE
8
0
10
126.499143
20
230.517034
11
127.231354
21
231.250499
0
LINE
8
0
10
127.231354
20
231.250499
11
127.498161
21
232.251957
0
LINE
8
0
10
124.497147
20
230.517060
11
125.498142
21
230.248520
0
LINE
8
0
10
125.498142
20
230.248520
11
126.499143
21
230.517034
0
LINE
8
0
10
123.498171
20
232.252005
11
123.764924
21
231.250541
0
LINE
8
0
10
123.764924
20
231.250541
11
124.497147
21
230.517060
0
LINE
8
0
10
123.498132
20
232.251981
11
123.498132
21
232.251981
0
LINE
8
0
10
124.498187
20
230.519918
11
123.766127
21
231.251961
0
LINE
8
0
10
123.766127
20
231.251961
11
123.498166
21
232.251957
0
LINE
8
0
10
126.498185
20
230.519941
11
125.498190
21
230.251981
0
LINE
8
0
10
125.498190
20
230.251981
11
124.498187
21
230.519918
0
LINE
8
0
10
127.498166
20
232.252005
11
127.230228
21
231.252002
0
LINE
8
0
10
127.230228
20
231.252002
11
126.498185
21
230.519941
0
LINE
8
0
10
127.498097
20
232.251981
11
127.498097
21
274.676542
0
LINE
8
0
10
127.498097
20
232.251981
11
127.498097
21
232.251981
0
LINE
8
0
10
127.498097
20
274.676542
11
127.498097
21
232.251981
0
LINE
8
0
10
127.498097
20
274.676542
11
127.498097
21
274.676542
0
LINE
8
0
10
133.336915
20
273.253879
11
133.336915
21
273.253615
0
LINE
8
0
10
127.498166
20
274.676595
11
133.336852
21
273.253805
0
LINE
8
0
10
127.498097
20
274.676807
11
127.498097
21
274.676542
0
LINE
8
0
10
133.336828
20
273.253636
11
127.498161
21
274.676804
0
LINE
8
0
10
133.336915
20
273.253615
11
133.336915
21
273.253615
0
LINE
8
0
10
133.336915
20
273.253615
11
133.336915
21
252.047817
0
LINE
8
0
10
133.336915
20
273.253615
11
133.336915
21
273.253615
0
LINE
8
0
10
133.336915
20
252.047817
11
133.336915
21
273.253615
0
LINE
8
0
10
133.336915
20
252.047817
11
133.336915
21
252.047817
0
LINE
8
0
10
137.336881
20
252.047817
11
137.336881
21
252.047817
0
LINE
8
0
10
136.336834
20
250.315780
11
137.068892
21
251.047829
0
LINE
8
0
10
137.068892
20
251.047829
11
137.336846
21
252.047832
0
LINE
8
0
10
134.336824
20
250.315790
11
135.336826
21
250.047835
0
LINE
8
0
10
135.336826
20
250.047835
11
136.336834
21
250.315780
0
LINE
8
0
10
133.336828
20
252.047856
11
133.604774
21
251.047849
0
LINE
8
0
10
133.604774
20
251.047849
11
134.336824
21
250.315790
0
LINE
8
0
10
133.336915
20
252.047817
11
133.336915
21
252.047817
0
LINE
8
0
10
135.336848
20
250.054776
11
134.560038
21
250.211240
0
LINE
8
0
10
134.560038
20
250.211240
11
133.925085
21
250.638105
0
LINE
8
0
10
133.925085
20
250.638105
11
133.496015
21
251.271571
0
LINE
8
0
10
133.496015
20
251.271571
11
133.336852
21
252.047832
0
LINE
8
0
10
137.336823
20
252.047856
11
137.177669
21
251.271593
0
LINE
8
0
10
137.177669
20
251.271593
11
136.748605
21
250.638122
0
LINE
8
0
10
136.748605
20
250.638122
11
136.113657
21
250.211249
0
LINE
8
0
10
136.113657
20
250.211249
11
135.336848
21
250.054776
0
LINE
8
0
10
137.336881
20
252.047817
11
137.336881
21
272.070664
0
LINE
8
0
10
137.336881
20
252.047817
11
137.336881
21
252.047817
0
LINE
8
0
10
137.336881
20
272.070664
11
137.336881
21
252.047817
0
LINE
8
0
10
137.336881
20
272.070664
11
137.336881
21
272.070664
0
LINE
8
0
10
176.294082
20
249.597513
11
176.294082
21
249.597513
0
LINE
8
0
10
137.336823
20
272.070706
11
142.701559
21
270.206440
0
LINE
8
0
10
142.701559
20
270.206440
11
147.946276
21
268.059840
0
LINE
8
0
10
147.946276
20
268.059840
11
153.060255
21
265.637089
0
LINE
8
0
10
153.060255
20
265.637089
11
158.032780
21
262.944367
0
LINE
8
0
10
158.032780
20
262.944367
11
162.853134
21
259.987859
0
LINE
8
0
10
162.853134
20
259.987859
11
167.510600
21
256.773747
0
LINE
8
0
10
167.510600
20
256.773747
11
171.994461
21
253.308212
0
LINE
8
0
10
171.994461
20
253.308212
11
176.294000
21
249.597437
0
LINE
8
0
10
137.336881
20
272.070929
11
137.336881
21
272.070664
0
LINE
8
0
10
176.294037
20
249.597434
11
171.994499
21
253.308224
0
LINE
8
0
10
171.994499
20
253.308224
11
167.510639
21
256.773773
0
LINE
8
0
10
167.510639
20
256.773773
11
162.853173
21
259.987899
0
LINE
8
0
10
162.853173
20
259.987899
11
158.032817
21
262.944420
0
LINE
8
0
10
158.032817
20
262.944420
11
153.060290
21
265.637154
0
LINE
8
0
10
153.060290
20
265.637154
11
147.946308
21
268.059918
0
LINE
8
0
10
147.946308
20
268.059918
11
142.701588
21
270.206530
0
LINE
8
0
10
142.701588
20
270.206530
11
137.336846
21
272.070807
0
LINE
8
0
10
176.294082
20
249.597513
11
176.294082
21
249.597513
0
LINE
8
0
10
176.294082
20
249.597513
11
159.009933
21
239.618501
0
LINE
8
0
10
176.294082
20
249.597513
11
176.294082
21
249.597513
0
LINE
8
0
10
159.009933
20
239.618501
11
176.294082
21
249.597513
0
LINE
8
0
10
159.009933
20
239.618501
11
159.009933
21
239.618501
0
LINE
8
0
10
161.009916
20
236.154316
11
161.009916
21
236.154316
0
LINE
8
0
10
159.008266
20
236.152464
11
160.009348
21
235.884981
0
LINE
8
0
10
160.009348
20
235.884981
11
161.009918
21
236.154316
0
LINE
8
0
10
158.007452
20
237.885900
11
158.275424
21
236.884946
0
LINE
8
0
10
158.275424
20
236.884946
11
159.008266
21
236.152416
0
LINE
8
0
10
159.009853
20
239.618422
11
158.276273
21
238.886597
0
LINE
8
0
10
158.276273
20
238.886597
11
158.007364
21
237.885900
0
LINE
8
0
10
159.009933
20
239.618501
11
159.009933
21
239.618501
0
LINE
8
0
10
158.009132
20
237.886239
11
158.277383
21
238.886464
0
LINE
8
0
10
158.277383
20
238.886464
11
159.009919
21
239.618448
0
LINE
8
0
10
159.009390
20
236.153734
11
158.277070
21
236.885933
0
LINE
8
0
10
158.277070
20
236.885933
11
158.009116
21
237.886239
0
LINE
8
0
10
161.009924
20
236.154361
11
160.009741
21
235.885957
0
LINE
8
0
10
160.009741
20
235.885957
11
159.009390
21
236.153832
0
LINE
8
0
10
161.009900
20
236.154361
11
179.321160
21
246.726304
0
LINE
8
0
10
161.009900
20
236.154361
11
161.009900
21
236.154361
0
LINE
8
0
10
179.321160
20
246.726304
11
161.009900
21
236.154361
0
LINE
8
0
10
179.321160
20
246.726304
11
179.321160
21
246.726304
0
LINE
8
0
10
183.451565
20
242.411484
11
183.451565
21
242.411484
0
LINE
8
0
10
179.321163
20
246.726404
11
183.451573
21
242.411389
0
LINE
8
0
10
179.321176
20
246.726259
11
179.321176
21
246.726259
0
LINE
8
0
10
183.451555
20
242.411312
11
179.321194
21
246.726338
0
LINE
8
0
10
183.451581
20
242.411439
11
183.451581
21
242.411439
0
LINE
8
0
10
183.451581
20
242.411439
11
146.597021
21
221.133410
0
LINE
8
0
10
183.451581
20
242.411439
11
183.451581
21
242.411439
0
LINE
8
0
10
146.597021
20
221.133410
11
183.451581
21
242.411439
0
LINE
8
0
10
146.597021
20
221.133410
11
146.597021
21
221.133410
0
LINE
8
0
10
148.597004
20
217.669225
11
148.597004
21
217.669225
0
LINE
8
0
10
145.870995
20
218.404776
11
146.394906
21
217.810276
0
LINE
8
0
10
146.394906
20
217.810276
11
147.082061
21
217.473829
0
LINE
8
0
10
147.082061
20
217.473829
11
147.845192
21
217.418981
0
LINE
8
0
10
147.845192
20
217.418981
11
148.597033
21
217.669277
0
LINE
8
0
10
146.597037
20
221.133346
11
146.004357
21
220.607378
0
LINE
8
0
10
146.004357
20
220.607378
11
145.670295
21
219.919061
0
LINE
8
0
10
145.670295
20
219.919061
11
145.618094
21
219.155744
0
LINE
8
0
10
145.618094
20
219.155744
11
145.870995
21
218.404776
0
LINE
8
0
10
146.597021
20
221.133410
11
146.597021
21
221.133410
0
LINE
8
0
10
145.865624
20
218.401686
11
145.612518
21
219.154271
0
LINE
8
0
10
145.612518
20
219.154271
11
145.665730
21
219.918968
0
LINE
8
0
10
145.665730
20
219.918968
11
146.001742
21
220.607946
0
LINE
8
0
10
146.001742
20
220.607946
11
146.597037
21
221.133373
0
LINE
8
0
10
148.597036
20
217.669251
11
147.844355
21
217.416427
0
LINE
8
0
10
147.844355
20
217.416427
11
147.079678
21
217.469925
0
LINE
8
0
10
147.079678
20
217.469925
11
146.390827
21
217.806195
0
LINE
8
0
10
146.390827
20
217.806195
11
145.865624
21
218.401686
0
LINE
8
0
10
148.597004
20
217.669225
11
186.125192
21
239.336191
0
LINE
8
0
10
148.597004
20
217.669225
11
148.597004
21
217.669225
0
LINE
8
0
10
186.125192
20
239.336191
11
148.597004
21
217.669225
0
LINE
8
0
10
186.125192
20
239.336191
11
186.125192
21
239.336191
0
LINE
8
0
10
189.703942
20
234.807853
11
189.703942
21
234.807588
0
LINE
8
0
10
186.125253
20
239.336178
11
189.703982
21
234.807755
0
LINE
8
0
10
186.125192
20
239.336191
11
186.125192
21
239.336191
0
LINE
8
0
10
189.704016
20
234.807718
11
186.125285
21
239.336149
0
LINE
8
0
10
189.703942
20
234.807588
11
189.703942
21
234.807588
0
LINE
8
0
10
189.703942
20
234.807588
11
134.110556
21
202.710760
0
LINE
8
0
10
189.703942
20
234.807588
11
189.703942
21
234.807588
0
LINE
8
0
10
134.110556
20
202.710760
11
189.703942
21
234.807588
0
LINE
8
0
10
134.110556
20
202.710760
11
134.110556
21
202.710760
0
LINE
8
0
10
136.110539
20
199.246575
11
136.110539
21
199.246575
0
LINE
8
0
10
133.385381
20
199.982748
11
133.909060
21
199.388427
0
LINE
8
0
10
133.909060
20
199.388427
11
134.595908
21
199.051950
0
LINE
8
0
10
134.595908
20
199.051950
11
135.358760
21
198.996859
0
LINE
8
0
10
135.358760
20
198.996859
11
136.110449
21
199.246699
0
LINE
8
0
10
134.110450
20
202.710757
11
133.518244
21
202.184690
0
LINE
8
0
10
133.518244
20
202.184690
11
133.184535
21
201.496492
0
LINE
8
0
10
133.184535
20
201.496492
11
133.132517
21
200.733425
0
LINE
8
0
10
133.132517
20
200.733425
11
133.385381
21
199.982748
0
LINE
8
0
10
134.110556
20
202.710760
11
134.110556
21
202.710760
0
LINE
8
0
10
133.378748
20
199.978943
11
133.125633
21
200.731615
0
LINE
8
0
10
133.125633
20
200.731615
11
133.178899
21
201.496387
0
LINE
8
0
10
133.178899
20
201.496387
11
133.515017
21
202.185399
0
LINE
8
0
10
133.515017
20
202.185399
11
134.110453
21
202.710794
0
LINE
8
0
10
136.110446
20
199.246662
11
135.357720
21
198.993705
0
LINE
8
0
10
135.357720
20
198.993705
11
134.592960
21
199.047133
0
LINE
8
0
10
134.592960
20
199.047133
11
133.904019
21
199.383396
0
LINE
8
0
10
133.904019
20
199.383396
11
133.378748
21
199.978943
0
LINE
8
0
10
136.110539
20
199.246575
11
192.046560
21
231.541311
0
LINE
8
0
10
136.110539
20
199.246575
11
136.110539
21
199.246575
0
LINE
8
0
10
192.046560
20
231.541311
11
136.110539
21
199.246575
0
LINE
8
0
10
192.046560
20
231.541311
11
192.046560
21
231.541311
0
LINE
8
0
10
195.392476
20
226.363157
11
195.392476
21
226.363157
0
LINE
8
0
10
192.046539
20
231.541377
11
195.392373
21
226.363065
0
LINE
8
0
10
192.046560
20
231.541311
11
192.046560
21
231.541311
0
LINE
8
0
10
195.392397
20
226.363115
11
192.046578
21
231.541359
0
LINE
8
0
10
195.392476
20
226.363157
11
195.392476
21
226.363157
0
LINE
8
0
10
195.392476
20
226.363157
11
121.811944
21
183.881446
0
LINE
8
0
10
195.392476
20
226.363157
11
195.392476
21
226.363157
0
LINE
8
0
10
121.811944
20
183.881446
11
195.392476
21
226.363157
0
LINE
8
0
10
121.811944
20
183.881446
11
121.811944
21
183.881446
0
LINE
8
0
10
123.811927
20
180.417261
11
123.811927
21
180.417261
0
LINE
8
0
10
121.811751
20
180.417086
11
122.811891
21
180.149199
0
LINE
8
0
10
122.811891
20
180.149199
11
123.811964
21
180.417332
0
LINE
8
0
10
120.811646
20
182.149322
11
121.079594
21
181.149199
0
LINE
8
0
10
121.079594
20
181.149199
11
121.811751
21
180.417086
0
LINE
8
0
10
121.811968
20
183.881433
11
121.079720
21
183.149412
0
LINE
8
0
10
121.079720
20
183.149412
11
120.811646
21
182.149322
0
LINE
8
0
10
121.811944
20
183.881446
11
121.811944
21
183.881446
0
LINE
8
0
10
120.807598
20
182.148531
11
121.077202
21
183.149761
0
LINE
8
0
10
121.077202
20
183.149761
11
121.811968
21
183.881417
0
LINE
8
0
10
121.809058
20
180.413962
11
121.075550
21
181.146851
0
LINE
8
0
10
121.075550
20
181.146851
11
120.807600
21
182.148531
0
LINE
8
0
10
123.811967
20
180.417335
11
122.810966
21
180.146860
0
LINE
8
0
10
122.810966
20
180.146860
11
121.809058
21
180.413975
0
LINE
8
0
10
123.811927
20
180.417256
11
197.398016
21
222.902406
0
LINE
8
0
10
123.811927
20
180.417256
11
123.811927
21
180.417256
0
LINE
8
0
10
197.398016
20
222.902406
11
123.811927
21
180.417256
0
LINE
8
0
10
197.398016
20
222.902406
11
197.398016
21
222.902406
0
LINE
8
0
10
200.267947
20
217.340607
11
200.268212
21
217.340607
0
LINE
8
0
10
197.398087
20
222.902301
11
200.268069
21
217.340570
0
LINE
8
0
10
197.398016
20
222.902142
11
197.398016
21
222.902406
0
LINE
8
0
10
200.268085
20
217.340575
11
197.398071
21
222.902263
0
LINE
8
0
10
200.268212
20
217.340607
11
200.268212
21
217.340607
0
LINE
8
0
10
200.268212
20
217.340607
11
144.143279
21
184.936863
0
LINE
8
0
10
200.268212
20
217.340607
11
200.268212
21
217.340607
0
LINE
8
0
10
144.143279
20
184.936863
11
200.268212
21
217.340607
0
LINE
8
0
10
144.143279
20
184.936863
11
144.143279
21
184.936863
0
LINE
8
0
10
146.143261
20
181.472942
11
146.143261
21
181.472942
0
LINE
8
0
10
143.413887
20
182.206392
11
143.938619
21
181.611263
0
LINE
8
0
10
143.938619
20
181.611263
11
144.626850
21
181.274931
0
LINE
8
0
10
144.626850
20
181.274931
11
145.390962
21
181.220942
0
LINE
8
0
10
145.390962
20
181.220942
11
146.143336
21
181.472847
0
LINE
8
0
10
144.143339
20
184.936939
11
143.548999
21
184.411316
0
LINE
8
0
10
143.548999
20
184.411316
11
143.213699
21
183.722580
0
LINE
8
0
10
143.213699
20
183.722580
11
143.160856
21
182.958388
0
LINE
8
0
10
143.160856
20
182.958388
11
143.413887
21
182.206392
0
LINE
8
0
10
144.143279
20
184.936863
11
144.143279
21
184.936863
0
LINE
8
0
10
143.417154
20
182.208255
11
143.164247
21
182.959268
0
LINE
8
0
10
143.164247
20
182.959268
11
143.216475
21
183.722622
0
LINE
8
0
10
143.216475
20
183.722622
11
143.550589
21
184.410958
0
LINE
8
0
10
143.550589
20
184.410958
11
144.143339
21
184.936913
0
LINE
8
0
10
146.143338
20
181.472841
11
145.391474
21
181.222477
0
LINE
8
0
10
145.391474
20
181.222477
11
144.628301
21
181.277287
0
LINE
8
0
10
144.628301
20
181.277287
11
143.941100
21
181.613728
0
LINE
8
0
10
143.941100
20
181.613728
11
143.417154
21
182.208255
0
LINE
8
0
10
146.143261
20
181.472942
11
201.934027
21
213.683541
0
LINE
8
0
10
146.143261
20
181.472942
11
146.143261
21
181.472942
0
LINE
8
0
10
201.934027
20
213.683541
11
146.143261
21
181.472942
0
LINE
8
0
10
201.934027
20
213.683541
11
201.934027
21
213.683541
0
LINE
8
0
10
204.128478
20
208.191592
11
204.128478
21
208.191592
0
LINE
8
0
10
201.933958
20
213.683570
11
204.128462
21
208.191483
0
LINE
8
0
10
201.934027
20
213.683541
11
201.934027
21
213.683541
0
LINE
8
0
10
204.128451
20
208.191462
11
201.933966
21
213.683575
0
LINE
8
0
10
204.128478
20
208.191592
11
204.128478
21
208.191592
0
LINE
8
0
10
204.128478
20
208.191592
11
166.717765
21
186.592358
0
LINE
8
0
10
204.128478
20
208.191592
11
204.128478
21
208.191592
0
LINE
8
0
10
166.717765
20
186.592358
11
204.128478
21
208.191592
0
LINE
8
0
10
166.717765
20
186.592358
11
166.717765
21
186.592358
0
LINE
8
0
10
168.717748
20
183.128438
11
168.717748
21
183.128173
0
LINE
8
0
10
165.985748
20
183.860333
11
166.511114
21
183.264731
0
LINE
8
0
10
166.511114
20
183.264731
11
167.200172
21
182.928495
0
LINE
8
0
10
167.200172
20
182.928495
11
167.965034
21
182.875173
0
LINE
8
0
10
167.965034
20
182.875173
11
168.717808
21
183.128313
0
LINE
8
0
10
166.717767
20
186.592393
11
166.122166
21
186.067027
0
LINE
8
0
10
166.122166
20
186.067027
11
165.785930
21
185.377969
0
LINE
8
0
10
165.785930
20
185.377969
11
165.732607
21
184.613107
0
LINE
8
0
10
165.732607
20
184.613107
11
165.985748
21
183.860333
0
LINE
8
0
10
166.717765
20
186.592358
11
166.717765
21
186.592358
0
LINE
8
0
10
165.714770
20
184.859795
11
165.983934
21
185.860641
0
LINE
8
0
10
165.983934
20
185.860641
11
166.717810
21
186.592411
0
LINE
8
0
10
166.715693
20
183.125990
11
165.982644
21
183.858630
0
LINE
8
0
10
165.982644
20
183.858630
11
165.714707
21
184.859795
0
LINE
8
0
10
168.717700
20
183.128295
11
167.717005
21
182.858603
0
LINE
8
0
10
167.717005
20
182.858603
11
166.715693
21
183.125914
0
LINE
8
0
10
205.458537
20
204.340586
11
205.458537
21
204.340586
0
LINE
8
0
10
168.717748
20
183.128173
11
205.458537
21
204.340586
0
LINE
8
0
10
168.717748
20
183.128173
11
168.717748
21
183.128173
0
LINE
8
0
10
205.458537
20
204.340586
11
168.717748
21
183.128173
0
LINE
8
0
10
205.458537
20
204.340586
11
205.458537
21
204.340586
0
LINE
8
0
10
207.145518
20
198.572677
11
207.145518
21
198.572677
0
LINE
8
0
10
205.458537
20
204.340589
11
207.145460
21
198.572695
0
LINE
8
0
10
205.458537
20
204.340586
11
205.458537
21
204.340586
0
LINE
8
0
10
207.145550
20
198.572682
11
205.458561
21
204.340589
0
LINE
8
0
10
207.145518
20
198.572677
11
207.145518
21
198.572677
0
LINE
8
0
10
207.145518
20
198.572677
11
188.780812
21
187.969777
0
LINE
8
0
10
207.145518
20
198.572677
11
207.145518
21
198.572677
0
LINE
8
0
10
188.780812
20
187.969777
11
207.145518
21
198.572677
0
LINE
8
0
10
188.780812
20
187.969777
11
188.780812
21
187.969777
0
LINE
8
0
10
190.780795
20
184.505592
11
190.780795
21
184.505592
0
LINE
8
0
10
190.780795
20
184.505592
11
190.780795
21
184.505592
0
LINE
8
0
10
188.055320
20
185.241554
11
188.579091
21
184.647156
0
LINE
8
0
10
188.579091
20
184.647156
11
189.266062
21
184.310687
0
LINE
8
0
10
189.266062
20
184.310687
11
190.029028
21
184.255690
0
LINE
8
0
10
190.029028
20
184.255690
11
190.780779
21
184.505711
0
LINE
8
0
10
188.780804
20
187.969788
11
188.188401
21
187.443765
0
LINE
8
0
10
188.188401
20
187.443765
11
187.854544
21
186.755521
0
LINE
8
0
10
187.854544
20
186.755521
11
187.802446
21
185.992351
0
LINE
8
0
10
187.802446
20
185.992351
11
188.055320
21
185.241554
0
LINE
8
0
10
188.780812
20
187.969777
11
188.780812
21
187.969777
0
LINE
8
0
10
188.048872
20
185.237815
11
187.795741
21
185.990556
0
LINE
8
0
10
187.795741
20
185.990556
11
187.849044
21
186.755387
0
LINE
8
0
10
187.849044
20
186.755387
11
188.185239
21
187.444432
0
LINE
8
0
10
188.185239
20
187.444432
11
188.780783
21
187.969809
0
LINE
8
0
10
190.780805
20
184.505690
11
190.028046
21
184.252619
0
LINE
8
0
10
190.028046
20
184.252619
11
189.263219
21
184.305982
0
LINE
8
0
10
189.263219
20
184.305982
11
188.574202
21
184.642231
0
LINE
8
0
10
188.574202
20
184.642231
11
188.048872
21
185.237815
0
LINE
8
0
10
208.137175
20
149.542536
11
190.853291
21
159.521549
0
LINE
8
0
10
208.137175
20
149.542536
11
208.137175
21
149.542536
0
LINE
8
0
10
190.853291
20
159.521549
11
208.137175
21
149.542536
0
LINE
8
0
10
190.853291
20
159.521549
11
190.853291
21
159.521549
0
LINE
8
0
10
188.853308
20
156.057364
11
188.853308
21
156.057364
0
LINE
8
0
10
187.848072
20
157.790477
11
188.118023
21
156.789038
0
LINE
8
0
10
188.118023
20
156.789038
11
188.853183
21
156.057448
0
LINE
8
0
10
188.849770
20
159.525475
11
188.116011
21
158.792445
0
LINE
8
0
10
188.116011
20
158.792445
11
187.848059
21
157.790477
0
LINE
8
0
10
190.853171
20
159.521522
11
189.852002
21
159.792431
0
LINE
8
0
10
189.852002
20
159.792431
11
188.849770
21
159.525465
0
LINE
8
0
10
190.853277
20
159.521549
11
190.853277
21
159.521549
0
LINE
8
0
10
188.852731
20
159.522078
11
189.853014
21
159.789901
0
LINE
8
0
10
189.853014
20
159.789901
11
190.853166
21
159.521549
0
LINE
8
0
10
187.852517
20
157.789607
11
188.120463
21
158.789859
0
LINE
8
0
10
188.120463
20
158.789859
11
188.852731
21
159.522041
0
LINE
8
0
10
188.853260
20
156.057430
11
188.120806
21
156.789422
0
LINE
8
0
10
188.120806
20
156.789422
11
187.852602
21
157.789607
0
LINE
8
0
10
188.853379
20
156.057369
11
207.164375
21
145.485426
0
LINE
8
0
10
188.853308
20
156.057364
11
188.853308
21
156.057364
0
LINE
8
0
10
207.164303
20
145.485421
11
188.853308
21
156.057364
0
LINE
8
0
10
207.164303
20
145.485421
11
207.164303
21
145.485421
0
LINE
8
0
10
205.492668
20
139.750849
11
205.492668
21
139.750849
0
LINE
8
0
10
207.164430
20
145.485426
11
205.492663
21
139.750870
0
LINE
8
0
10
207.164568
20
145.485421
11
207.164303
21
145.485421
0
LINE
8
0
10
205.492676
20
139.750891
11
207.164459
21
145.485460
0
LINE
8
0
10
205.492668
20
139.750849
11
168.638108
21
161.028878
0
LINE
8
0
10
205.492668
20
139.750849
11
205.492668
21
139.750849
0
LINE
8
0
10
168.638108
20
161.028878
11
205.492668
21
139.750849
0
LINE
8
0
10
168.638108
20
161.028878
11
168.638108
21
161.028878
0
LINE
8
0
10
166.638125
20
157.564693
11
166.638125
21
157.564693
0
LINE
8
0
10
165.910670
20
160.294155
11
165.657724
21
159.542743
0
LINE
8
0
10
165.657724
20
159.542743
11
165.710210
21
158.779051
0
LINE
8
0
10
165.710210
20
158.779051
11
166.044812
21
158.090559
0
LINE
8
0
10
166.044812
20
158.090559
11
166.638210
21
157.564746
0
LINE
8
0
10
168.638158
20
161.028857
11
167.886086
21
161.279830
0
LINE
8
0
10
167.886086
20
161.279830
11
167.122535
21
161.225340
0
LINE
8
0
10
167.122535
20
161.225340
11
166.434924
21
160.888932
0
LINE
8
0
10
166.434924
20
160.888932
11
165.910670
21
160.294155
0
LINE
8
0
10
168.638108
20
161.028878
11
168.638108
21
161.028878
0
LINE
8
0
10
165.906143
20
160.296825
11
166.431510
21
160.892426
0
LINE
8
0
10
166.431510
20
160.892426
11
167.120570
21
161.228662
0
LINE
8
0
10
167.120570
20
161.228662
11
167.885433
21
161.281983
0
LINE
8
0
10
167.885433
20
161.281983
11
168.638209
21
161.028841
0
LINE
8
0
10
166.638162
20
157.564759
11
166.042560
21
158.090126
0
LINE
8
0
10
166.042560
20
158.090126
11
165.706324
21
158.779186
0
LINE
8
0
10
165.706324
20
158.779186
11
165.653002
21
159.544049
0
LINE
8
0
10
165.653002
20
159.544049
11
165.906143
21
160.296825
0
LINE
8
0
10
166.638125
20
157.564693
11
204.166313
21
135.897726
0
LINE
8
0
10
166.638125
20
157.564693
11
166.638125
21
157.564693
0
LINE
8
0
10
204.166313
20
135.897726
11
166.638125
21
157.564693
0
LINE
8
0
10
204.166313
20
135.897726
11
204.166313
21
135.897726
0
LINE
8
0
10
202.034039
20
130.534364
11
202.034039
21
130.534364
0
LINE
8
0
10
204.166379
20
135.897832
11
202.033965
21
130.534280
0
LINE
8
0
10
204.166313
20
135.897991
11
204.166313
21
135.897726
0
LINE
8
0
10
202.034002
20
130.534304
11
204.166364
21
135.897875
0
LINE
8
0
10
202.034039
20
130.534364
11
146.440388
21
162.631193
0
LINE
8
0
10
202.034039
20
130.534364
11
202.034039
21
130.534364
0
LINE
8
0
10
146.440388
20
162.631193
11
202.034039
21
130.534364
0
LINE
8
0
10
146.440388
20
162.631193
11
146.440388
21
162.631193
0
LINE
8
0
10
144.440405
20
159.167272
11
144.440405
21
159.167272
0
LINE
8
0
10
143.708376
20
161.899203
11
143.455246
21
161.146421
0
LINE
8
0
10
143.455246
20
161.146421
11
143.508580
21
160.381558
0
LINE
8
0
10
143.508580
20
160.381558
11
143.844828
21
159.692503
0
LINE
8
0
10
143.844828
20
159.692503
11
144.440440
21
159.167145
0
LINE
8
0
10
146.440436
20
162.631264
11
145.687654
21
162.884396
0
LINE
8
0
10
145.687654
20
162.884396
11
144.922791
21
162.831062
0
LINE
8
0
10
144.922791
20
162.831062
11
144.233735
21
162.494815
0
LINE
8
0
10
144.233735
20
162.494815
11
143.708376
21
161.899203
0
LINE
8
0
10
146.440388
20
162.631193
11
146.440388
21
162.631193
0
LINE
8
0
10
143.709254
20
161.898716
11
144.234403
21
162.494165
0
LINE
8
0
10
144.234403
20
162.494165
11
144.923182
21
162.830440
0
LINE
8
0
10
144.923182
20
162.830440
11
145.687793
21
162.883991
0
LINE
8
0
10
145.687793
20
162.883991
11
146.440436
21
162.631269
0
LINE
8
0
10
144.440437
20
159.167169
11
143.845252
21
159.692616
0
LINE
8
0
10
143.845252
20
159.692616
11
143.509323
21
160.381564
0
LINE
8
0
10
143.509323
20
160.381564
11
143.456155
21
161.146201
0
LINE
8
0
10
143.456155
20
161.146201
11
143.709254
21
161.898716
0
LINE
8
0
10
144.440405
20
159.167272
11
200.376426
21
126.872536
0
LINE
8
0
10
144.440405
20
159.167272
11
144.440405
21
159.167272
0
LINE
8
0
10
200.376426
20
126.872536
11
144.440405
21
159.167272
0
LINE
8
0
10
200.376426
20
126.872536
11
200.376426
21
126.872536
0
LINE
8
0
10
197.564967
20
121.385613
11
197.564967
21
121.385613
0
LINE
8
0
10
200.376530
20
126.872451
11
197.564973
21
121.385693
0
LINE
8
0
10
200.376691
20
126.872536
11
200.376426
21
126.872536
0
LINE
8
0
10
197.564949
20
121.385719
11
200.376569
21
126.872485
0
LINE
8
0
10
197.564967
20
121.385613
11
123.984435
21
163.867324
0
LINE
8
0
10
197.564967
20
121.385613
11
197.564967
21
121.385613
0
LINE
8
0
10
123.984435
20
163.867324
11
197.564967
21
121.385613
0
LINE
8
0
10
123.984435
20
163.867324
11
123.984435
21
163.867324
0
LINE
8
0
10
121.984452
20
160.403404
11
121.984452
21
160.403404
0
LINE
8
0
10
120.975402
20
162.137124
11
121.246905
21
161.134554
0
LINE
8
0
10
121.246905
20
161.134554
11
121.984566
21
160.403343
0
LINE
8
0
10
121.978454
20
163.874455
11
121.243356
21
163.140643
0
LINE
8
0
10
121.243356
20
163.140643
11
120.975415
21
162.137124
0
LINE
8
0
10
123.984533
20
163.867401
11
122.982442
21
164.140639
0
LINE
8
0
10
122.982442
20
164.140639
11
121.978454
21
163.874466
0
LINE
8
0
10
123.984448
20
163.867348
11
123.984448
21
163.867348
0
LINE
8
0
10
121.984151
20
163.867877
11
122.984431
21
164.135693
0
LINE
8
0
10
122.984431
20
164.135693
11
123.984578
21
163.867348
0
LINE
8
0
10
120.983918
20
162.135441
11
121.251879
21
163.135685
0
LINE
8
0
10
121.251879
20
163.135685
11
121.984151
21
163.867854
0
LINE
8
0
10
121.984415
20
160.403253
11
121.251981
21
161.135257
0
LINE
8
0
10
121.251981
20
161.135257
11
120.983797
21
162.135441
0
LINE
8
0
10
121.984344
20
160.403354
11
195.570432
21
117.918203
0
LINE
8
0
10
121.984452
20
160.403409
11
121.984452
21
160.403409
0
LINE
8
0
10
195.570541
20
117.918259
11
121.984452
21
160.403409
0
LINE
8
0
10
195.570541
20
117.918259
11
195.570541
21
117.918259
0
LINE
8
0
10
192.189170
20
112.651998
11
192.189170
21
112.651998
0
LINE
8
0
10
195.570647
20
117.918341
11
192.189077
21
112.652009
0
LINE
8
0
10
195.570805
20
117.918259
11
195.570541
21
117.918259
0
LINE
8
0
10
192.189051
20
112.651988
11
195.570673
21
117.918301
0
LINE
8
0
10
192.189170
20
112.651998
11
136.064237
21
145.055743
0
LINE
8
0
10
192.189170
20
112.651998
11
192.189170
21
112.651998
0
LINE
8
0
10
136.064237
20
145.055743
11
192.189170
21
112.651998
0
LINE
8
0
10
136.064237
20
145.055743
11
136.064237
21
145.055743
0
LINE
8
0
10
134.064254
20
141.591558
11
134.064254
21
141.591558
0
LINE
8
0
10
133.341707
20
144.318147
11
133.088944
21
143.568206
0
LINE
8
0
10
133.088944
20
143.568206
11
133.140509
21
142.805770
0
LINE
8
0
10
133.140509
20
142.805770
11
133.473335
21
142.117878
0
LINE
8
0
10
133.473335
20
142.117878
11
134.064352
21
141.591571
0
LINE
8
0
10
136.064305
20
145.055627
11
135.313001
21
145.304302
0
LINE
8
0
10
135.313001
20
145.304302
11
134.550857
21
145.248586
0
LINE
8
0
10
134.550857
20
145.248586
11
133.864788
21
144.912020
0
LINE
8
0
10
133.864788
20
144.912020
11
133.341707
21
144.318147
0
LINE
8
0
10
136.064237
20
145.055743
11
136.064237
21
145.055743
0
LINE
8
0
10
133.332258
20
144.323618
11
133.857626
21
144.919231
0
LINE
8
0
10
133.857626
20
144.919231
11
134.546691
21
145.255477
0
LINE
8
0
10
134.546691
20
145.255477
11
135.311563
21
145.308806
0
LINE
8
0
10
135.311563
20
145.308806
11
136.064350
21
145.055666
0
LINE
8
0
10
134.064309
20
141.591529
11
133.468695
21
142.116896
0
LINE
8
0
10
133.468695
20
142.116896
11
133.132449
21
142.805960
0
LINE
8
0
10
133.132449
20
142.805960
11
133.079120
21
143.570831
0
LINE
8
0
10
133.079120
20
143.570831
11
133.332258
21
144.323618
0
LINE
8
0
10
134.064254
20
141.591558
11
189.855019
21
109.380694
0
LINE
8
0
10
134.064254
20
141.591558
11
134.064254
21
141.591558
0
LINE
8
0
10
189.855019
20
109.380694
11
134.064254
21
141.591558
0
LINE
8
0
10
189.855019
20
109.380694
11
189.855019
21
109.380694
0
LINE
8
0
10
186.195836
20
104.734088
11
186.195836
21
104.734352
0
LINE
8
0
10
189.854926
20
109.380800
11
186.195886
21
104.734217
0
LINE
8
0
10
189.854754
20
109.380694
11
189.855019
21
109.380694
0
LINE
8
0
10
186.195870
20
104.734254
11
189.854881
21
109.380813
0
LINE
8
0
10
186.195836
20
104.734352
11
148.785123
21
126.333321
0
LINE
8
0
10
186.195836
20
104.734352
11
186.195836
21
104.734352
0
LINE
8
0
10
148.785123
20
126.333321
11
186.195836
21
104.734352
0
LINE
8
0
10
148.785123
20
126.333321
11
148.785123
21
126.333321
0
LINE
8
0
10
146.785140
20
122.869136
11
146.785140
21
122.869136
0
LINE
8
0
10
146.053094
20
125.601283
11
145.799954
21
124.848499
0
LINE
8
0
10
145.799954
20
124.848499
11
145.853280
21
124.083629
0
LINE
8
0
10
145.853280
20
124.083629
11
146.189524
21
123.394564
0
LINE
8
0
10
146.189524
20
123.394564
11
146.785134
21
122.869196
0
LINE
8
0
10
148.785184
20
126.333326
11
148.032398
21
126.586465
0
LINE
8
0
10
148.032398
20
126.586465
11
147.267528
21
126.533139
0
LINE
8
0
10
147.267528
20
126.533139
11
146.578463
21
126.196895
0
LINE
8
0
10
146.578463
20
126.196895
11
146.053094
21
125.601283
0
LINE
8
0
10
148.785123
20
126.333321
11
148.785123
21
126.333321
0
LINE
8
0
10
146.779144
20
126.340226
11
147.783072
21
126.606440
0
LINE
8
0
10
147.783072
20
126.606440
11
148.785133
21
126.333294
0
LINE
8
0
10
145.776155
20
124.602982
11
146.044066
21
125.606450
0
LINE
8
0
10
146.044066
20
125.606450
11
146.779144
21
126.340237
0
LINE
8
0
10
146.785177
20
122.869231
11
146.047579
21
123.600453
0
LINE
8
0
10
146.047579
20
123.600453
11
145.776147
21
124.602982
0
LINE
8
0
10
146.785140
20
122.869136
11
183.525929
21
101.656987
0
LINE
8
0
10
146.785140
20
122.869136
11
146.785140
21
122.869136
0
LINE
8
0
10
183.525929
20
101.656987
11
146.785140
21
122.869136
0
LINE
8
0
10
183.525929
20
101.656987
11
183.525929
21
101.656987
0
LINE
8
0
10
179.374357
20
97.312005
11
179.374357
21
97.312005
0
LINE
8
0
10
183.525958
20
101.656934
11
179.374294
21
97.312032
0
LINE
8
0
10
183.525929
20
101.656987
11
183.525929
21
101.656987
0
LINE
8
0
10
179.374309
20
97.311979
11
183.525990
21
101.656921
0
LINE
8
0
10
179.374357
20
97.312005
11
161.009651
21
107.914904
0
LINE
8
0
10
179.374357
20
97.312005
11
179.374357
21
97.312005
0
LINE
8
0
10
161.009651
20
107.914904
11
179.374357
21
97.312005
0
LINE
8
0
10
161.009651
20
107.914904
11
161.009651
21
107.914904
0
LINE
8
0
10
159.009404
20
104.450719
11
159.009668
21
104.450719
0
LINE
8
0
10
158.282216
20
107.180152
11
158.029255
21
106.428796
0
LINE
8
0
10
158.029255
20
106.428796
11
158.081691
21
105.665145
0
LINE
8
0
10
158.081691
20
105.665145
11
158.416215
21
104.976664
0
LINE
8
0
10
158.416215
20
104.976664
11
159.009520
21
104.450820
0
LINE
8
0
10
161.009564
20
107.914873
11
160.257523
21
108.165791
0
LINE
8
0
10
160.257523
20
108.165791
11
159.494017
21
108.111281
0
LINE
8
0
10
159.494017
20
108.111281
11
158.806447
21
107.774886
0
LINE
8
0
10
158.806447
20
107.774886
11
158.282216
21
107.180152
0
LINE
8
0
10
161.009386
20
107.914904
11
161.009651
21
107.914904
0
LINE
8
0
10
158.277847
20
107.182605
11
158.803107
21
107.778153
0
LINE
8
0
10
158.803107
20
107.778153
11
159.492039
21
108.114421
0
LINE
8
0
10
159.492039
20
108.114421
11
160.256793
21
108.167859
0
LINE
8
0
10
160.256793
20
108.167859
11
161.009519
21
107.914915
0
LINE
8
0
10
159.009565
20
104.450775
11
158.414131
21
104.976163
0
LINE
8
0
10
158.414131
20
104.976163
11
158.078011
21
105.665168
0
LINE
8
0
10
158.078011
20
105.665168
11
158.024739
21
106.429934
0
LINE
8
0
10
158.024739
20
106.429934
11
158.277847
21
107.182605
0
LINE
8
0
10
159.009668
20
104.450719
11
176.349909
21
94.438634
0
LINE
8
0
10
159.009668
20
104.450719
11
159.009668
21
104.450719
0
LINE
8
0
10
176.349909
20
94.438634
11
159.009668
21
104.450719
0
LINE
8
0
10
176.349909
20
94.438634
11
176.349909
21
94.438634
0
LINE
8
0
10
137.408847
20
71.938496
11
137.408847
21
71.938496
0
LINE
8
0
10
176.349864
20
94.439348
11
172.052993
21
90.725485
0
LINE
8
0
10
172.052993
20
90.725485
11
167.571625
21
87.256727
0
LINE
8
0
10
167.571625
20
87.256727
11
162.916470
21
84.039266
0
LINE
8
0
10
162.916470
20
84.039266
11
158.098243
21
81.079293
0
LINE
8
0
10
158.098243
20
81.079293
11
153.127654
21
78.382996
0
LINE
8
0
10
153.127654
20
78.382996
11
148.015417
21
75.956567
0
LINE
8
0
10
148.015417
20
75.956567
11
142.772244
21
73.806195
0
LINE
8
0
10
142.772244
20
73.806195
11
137.408847
21
71.938072
0
LINE
8
0
10
176.349909
20
94.438634
11
176.349909
21
94.438634
0
LINE
8
0
10
137.408832
20
71.938046
11
142.772234
21
73.806169
0
LINE
8
0
10
142.772234
20
73.806169
11
148.015414
21
75.956540
0
LINE
8
0
10
148.015414
20
75.956540
11
153.127657
21
78.382969
0
LINE
8
0
10
153.127657
20
78.382969
11
158.098253
21
81.079266
0
LINE
8
0
10
158.098253
20
81.079266
11
162.916487
21
84.039240
0
LINE
8
0
10
162.916487
20
84.039240
11
167.571648
21
87.256701
0
LINE
8
0
10
167.571648
20
87.256701
11
172.053022
21
90.725458
0
LINE
8
0
10
172.053022
20
90.725458
11
176.349898
21
94.439322
0
LINE
8
0
10
137.408847
20
71.938496
11
137.408847
21
91.895991
0
LINE
8
0
10
137.408847
20
71.938496
11
137.408847
21
71.938496
0
LINE
8
0
10
137.408847
20
91.895991
11
137.408847
21
71.938496
0
LINE
8
0
10
137.408847
20
91.895991
11
137.408847
21
91.895991
0
LINE
8
0
10
133.408882
20
91.895991
11
133.408882
21
91.895991
0
LINE
8
0
10
134.407278
20
93.632635
11
133.674979
21
92.898344
0
LINE
8
0
10
133.674979
20
92.898344
11
133.408853
21
91.896044
0
LINE
8
0
10
136.410436
20
93.632635
11
135.408858
21
93.901497
0
LINE
8
0
10
135.408858
20
93.901497
11
134.407278
21
93.632635
0
LINE
8
0
10
137.408832
20
91.895991
11
137.142678
21
92.898318
0
LINE
8
0
10
137.142678
20
92.898318
11
136.410436
21
93.632635
0
LINE
8
0
10
137.408847
20
91.895991
11
137.408847
21
91.895991
0
LINE
8
0
10
136.408832
20
93.628084
11
137.140890
21
92.896039
0
LINE
8
0
10
137.140890
20
92.896039
11
137.408847
21
91.896044
0
LINE
8
0
10
134.408825
20
93.628057
11
135.408827
21
93.896030
0
LINE
8
0
10
135.408827
20
93.896030
11
136.408832
21
93.628084
0
LINE
8
0
10
133.408837
20
91.895991
11
133.676780
21
92.895999
0
LINE
8
0
10
133.676780
20
92.895999
11
134.408825
21
93.628057
0
LINE
8
0
10
133.408882
20
91.895991
11
133.408882
21
70.753164
0
LINE
8
0
10
133.408882
20
91.895991
11
133.408882
21
91.895991
0
LINE
8
0
10
133.408882
20
70.753164
11
133.408882
21
91.895991
0
LINE
8
0
10
133.408882
20
70.753164
11
133.408882
21
70.753164
0
LINE
8
0
10
127.606576
20
69.332353
11
127.606841
21
69.332353
0
LINE
8
0
10
133.408837
20
70.752000
11
127.606661
21
69.332062
0
LINE
8
0
10
133.408882
20
70.753164
11
133.408882
21
70.753164
0
LINE
8
0
10
127.606709
20
69.332512
11
133.408853
21
70.752053
0
LINE
8
0
10
127.606841
20
69.332353
11
127.606841
21
111.888412
0
LINE
8
0
10
127.606841
20
69.332353
11
127.606841
21
69.332353
0
LINE
8
0
10
127.606841
20
111.888412
11
127.606841
21
69.332353
0
LINE
8
0
10
127.606841
20
111.888412
11
127.606841
21
111.888412
0
LINE
8
0
10
123.606611
20
111.888412
11
123.606611
21
111.888412
0
LINE
8
0
10
124.606658
20
113.620489
11
123.874607
21
112.888423
0
LINE
8
0
10
123.874607
20
112.888423
11
123.606666
21
111.888409
0
LINE
8
0
10
126.606680
20
113.620507
11
125.606667
21
113.888451
0
LINE
8
0
10
125.606667
20
113.888451
11
124.606658
21
113.620489
0
LINE
8
0
10
127.606709
20
111.888449
11
127.338746
21
112.888456
0
LINE
8
0
10
127.338746
20
112.888456
11
126.606680
21
113.620507
0
LINE
8
0
10
127.606576
20
111.888412
11
127.606841
21
111.888412
0
LINE
8
0
10
125.606707
20
113.878526
11
126.382794
21
113.722350
0
LINE
8
0
10
126.382794
20
113.722350
11
127.017409
21
113.296223
0
LINE
8
0
10
127.017409
20
113.296223
11
127.446661
21
112.663718
0
LINE
8
0
10
127.446661
20
112.663718
11
127.606661
21
111.888409
0
LINE
8
0
10
123.606714
20
111.888449
11
123.766726
21
112.663754
0
LINE
8
0
10
123.766726
20
112.663754
11
124.195990
21
113.296251
0
LINE
8
0
10
124.195990
20
113.296251
11
124.830615
21
113.722366
0
LINE
8
0
10
124.830615
20
113.722366
11
125.606707
21
113.878526
0
LINE
8
0
10
123.606611
20
111.888412
11
123.606611
21
68.554479
0
LINE
8
0
10
123.606611
20
111.888412
11
123.606611
21
111.888412
0
LINE
8
0
10
123.606611
20
68.554479
11
123.606611
21
111.888412
0
LINE
8
0
10
123.606611
20
68.554479
11
123.606611
21
68.554479
0
LINE
8
0
10
117.895587
20
67.718397
11
117.895587
21
67.718397
0
LINE
8
0
10
123.606714
20
68.554585
11
117.895573
21
67.719058
0
LINE
8
0
10
123.606611
20
68.554479
11
123.606611
21
68.554479
0
LINE
8
0
10
117.895573
20
67.719534
11
123.606666
21
68.555061
0
LINE
8
0
10
117.895587
20
67.718397
11
117.895587
21
131.913376
0
LINE
8
0
10
117.895587
20
67.718397
11
117.895587
21
67.718397
0
LINE
8
0
10
117.895587
20
131.913376
11
117.895587
21
67.718397
0
LINE
8
0
10
117.895587
20
131.913376
11
117.895587
21
131.913376
0
LINE
8
0
10
113.895621
20
131.913376
11
113.895621
21
131.913376
0
LINE
8
0
10
115.895593
20
133.912830
11
115.117256
21
133.755732
0
LINE
8
0
10
115.117256
20
133.755732
11
114.481600
21
133.327282
0
LINE
8
0
10
114.481600
20
133.327282
11
114.052937
21
132.691770
0
LINE
8
0
10
114.052937
20
132.691770
11
113.895578
21
131.913485
0
LINE
8
0
10
117.895573
20
131.913445
11
117.738260
21
132.691733
0
LINE
8
0
10
117.738260
20
132.691733
11
117.309605
21
133.327254
0
LINE
8
0
10
117.309605
20
133.327254
11
116.673939
21
133.755717
0
LINE
8
0
10
116.673939
20
133.755717
11
115.895593
21
133.912830
0
LINE
8
0
10
117.895587
20
131.913376
11
117.895587
21
131.913376
0
LINE
8
0
10
115.895556
20
133.911915
11
116.673671
21
133.754908
0
LINE
8
0
10
116.673671
20
133.754908
11
117.309225
21
133.326688
0
LINE
8
0
10
117.309225
20
133.326688
11
117.737949
21
132.691475
0
LINE
8
0
10
117.737949
20
132.691475
11
117.895573
21
131.913485
0
LINE
8
0
10
113.895578
20
131.913445
11
114.053165
21
132.691439
0
LINE
8
0
10
114.053165
20
132.691439
11
114.481879
21
133.326662
0
LINE
8
0
10
114.481879
20
133.326662
11
115.117437
21
133.754893
0
LINE
8
0
10
115.117437
20
133.754893
11
115.895556
21
133.911915
0
LINE
8
0
10
113.895621
20
131.913376
11
113.895621
21
67.324168
0
LINE
8
0
10
113.895621
20
131.913376
11
113.895621
21
131.913376
0
LINE
8
0
10
113.895621
20
67.324168
11
113.895621
21
131.913376
0
LINE
8
0
10
113.895621
20
67.324168
11
113.895621
21
67.324168
0
LINE
8
0
10
107.738245
20
67.014606
11
107.738245
21
67.014606
0
LINE
8
0
10
113.895578
20
67.324009
11
107.738145
21
67.015056
0
LINE
8
0
10
113.895621
20
67.324168
11
113.895621
21
67.324168
0
LINE
8
0
10
107.738139
20
67.015558
11
113.895578
21
67.324062
0
LINE
8
0
10
107.738245
20
67.014606
11
107.738245
21
151.978822
0
LINE
8
0
10
107.738245
20
67.014606
11
107.738245
21
67.014606
0
LINE
8
0
10
107.738245
20
151.978822
11
107.738245
21
67.014606
0
LINE
8
0
10
107.738245
20
151.978822
11
107.738245
21
151.978822
0
LINE
8
0
10
103.738279
20
151.978822
11
103.738015
21
151.978822
0
LINE
8
0
10
104.737300
20
153.713306
11
104.005132
21
152.980070
0
LINE
8
0
10
104.005132
20
152.980070
11
103.738150
21
151.978859
0
LINE
8
0
10
106.738950
20
153.713330
11
105.738122
21
153.981743
0
LINE
8
0
10
105.738122
20
153.981743
11
104.737300
21
153.713306
0
LINE
8
0
10
107.738139
20
151.978907
11
107.471151
21
152.980111
0
LINE
8
0
10
107.471151
20
152.980111
11
106.738950
21
153.713330
0
LINE
8
0
10
107.738245
20
151.978822
11
107.738245
21
151.978822
0
LINE
8
0
10
106.738296
20
153.711293
11
107.470356
21
152.979050
0
LINE
8
0
10
107.470356
20
152.979050
11
107.738145
21
151.978859
0
LINE
8
0
10
104.738038
20
153.711317
11
105.738169
21
153.979328
0
LINE
8
0
10
105.738169
20
153.979328
11
106.738296
21
153.711293
0
LINE
8
0
10
103.738144
20
151.978907
11
104.005957
21
152.979091
0
LINE
8
0
10
104.005957
20
152.979091
11
104.738038
21
153.711317
0
LINE
8
0
10
103.738015
20
151.978822
11
103.738015
21
67.009314
0
LINE
8
0
10
103.738015
20
151.978822
11
103.738015
21
151.978822
0
LINE
8
0
10
103.738015
20
67.009314
11
103.738015
21
151.978822
0
LINE
8
0
10
103.738015
20
67.009314
11
103.738015
21
67.009314
0
LINE
8
0
10
97.486448
20
67.303001
11
97.486448
21
67.305647
0
LINE
8
0
10
103.738144
20
67.008970
11
97.486559
21
67.304060
0
LINE
8
0
10
103.738279
20
67.009314
11
103.738015
21
67.009314
0
LINE
8
0
10
97.486554
20
67.304351
11
103.738150
21
67.009076
0
LINE
8
0
10
97.486448
20
67.305647
11
97.486448
21
132.111549
0
LINE
8
0
10
97.486448
20
67.305647
11
97.486448
21
67.305647
0
LINE
8
0
10
97.486448
20
132.111549
11
97.486448
21
67.305647
0
LINE
8
0
10
97.486448
20
132.111549
11
97.486448
21
132.111549
0
LINE
8
0
10
93.486482
20
132.111549
11
93.486482
21
132.111549
0
LINE
8
0
10
95.486563
20
134.102174
11
94.710359
21
133.945951
0
LINE
8
0
10
94.710359
20
133.945951
11
94.075691
21
133.519704
0
LINE
8
0
10
94.075691
20
133.519704
11
93.646469
21
132.887044
0
LINE
8
0
10
93.646469
20
132.887044
11
93.486604
21
132.111583
0
LINE
8
0
10
97.486554
20
132.111615
11
97.326680
21
132.887073
0
LINE
8
0
10
97.326680
20
132.887073
11
96.897447
21
133.519726
0
LINE
8
0
10
96.897447
20
133.519726
11
96.262770
21
133.945963
0
LINE
8
0
10
96.262770
20
133.945963
11
95.486563
21
134.102174
0
LINE
8
0
10
97.486448
20
132.111549
11
97.486448
21
132.111549
0
LINE
8
0
10
95.486573
20
134.110704
11
96.264846
21
133.953619
0
LINE
8
0
10
96.264846
20
133.953619
11
96.900466
21
133.525223
0
LINE
8
0
10
96.900466
20
133.525223
11
97.329137
21
132.889787
0
LINE
8
0
10
97.329137
20
132.889787
11
97.486559
21
132.111583
0
LINE
8
0
10
93.486559
20
132.111615
11
93.644003
21
132.889816
0
LINE
8
0
10
93.644003
20
132.889816
11
94.072682
21
133.525245
0
LINE
8
0
10
94.072682
20
133.525245
11
94.708303
21
133.953631
0
LINE
8
0
10
94.708303
20
133.953631
11
95.486573
21
134.110704
0
LINE
8
0
10
93.486482
20
132.111549
11
93.486482
21
67.689293
0
LINE
8
0
10
93.486482
20
132.111549
11
93.486482
21
132.111549
0
LINE
8
0
10
93.486482
20
67.689293
11
93.486482
21
132.111549
0
LINE
8
0
10
93.486482
20
67.689293
11
93.486482
21
67.689293
0
LINE
8
0
10
87.633112
20
68.535958
11
87.633112
21
68.535958
0
LINE
8
0
10
93.486559
20
67.690166
11
87.633009
21
68.536064
0
LINE
8
0
10
93.486482
20
67.689293
11
93.486482
21
67.689293
0
LINE
8
0
10
87.633004
20
68.535720
11
93.486604
21
67.690060
0
LINE
8
0
10
87.633112
20
68.535958
11
87.633112
21
111.733895
0
LINE
8
0
10
87.633112
20
68.535958
11
87.633112
21
68.535958
0
LINE
8
0
10
87.633112
20
111.733895
11
87.633112
21
68.535958
0
LINE
8
0
10
87.633112
20
111.733895
11
87.633112
21
111.733895
0
LINE
8
0
10
83.633146
20
111.733895
11
83.632882
21
111.733895
0
LINE
8
0
10
84.632032
20
113.468832
11
83.899820
21
112.735368
0
LINE
8
0
10
83.899820
20
112.735368
11
83.633014
21
111.733909
0
LINE
8
0
10
86.634028
20
113.468809
11
85.633033
21
113.737347
0
LINE
8
0
10
85.633033
20
113.737347
11
84.632032
21
113.468832
0
LINE
8
0
10
87.633004
20
111.733861
11
87.366251
21
112.735327
0
LINE
8
0
10
87.366251
20
112.735327
11
86.634028
21
113.468809
0
LINE
8
0
10
87.633112
20
111.733895
11
87.633112
21
111.733895
0
LINE
8
0
10
86.632988
20
113.465948
11
87.365048
21
112.733906
0
LINE
8
0
10
87.365048
20
112.733906
11
87.633009
21
111.733909
0
LINE
8
0
10
84.632990
20
113.465925
11
85.632985
21
113.733886
0
LINE
8
0
10
85.632985
20
113.733886
11
86.632988
21
113.465948
0
LINE
8
0
10
83.633009
20
111.733861
11
83.900947
21
112.733866
0
LINE
8
0
10
83.900947
20
112.733866
11
84.632990
21
113.465925
0
LINE
8
0
10
83.632882
20
111.733895
11
83.632882
21
69.308541
0
LINE
8
0
10
83.632882
20
111.733895
11
83.632882
21
111.733895
0
LINE
8
0
10
83.632882
20
69.308541
11
83.632882
21
111.733895
0
LINE
8
0
10
83.632882
20
69.308541
11
83.632882
21
69.308541
0
LINE
8
0
10
77.794329
20
70.731997
11
77.794329
21
70.731997
0
LINE
8
0
10
83.633009
20
69.309281
11
77.794323
21
70.732050
0
LINE
8
0
10
83.633146
20
69.308541
11
83.632882
21
69.308541
0
LINE
8
0
10
77.794347
20
70.732235
11
83.633014
21
69.309070
0
LINE
8
0
10
77.794329
20
70.731997
11
77.794329
21
91.938325
0
LINE
8
0
10
77.794329
20
70.731997
11
77.794329
21
70.731997
0
LINE
8
0
10
77.794329
20
91.938325
11
77.794329
21
70.731997
0
LINE
8
0
10
77.794329
20
91.938325
11
77.794329
21
91.938325
0
LINE
8
0
10
73.794363
20
91.938325
11
73.794363
21
91.938325
0
LINE
8
0
10
74.794341
20
93.670100
11
74.062283
21
92.938042
0
LINE
8
0
10
74.062283
20
92.938042
11
73.794329
21
91.938034
0
LINE
8
0
10
76.794353
20
93.670073
11
75.794349
21
93.938026
0
LINE
8
0
10
75.794349
20
93.938026
11
74.794341
21
93.670100
0
LINE
8
0
10
77.794347
20
91.938007
11
77.526402
21
92.938015
0
LINE
8
0
10
77.526402
20
92.938015
11
76.794353
21
93.670073
0
LINE
8
0
10
77.794329
20
91.938325
11
77.794329
21
91.938325
0
LINE
8
0
10
75.794327
20
93.931084
11
76.571137
21
93.774630
0
LINE
8
0
10
76.571137
20
93.774630
11
77.206090
21
93.347765
0
LINE
8
0
10
77.206090
20
93.347765
11
77.635160
21
92.714297
0
LINE
8
0
10
77.635160
20
92.714297
11
77.794323
21
91.938034
0
LINE
8
0
10
73.794352
20
91.938007
11
73.953506
21
92.714271
0
LINE
8
0
10
73.953506
20
92.714271
11
74.382570
21
93.347742
0
LINE
8
0
10
74.382570
20
93.347742
11
75.017518
21
93.774615
0
LINE
8
0
10
75.017518
20
93.774615
11
75.794327
21
93.931084
0
LINE
8
0
10
73.794363
20
91.938325
11
73.794363
21
71.914683
0
LINE
8
0
10
73.794363
20
91.938325
11
73.794363
21
91.938325
0
LINE
8
0
10
73.794363
20
71.914683
11
73.794363
21
91.938325
0
LINE
8
0
10
73.794363
20
71.914683
11
73.794363
21
71.914683
0
LINE
8
0
10
34.837162
20
94.388363
11
34.837162
21
94.388363
0
LINE
8
0
10
73.794352
20
71.915159
11
68.429616
21
73.779424
0
LINE
8
0
10
68.429616
20
73.779424
11
63.184899
21
75.926024
0
LINE
8
0
10
63.184899
20
75.926024
11
58.070920
21
78.348777
0
LINE
8
0
10
58.070920
20
78.348777
11
53.098395
21
81.041500
0
LINE
8
0
10
53.098395
20
81.041500
11
48.278041
21
83.998011
0
LINE
8
0
10
48.278041
20
83.998011
11
43.620575
21
87.212126
0
LINE
8
0
10
43.620575
20
87.212126
11
39.136714
21
90.677665
0
LINE
8
0
10
39.136714
20
90.677665
11
34.837175
21
94.388443
0
LINE
8
0
10
73.794363
20
71.914683
11
73.794363
21
71.914683
0
LINE
8
0
10
34.837138
20
94.388443
11
39.136675
21
90.677647
0
LINE
8
0
10
39.136675
20
90.677647
11
43.620535
21
87.212095
0
LINE
8
0
10
43.620535
20
87.212095
11
48.278001
21
83.997968
0
LINE
8
0
10
48.278001
20
83.997968
11
53.098357
21
81.041447
0
LINE
8
0
10
53.098357
20
81.041447
11
58.070884
21
78.348714
0
LINE
8
0
10
58.070884
20
78.348714
11
63.184867
21
75.925950
0
LINE
8
0
10
63.184867
20
75.925950
11
68.429587
21
73.779336
0
LINE
8
0
10
68.429587
20
73.779336
11
73.794329
21
71.915054
0
LINE
8
0
10
34.837162
20
94.388363
11
52.121311
21
104.367376
0
LINE
8
0
10
34.837162
20
94.388363
11
34.837162
21
94.388363
0
LINE
8
0
10
52.121311
20
104.367376
11
34.837162
21
94.388363
0
LINE
8
0
10
52.121311
20
104.367376
11
52.121311
21
104.367376
0
LINE
8
0
10
50.121328
20
107.831561
11
50.121328
21
107.831561
0
LINE
8
0
10
52.122907
20
107.833413
11
51.121827
21
108.100895
0
LINE
8
0
10
51.121827
20
108.100895
11
50.121257
21
107.831561
0
LINE
8
0
10
53.123724
20
106.099974
11
52.855751
21
107.100929
0
LINE
8
0
10
52.855751
20
107.100929
11
52.122907
21
107.833461
0
LINE
8
0
10
52.121319
20
104.367455
11
52.854899
21
105.099278
0
LINE
8
0
10
52.854899
20
105.099278
11
53.123808
21
106.099974
0
LINE
8
0
10
52.121311
20
104.367376
11
52.121311
21
104.367376
0
LINE
8
0
10
53.122043
20
106.099627
11
52.853792
21
105.099402
0
LINE
8
0
10
52.853792
20
105.099402
11
52.121256
21
104.367418
0
LINE
8
0
10
52.121785
20
107.832135
11
52.854105
21
107.099934
0
LINE
8
0
10
52.854105
20
107.099934
11
53.122059
21
106.099627
0
LINE
8
0
10
50.121252
20
107.831505
11
51.121434
21
108.099911
0
LINE
8
0
10
51.121434
20
108.099911
11
52.121785
21
107.832034
0
LINE
8
0
10
50.121344
20
107.831505
11
31.810084
21
97.259033
0
LINE
8
0
10
50.121344
20
107.831505
11
50.121344
21
107.831505
0
LINE
8
0
10
31.810084
20
97.259033
11
50.121344
21
107.831505
0
LINE
8
0
10
31.810084
20
97.259033
11
31.810084
21
97.259033
0
LINE
8
0
10
27.679679
20
101.574382
11
27.679679
21
101.574382
0
LINE
8
0
10
31.810012
20
97.259456
11
27.679602
21
101.574467
0
LINE
8
0
10
31.810068
20
97.259089
11
31.810068
21
97.259089
0
LINE
8
0
10
27.679620
20
101.574554
11
31.809981
21
97.259538
0
LINE
8
0
10
27.679663
20
101.574437
11
64.534223
21
122.852467
0
LINE
8
0
10
27.679663
20
101.574437
11
27.679663
21
101.574437
0
LINE
8
0
10
64.534223
20
122.852467
11
27.679663
21
101.574437
0
LINE
8
0
10
64.534223
20
122.852467
11
64.534223
21
122.852467
0
LINE
8
0
10
62.534240
20
126.316652
11
62.534240
21
126.316652
0
LINE
8
0
10
65.260180
20
125.581093
11
64.736269
21
126.175592
0
LINE
8
0
10
64.736269
20
126.175592
11
64.049114
21
126.512039
0
LINE
8
0
10
64.049114
20
126.512039
11
63.285983
21
126.566887
0
LINE
8
0
10
63.285983
20
126.566887
11
62.534142
21
126.316591
0
LINE
8
0
10
64.534138
20
122.852520
11
65.126818
21
123.378488
0
LINE
8
0
10
65.126818
20
123.378488
11
65.460880
21
124.066806
0
LINE
8
0
10
65.460880
20
124.066806
11
65.513081
21
124.830123
0
LINE
8
0
10
65.513081
20
124.830123
11
65.260180
21
125.581093
0
LINE
8
0
10
64.534223
20
122.852467
11
64.534223
21
122.852467
0
LINE
8
0
10
65.265551
20
125.584181
11
65.518657
21
124.831595
0
LINE
8
0
10
65.518657
20
124.831595
11
65.465445
21
124.066898
0
LINE
8
0
10
65.465445
20
124.066898
11
65.129433
21
123.377921
0
LINE
8
0
10
65.129433
20
123.377921
11
64.534138
21
122.852496
0
LINE
8
0
10
62.534139
20
126.316618
11
63.286820
21
126.569440
0
LINE
8
0
10
63.286820
20
126.569440
11
64.051497
21
126.515941
0
LINE
8
0
10
64.051497
20
126.515941
11
64.740348
21
126.179671
0
LINE
8
0
10
64.740348
20
126.179671
11
65.265551
21
125.584181
0
LINE
8
0
10
62.534240
20
126.316652
11
25.005920
21
104.649686
0
LINE
8
0
10
62.534240
20
126.316652
11
62.534240
21
126.316652
0
LINE
8
0
10
25.005920
20
104.649686
11
62.534240
21
126.316652
0
LINE
8
0
10
25.005920
20
104.649686
11
25.005920
21
104.649686
0
LINE
8
0
10
21.427197
20
109.178024
11
21.427170
21
109.178024
0
LINE
8
0
10
25.005922
20
104.649691
11
21.427194
21
109.178114
0
LINE
8
0
10
25.005894
20
104.649686
11
25.005920
21
104.649686
0
LINE
8
0
10
21.427160
20
109.178148
11
25.005890
21
104.649717
0
LINE
8
0
10
21.427170
20
109.178024
11
77.020688
21
141.275117
0
LINE
8
0
10
21.427170
20
109.178024
11
21.427170
21
109.178024
0
LINE
8
0
10
77.020688
20
141.275117
11
21.427170
21
109.178024
0
LINE
8
0
10
77.020688
20
141.275117
11
77.020688
21
141.275117
0
LINE
8
0
10
75.020705
20
144.739037
11
75.020705
21
144.739302
0
LINE
8
0
10
77.745794
20
144.003118
11
77.222116
21
144.597439
0
LINE
8
0
10
77.222116
20
144.597439
11
76.535267
21
144.933916
0
LINE
8
0
10
76.535267
20
144.933916
11
75.772415
21
144.989007
0
LINE
8
0
10
75.772415
20
144.989007
11
75.020726
21
144.739167
0
LINE
8
0
10
77.020725
20
141.275109
11
77.612932
21
141.801177
0
LINE
8
0
10
77.612932
20
141.801177
11
77.946641
21
142.489376
0
LINE
8
0
10
77.946641
20
142.489376
11
77.998659
21
143.252443
0
LINE
8
0
10
77.998659
20
143.252443
11
77.745794
21
144.003118
0
LINE
8
0
10
77.020688
20
141.275117
11
77.020688
21
141.275117
0
LINE
8
0
10
77.752427
20
144.006925
11
78.005542
21
143.254252
0
LINE
8
0
10
78.005542
20
143.254252
11
77.952276
21
142.489481
0
LINE
8
0
10
77.952276
20
142.489481
11
77.616158
21
141.800468
0
LINE
8
0
10
77.616158
20
141.800468
11
77.020722
21
141.275072
0
LINE
8
0
10
75.020729
20
144.739207
11
75.773455
21
144.992162
0
LINE
8
0
10
75.773455
20
144.992162
11
76.538215
21
144.938733
0
LINE
8
0
10
76.538215
20
144.938733
11
77.227156
21
144.602471
0
LINE
8
0
10
77.227156
20
144.602471
11
77.752427
21
144.006925
0
LINE
8
0
10
75.020705
20
144.739302
11
19.084632
21
112.444565
0
LINE
8
0
10
75.020705
20
144.739302
11
75.020705
21
144.739302
0
LINE
8
0
10
19.084632
20
112.444565
11
75.020705
21
144.739302
0
LINE
8
0
10
19.084632
20
112.444565
11
19.084632
21
112.444565
0
LINE
8
0
10
15.738795
20
117.622719
11
15.738768
21
117.622719
0
LINE
8
0
10
19.084637
20
112.444489
11
15.738802
21
117.622801
0
LINE
8
0
10
19.084605
20
112.444565
11
19.084632
21
112.444565
0
LINE
8
0
10
15.738780
20
117.622754
11
19.084597
21
112.444510
0
LINE
8
0
10
15.738768
20
117.622719
11
89.319300
21
160.104430
0
LINE
8
0
10
15.738768
20
117.622719
11
15.738768
21
117.622719
0
LINE
8
0
10
89.319300
20
160.104430
11
15.738768
21
117.622719
0
LINE
8
0
10
89.319300
20
160.104430
11
89.319300
21
160.104430
0
LINE
8
0
10
87.319317
20
163.568616
11
87.319317
21
163.568616
0
LINE
8
0
10
89.319424
20
163.568780
11
88.319284
21
163.836668
0
LINE
8
0
10
88.319284
20
163.836668
11
87.319211
21
163.568534
0
LINE
8
0
10
90.319529
20
161.836544
11
90.051581
21
162.836668
0
LINE
8
0
10
90.051581
20
162.836668
11
89.319424
21
163.568780
0
LINE
8
0
10
89.319207
20
160.104433
11
90.051455
21
160.836455
0
LINE
8
0
10
90.051455
20
160.836455
11
90.319529
21
161.836544
0
LINE
8
0
10
89.319300
20
160.104430
11
89.319300
21
160.104430
0
LINE
8
0
10
90.323577
20
161.837335
11
90.053973
21
160.836105
0
LINE
8
0
10
90.053973
20
160.836105
11
89.319207
21
160.104449
0
LINE
8
0
10
89.322117
20
163.571904
11
90.055625
21
162.839015
0
LINE
8
0
10
90.055625
20
162.839015
11
90.323575
21
161.837335
0
LINE
8
0
10
87.319208
20
163.568531
11
88.320209
21
163.839007
0
LINE
8
0
10
88.320209
20
163.839007
11
89.322117
21
163.571891
0
LINE
8
0
10
87.319317
20
163.568610
11
13.733097
21
121.083460
0
LINE
8
0
10
87.319317
20
163.568610
11
87.319317
21
163.568610
0
LINE
8
0
10
13.733097
20
121.083460
11
87.319317
21
163.568610
0
LINE
8
0
10
13.733097
20
121.083460
11
13.733097
21
121.083460
0
LINE
8
0
10
10.863112
20
126.645259
11
10.863086
21
126.645259
0
LINE
8
0
10
13.733088
20
121.083558
11
10.863108
21
126.645285
0
LINE
8
0
10
13.733097
20
121.083724
11
13.733097
21
121.083460
0
LINE
8
0
10
10.863091
20
126.645285
11
13.733104
21
121.083597
0
LINE
8
0
10
10.863086
20
126.645264
11
66.987965
21
159.049009
0
LINE
8
0
10
10.863086
20
126.645264
11
10.863086
21
126.645264
0
LINE
8
0
10
66.987965
20
159.049009
11
10.863086
21
126.645264
0
LINE
8
0
10
66.987965
20
159.049009
11
66.987965
21
159.049009
0
LINE
8
0
10
64.987718
20
162.512929
11
64.987718
21
162.512929
0
LINE
8
0
10
67.717288
20
161.779468
11
67.192557
21
162.374597
0
LINE
8
0
10
67.192557
20
162.374597
11
66.504325
21
162.710930
0
LINE
8
0
10
66.504325
20
162.710930
11
65.740213
21
162.764919
0
LINE
8
0
10
65.740213
20
162.764919
11
64.987840
21
162.513017
0
LINE
8
0
10
66.987836
20
159.048921
11
67.582177
21
159.574545
0
LINE
8
0
10
67.582177
20
159.574545
11
67.917477
21
160.263281
0
LINE
8
0
10
67.917477
20
160.263281
11
67.970320
21
161.027474
0
LINE
8
0
10
67.970320
20
161.027474
11
67.717288
21
161.779468
0
LINE
8
0
10
66.987965
20
159.049009
11
66.987965
21
159.049009
0
LINE
8
0
10
67.714021
20
161.777606
11
67.966929
21
161.026593
0
LINE
8
0
10
67.966929
20
161.026593
11
67.914700
21
160.263239
0
LINE
8
0
10
67.914700
20
160.263239
11
67.580586
21
159.574904
0
LINE
8
0
10
67.580586
20
159.574904
11
66.987836
21
159.048951
0
LINE
8
0
10
64.987837
20
162.513019
11
65.739701
21
162.763384
0
LINE
8
0
10
65.739701
20
162.763384
11
66.502874
21
162.708574
0
LINE
8
0
10
66.502874
20
162.708574
11
67.190075
21
162.372133
0
LINE
8
0
10
67.190075
20
162.372133
11
67.714021
21
161.777606
0
LINE
8
0
10
64.987718
20
162.512929
11
9.197218
21
130.302330
0
LINE
8
0
10
64.987718
20
162.512929
11
64.987718
21
162.512929
0
LINE
8
0
10
9.197218
20
130.302330
11
64.987718
21
162.512929
0
LINE
8
0
10
9.197218
20
130.302330
11
9.197218
21
130.302330
0
LINE
8
0
10
7.002714
20
135.794280
11
7.002714
21
135.794280
0
LINE
8
0
10
9.197219
20
130.302291
11
7.002712
21
135.794380
0
LINE
8
0
10
9.197218
20
130.302330
11
9.197218
21
130.302330
0
LINE
8
0
10
7.002724
20
135.794399
11
9.197210
21
130.302285
0
LINE
8
0
10
7.002740
20
135.794280
11
44.413479
21
157.393513
0
LINE
8
0
10
7.002740
20
135.794280
11
7.002740
21
135.794280
0
LINE
8
0
10
44.413479
20
157.393513
11
7.002740
21
135.794280
0
LINE
8
0
10
44.413479
20
157.393513
11
44.413479
21
157.393513
0
LINE
8
0
10
42.413496
20
160.857698
11
42.413496
21
160.857698
0
LINE
8
0
10
42.413496
20
160.857434
11
42.413496
21
160.857698
0
LINE
8
0
10
44.413373
20
160.857579
11
43.413365
21
161.125513
0
LINE
8
0
10
43.413365
20
161.125513
11
42.413367
21
160.857547
0
LINE
8
0
10
45.413402
20
159.125539
11
45.145437
21
160.125539
0
LINE
8
0
10
45.145437
20
160.125539
11
44.413373
21
160.857579
0
LINE
8
0
10
44.413429
20
157.393471
11
45.145470
21
158.125535
0
LINE
8
0
10
45.145470
20
158.125535
11
45.413402
21
159.125539
0
LINE
8
0
10
44.413479
20
157.393513
11
44.413479
21
157.393513
0
LINE
8
0
10
45.416423
20
159.126066
11
45.147261
21
158.125222
0
LINE
8
0
10
45.147261
20
158.125222
11
44.413384
21
157.393452
0
LINE
8
0
10
44.415501
20
160.859870
11
45.148549
21
160.127231
0
LINE
8
0
10
45.148549
20
160.127231
11
45.416484
21
159.126066
0
LINE
8
0
10
42.413491
20
160.857569
11
43.414187
21
161.127259
0
LINE
8
0
10
43.414187
20
161.127259
11
44.415501
21
160.859950
0
LINE
8
0
10
42.413496
20
160.857569
11
5.672655
21
139.645156
0
LINE
8
0
10
42.413496
20
160.857569
11
42.413496
21
160.857569
0
LINE
8
0
10
5.672655
20
139.645156
11
42.413496
21
160.857569
0
LINE
8
0
10
5.672655
20
139.645156
11
5.672655
21
139.645156
0
LINE
8
0
10
3.985727
20
145.413065
11
3.985647
21
145.413065
0
LINE
8
0
10
5.672660
20
139.645145
11
3.985716
21
145.413039
0
LINE
8
0
10
5.672629
20
139.645156
11
5.672655
21
139.645156
0
LINE
8
0
10
3.985646
20
145.413052
11
5.672634
21
139.645145
0
LINE
8
0
10
3.985647
20
145.413065
11
22.350380
21
156.015964
0
LINE
8
0
10
3.985647
20
145.413065
11
3.985647
21
145.413065
0
LINE
8
0
10
22.350380
20
156.015964
11
3.985647
21
145.413065
0
LINE
8
0
10
22.350380
20
156.015964
11
22.350380
21
156.015964
0
LINE
8
0
10
20.350370
20
159.480149
11
20.350397
21
159.480149
0
LINE
8
0
10
20.350397
20
159.480149
11
20.350370
21
159.480149
0
LINE
8
0
10
23.075855
20
158.744177
11
22.552086
21
159.338575
0
LINE
8
0
10
22.552086
20
159.338575
11
21.865114
21
159.675044
0
LINE
8
0
10
21.865114
20
159.675044
11
21.102148
21
159.730041
0
LINE
8
0
10
21.102148
20
159.730041
11
20.350396
21
159.480020
0
LINE
8
0
10
22.350371
20
156.015943
11
22.942774
21
156.541966
0
LINE
8
0
10
22.942774
20
156.541966
11
23.276632
21
157.230210
0
LINE
8
0
10
23.276632
20
157.230210
11
23.328730
21
157.993380
0
LINE
8
0
10
23.328730
20
157.993380
11
23.075855
21
158.744177
0
LINE
8
0
10
22.350380
20
156.015964
11
22.350380
21
156.015964
0
LINE
8
0
10
23.078698
20
158.745815
11
23.331685
21
157.994164
0
LINE
8
0
10
23.331685
20
157.994164
11
23.279058
21
157.230264
0
LINE
8
0
10
23.279058
20
157.230264
11
22.944174
21
156.541667
0
LINE
8
0
10
22.944174
20
156.541667
11
22.350393
21
156.015925
0
LINE
8
0
10
20.350394
20
159.480041
11
21.102592
21
159.731395
0
LINE
8
0
10
21.102592
20
159.731395
11
21.866376
21
159.677111
0
LINE
8
0
10
21.866376
20
159.677111
11
22.554245
21
159.340735
0
LINE
8
0
10
22.554245
20
159.340735
11
23.078698
21
158.745815
0
LINE
8
0
10
20.350397
20
159.480149
11
3.010103
21
149.468593
0
LINE
8
0
10
20.350397
20
159.480149
11
20.350397
21
159.480149
0
LINE
8
0
10
3.010103
20
149.468593
11
20.350397
21
159.480149
0
LINE
8
0
10
3.010103
20
149.468593
11
3.010103
21
149.468593
0
LINE
8
0
10
2.993726
20
194.443205
11
2.993884
21
194.443205
0
LINE
8
0
10
3.010058
20
149.468614
11
1.942169
21
155.046787
0
LINE
8
0
10
1.942169
20
155.046787
11
1.178798
21
160.662176
0
LINE
8
0
10
1.178798
20
160.662176
11
0.719951
21
166.302412
0
LINE
8
0
10
0.719951
20
166.302412
11
0.565631
21
171.955123
0
LINE
8
0
10
0.565631
20
171.955123
11
0.715843
21
177.607938
0
LINE
8
0
10
0.715843
20
177.607938
11
1.170592
21
183.248488
0
LINE
8
0
10
1.170592
20
183.248488
11
1.929882
21
188.864401
0
LINE
8
0
10
1.929882
20
188.864401
11
2.993717
21
194.443306
0
LINE
8
0
10
3.009706
20
149.468723
11
3.010050
21
149.468723
0
LINE
8
0
10
2.993898
20
194.443316
11
1.929996
21
188.864426
0
LINE
8
0
10
1.929996
20
188.864426
11
1.170639
21
183.248525
0
LINE
8
0
10
1.170639
20
183.248525
11
0.715822
21
177.607987
0
LINE
8
0
10
0.715822
20
177.607987
11
0.565542
21
171.955183
0
LINE
8
0
10
0.565542
20
171.955183
11
0.719794
21
166.302487
0
LINE
8
0
10
0.719794
20
166.302487
11
1.178574
21
160.662270
0
LINE
8
0
10
1.178574
20
160.662270
11
1.941877
21
155.046904
0
LINE
8
0
10
1.941877
20
155.046904
11
3.009699
21
149.468763
0
LINE
8
0
10
2.993884
20
194.443335
11
20.277981
21
184.464323
0
LINE
8
0
10
2.993884
20
194.443335
11
2.993884
21
194.443335
0
LINE
8
0
10
20.277981
20
184.464323
11
2.993884
21
194.443335
0
LINE
8
0
10
20.277981
20
184.464323
11
20.277981
21
184.464323
0
LINE
8
0
10
22.277990
20
187.928508
11
22.277990
21
187.928508
0
LINE
8
0
10
23.283104
20
186.195383
11
23.013183
21
187.196823
0
LINE
8
0
10
23.013183
20
187.196823
11
22.277993
21
187.928413
0
LINE
8
0
10
22.281393
20
184.460386
11
23.015152
21
185.193416
0
LINE
8
0
10
23.015152
20
185.193416
11
23.283104
21
186.195383
0
LINE
8
0
10
20.277990
20
184.464338
11
21.279161
21
184.193429
0
LINE
8
0
10
21.279161
20
184.193429
11
22.281393
21
184.460396
0
LINE
8
0
10
20.278007
20
184.464312
11
20.277981
21
184.464312
0
LINE
8
0
10
22.278433
20
184.463783
11
21.278149
21
184.195958
0
LINE
8
0
10
21.278149
20
184.195958
11
20.277996
21
184.464312
0
LINE
8
0
10
23.278645
20
186.196256
11
23.010699
21
185.196002
0
LINE
8
0
10
23.010699
20
185.196002
11
22.278433
21
184.463823
0
LINE
8
0
10
22.277984
20
187.928431
11
23.010438
21
187.196440
0
LINE
8
0
10
23.010438
20
187.196440
11
23.278641
21
186.196256
0
LINE
8
0
10
22.277990
20
187.928497
11
3.966756
21
198.500440
0
LINE
8
0
10
22.277990
20
187.928497
11
22.277990
21
187.928497
0
LINE
8
0
10
3.966756
20
198.500440
11
22.277990
21
187.928497
0
LINE
8
0
10
3.966756
20
198.500440
11
3.966756
21
198.500440
0
LINE
8
0
10
5.638524
20
204.235012
11
5.638497
21
204.235012
0
LINE
8
0
10
3.966746
20
198.500427
11
5.638514
21
204.234983
0
LINE
8
0
10
3.966703
20
198.500440
11
3.966756
21
198.500440
0
LINE
8
0
10
5.638499
20
204.234959
11
3.966716
21
198.500390
0
LINE
8
0
10
5.638497
20
204.235012
11
42.493136
21
182.956983
0
LINE
8
0
10
5.638497
20
204.235012
11
5.638497
21
204.235012
0
LINE
8
0
10
42.493136
20
182.956983
11
5.638497
21
204.235012
0
LINE
8
0
10
42.493136
20
182.956983
11
42.493136
21
182.956983
0
LINE
8
0
10
44.492854
20
186.421168
11
44.493119
21
186.421168
0
LINE
8
0
10
45.220505
20
183.691695
11
45.473451
21
184.443109
0
LINE
8
0
10
45.473451
20
184.443109
11
45.420965
21
185.206800
0
LINE
8
0
10
45.420965
20
185.206800
11
45.086363
21
185.895292
0
LINE
8
0
10
45.086363
20
185.895292
11
44.492965
21
186.421104
0
LINE
8
0
10
42.493017
20
182.956996
11
43.245089
21
182.706022
0
LINE
8
0
10
43.245089
20
182.706022
11
44.008640
21
182.760513
0
LINE
8
0
10
44.008640
20
182.760513
11
44.696251
21
183.096920
0
LINE
8
0
10
44.696251
20
183.096920
11
45.220505
21
183.691695
0
LINE
8
0
10
42.492871
20
182.956983
11
42.493136
21
182.956983
0
LINE
8
0
10
45.225032
20
183.689028
11
44.699665
21
183.093426
0
LINE
8
0
10
44.699665
20
183.093426
11
44.010605
21
182.757189
0
LINE
8
0
10
44.010605
20
182.757189
11
43.245742
21
182.703867
0
LINE
8
0
10
43.245742
20
182.703867
11
42.492966
21
182.957009
0
LINE
8
0
10
44.493013
20
186.421091
11
45.088615
21
185.895725
0
LINE
8
0
10
45.088615
20
185.895725
11
45.424851
21
185.206666
0
LINE
8
0
10
45.424851
20
185.206666
11
45.478173
21
184.441803
0
LINE
8
0
10
45.478173
20
184.441803
11
45.225032
21
183.689028
0
LINE
8
0
10
44.493119
20
186.421168
11
6.964799
21
208.088134
0
LINE
8
0
10
44.493119
20
186.421168
11
44.493119
21
186.421168
0
LINE
8
0
10
6.964799
20
208.088134
11
44.493119
21
186.421168
0
LINE
8
0
10
6.964799
20
208.088134
11
6.964799
21
208.088134
0
LINE
8
0
10
9.097206
20
213.451496
11
9.097179
21
213.451496
0
LINE
8
0
10
6.964796
20
208.088018
11
9.097210
21
213.451570
0
LINE
8
0
10
6.964825
20
208.087870
11
6.964799
21
208.088134
0
LINE
8
0
10
9.097175
20
213.451547
11
6.964813
21
208.087978
0
LINE
8
0
10
9.097179
20
213.451496
11
64.690856
21
181.354668
0
LINE
8
0
10
9.097179
20
213.451507
11
9.097179
21
213.451507
0
LINE
8
0
10
64.690856
20
181.354679
11
9.097179
21
213.451507
0
LINE
8
0
10
64.690856
20
181.354679
11
64.690856
21
181.354679
0
LINE
8
0
10
66.690839
20
184.818599
11
66.690839
21
184.818599
0
LINE
8
0
10
67.422800
20
182.086658
11
67.675929
21
182.839440
0
LINE
8
0
10
67.675929
20
182.839440
11
67.622595
21
183.604303
0
LINE
8
0
10
67.622595
20
183.604303
11
67.286347
21
184.293359
0
LINE
8
0
10
67.286347
20
184.293359
11
66.690735
21
184.818718
0
LINE
8
0
10
64.690739
20
181.354597
11
65.443521
21
181.101465
0
LINE
8
0
10
65.443521
20
181.101465
11
66.208384
21
181.154799
0
LINE
8
0
10
66.208384
20
181.154799
11
66.897441
21
181.491047
0
LINE
8
0
10
66.897441
20
181.491047
11
67.422800
21
182.086658
0
LINE
8
0
10
64.690856
20
181.354679
11
64.690856
21
181.354679
0
LINE
8
0
10
67.421921
20
182.087145
11
66.896772
21
181.491696
0
LINE
8
0
10
66.896772
20
181.491696
11
66.207993
21
181.155422
0
LINE
8
0
10
66.207993
20
181.155422
11
65.443382
21
181.101871
0
LINE
8
0
10
65.443382
20
181.101871
11
64.690739
21
181.354591
0
LINE
8
0
10
66.690738
20
184.818694
11
67.285923
21
184.293247
0
LINE
8
0
10
67.285923
20
184.293247
11
67.621852
21
183.604299
0
LINE
8
0
10
67.621852
20
183.604299
11
67.675020
21
182.839661
0
LINE
8
0
10
67.675020
20
182.839661
11
67.421921
21
182.087145
0
LINE
8
0
10
66.690839
20
184.818599
11
10.754659
21
217.113336
0
LINE
8
0
10
66.690839
20
184.818599
11
66.690839
21
184.818599
0
LINE
8
0
10
10.754659
20
217.113336
11
66.690839
21
184.818599
0
LINE
8
0
10
10.754659
20
217.113336
11
10.754659
21
217.113336
0
LINE
8
0
10
13.566198
20
222.600258
11
13.566224
21
222.600258
0
LINE
8
0
10
10.754647
20
217.113412
11
13.566204
21
222.600171
0
LINE
8
0
10
10.754607
20
217.113336
11
10.754659
21
217.113336
0
LINE
8
0
10
13.566226
20
222.600141
11
10.754608
21
217.113378
0
LINE
8
0
10
13.566224
20
222.600258
11
87.146544
21
180.118547
0
LINE
8
0
10
13.566224
20
222.600258
11
13.566224
21
222.600258
0
LINE
8
0
10
87.146544
20
180.118547
11
13.566224
21
222.600258
0
LINE
8
0
10
87.146544
20
180.118547
11
87.146544
21
180.118547
0
LINE
8
0
10
89.146527
20
183.582467
11
89.146527
21
183.582467
0
LINE
8
0
10
90.155774
20
181.848737
11
89.884270
21
182.851307
0
LINE
8
0
10
89.884270
20
182.851307
11
89.146609
21
183.582520
0
LINE
8
0
10
89.152721
20
180.111406
11
89.887819
21
180.845217
0
LINE
8
0
10
89.887819
20
180.845217
11
90.155760
21
181.848737
0
LINE
8
0
10
87.146642
20
180.118460
11
88.148733
21
179.845221
0
LINE
8
0
10
88.148733
20
179.845221
11
89.152721
21
180.111395
0
LINE
8
0
10
87.146544
20
180.118539
11
87.146544
21
180.118539
0
LINE
8
0
10
89.147038
20
180.118010
11
88.146757
21
179.850193
0
LINE
8
0
10
88.146757
20
179.850193
11
87.146610
21
180.118539
0
LINE
8
0
10
90.147270
20
181.850446
11
89.879309
21
180.850203
0
LINE
8
0
10
89.879309
20
180.850203
11
89.147038
21
180.118036
0
LINE
8
0
10
89.146773
20
183.582634
11
89.879207
21
182.850630
0
LINE
8
0
10
89.879207
20
182.850630
11
90.147392
21
181.850446
0
LINE
8
0
10
89.146527
20
183.582460
11
15.560519
21
226.067610
0
LINE
8
0
10
89.146527
20
183.582460
11
89.146527
21
183.582460
0
LINE
8
0
10
15.560519
20
226.067618
11
89.146527
21
183.582467
0
LINE
8
0
10
15.560519
20
226.067618
11
15.560519
21
226.067618
0
LINE
8
0
10
18.942101
20
231.333878
11
18.942127
21
231.333878
0
LINE
8
0
10
15.560530
20
226.067525
11
18.942098
21
231.333860
0
LINE
8
0
10
15.560492
20
226.067618
11
15.560519
21
226.067618
0
LINE
8
0
10
18.942125
20
231.333878
11
15.560502
21
226.067565
0
LINE
8
0
10
18.942127
20
231.333878
11
75.066743
21
198.930134
0
LINE
8
0
10
18.942127
20
231.333878
11
18.942127
21
231.333878
0
LINE
8
0
10
75.066743
20
198.930134
11
18.942127
21
231.333878
0
LINE
8
0
10
75.066743
20
198.930134
11
75.066743
21
198.930134
0
LINE
8
0
10
77.066726
20
202.394319
11
77.066990
21
202.394319
0
LINE
8
0
10
77.789468
20
199.667719
11
78.042231
21
200.417660
0
LINE
8
0
10
78.042231
20
200.417660
11
77.990666
21
201.180096
0
LINE
8
0
10
77.990666
20
201.180096
11
77.657841
21
201.867988
0
LINE
8
0
10
77.657841
20
201.867988
11
77.066823
21
202.394295
0
LINE
8
0
10
75.066870
20
198.930242
11
75.818174
21
198.681565
0
LINE
8
0
10
75.818174
20
198.681565
11
76.580318
21
198.737280
0
LINE
8
0
10
76.580318
20
198.737280
11
77.266387
21
199.073846
0
LINE
8
0
10
77.266387
20
199.073846
11
77.789468
21
199.667719
0
LINE
8
0
10
75.066743
20
198.930134
11
75.066743
21
198.930134
0
LINE
8
0
10
77.066853
20
198.930192
11
76.066838
21
198.662243
0
LINE
8
0
10
76.066838
20
198.662243
11
75.066825
21
198.930200
0
LINE
8
0
10
78.066873
20
200.662261
11
77.798916
21
199.662248
0
LINE
8
0
10
77.798916
20
199.662248
11
77.066853
21
198.930192
0
LINE
8
0
10
77.066866
20
202.394340
11
77.798924
21
201.662275
0
LINE
8
0
10
77.798924
20
201.662275
11
78.066873
21
200.662261
0
LINE
8
0
10
77.066990
20
202.394319
11
21.276252
21
234.605182
0
LINE
8
0
10
77.066990
20
202.394319
11
77.066990
21
202.394319
0
LINE
8
0
10
21.276252
20
234.605182
11
77.066990
21
202.394319
0
LINE
8
0
10
21.276252
20
234.605182
11
21.276252
21
234.605182
0
LINE
8
0
10
24.935303
20
239.251524
11
24.935303
21
239.251524
0
LINE
8
0
10
21.276249
20
234.605069
11
24.935290
21
239.251649
0
LINE
8
0
10
21.276305
20
234.605182
11
21.276252
21
234.605182
0
LINE
8
0
10
24.935307
20
239.251612
11
21.276295
21
234.605055
0
LINE
8
0
10
24.935303
20
239.251524
11
62.346121
21
217.652556
0
LINE
8
0
10
24.935303
20
239.251524
11
24.935303
21
239.251524
0
LINE
8
0
10
62.346121
20
217.652556
11
24.935303
21
239.251524
0
LINE
8
0
10
62.346121
20
217.652556
11
62.346121
21
217.652556
0
LINE
8
0
10
64.346104
20
221.116741
11
64.346104
21
221.116741
0
LINE
8
0
10
65.078081
20
218.384583
11
65.331221
21
219.137367
0
LINE
8
0
10
65.331221
20
219.137367
11
65.277895
21
219.902238
0
LINE
8
0
10
65.277895
20
219.902238
11
64.941651
21
220.591303
0
LINE
8
0
10
64.941651
20
220.591303
11
64.346041
21
221.116672
0
LINE
8
0
10
62.345992
20
217.652543
11
63.098776
21
217.399402
0
LINE
8
0
10
63.098776
20
217.399402
11
63.863646
21
217.452729
0
LINE
8
0
10
63.863646
20
217.452729
11
64.552712
21
217.788972
0
LINE
8
0
10
64.552712
20
217.788972
11
65.078081
21
218.384583
0
LINE
8
0
10
62.346121
20
217.652556
11
62.346121
21
217.652556
0
LINE
8
0
10
64.352031
20
217.645624
11
63.348103
21
217.379414
0
LINE
8
0
10
63.348103
20
217.379414
11
62.346042
21
217.652582
0
LINE
8
0
10
65.355020
20
219.382892
11
65.087109
21
218.379424
0
LINE
8
0
10
65.087109
20
218.379424
11
64.352031
21
217.645637
0
LINE
8
0
10
64.345998
20
221.116646
11
65.083596
21
220.385422
0
LINE
8
0
10
65.083596
20
220.385422
11
65.355028
21
219.382892
0
LINE
8
0
10
64.346104
20
221.116741
11
27.605315
21
242.328889
0
LINE
8
0
10
64.346104
20
221.116741
11
64.346104
21
221.116741
0
LINE
8
0
10
27.605315
20
242.328889
11
64.346104
21
221.116741
0
LINE
8
0
10
27.605315
20
242.328889
11
27.605315
21
242.328889
0
LINE
8
0
10
31.756887
20
246.673871
11
31.756887
21
246.673871
0
LINE
8
0
10
27.605217
20
242.328934
11
31.756881
21
246.673840
0
LINE
8
0
10
27.605315
20
242.328889
11
27.605315
21
242.328889
0
LINE
8
0
10
31.756866
20
246.673887
11
27.605185
21
242.328945
0
LINE
8
0
10
31.756887
20
246.673871
11
50.121593
21
236.070972
0
LINE
8
0
10
31.756887
20
246.673871
11
31.756887
21
246.673871
0
LINE
8
0
10
50.121593
20
236.070972
11
31.756887
21
246.673871
0
LINE
8
0
10
50.121593
20
236.070972
11
50.121593
21
236.070972
0
LINE
8
0
10
52.121576
20
239.535157
11
52.121576
21
239.535157
0
LINE
8
0
10
52.848959
20
236.805714
11
53.101920
21
237.557070
0
LINE
8
0
10
53.101920
20
237.557070
11
53.049484
21
238.320721
0
LINE
8
0
10
53.049484
20
238.320721
11
52.714960
21
239.009203
0
LINE
8
0
10
52.714960
20
239.009203
11
52.121655
21
239.535049
0
LINE
8
0
10
50.121611
20
236.070996
11
50.873652
21
235.820077
0
LINE
8
0
10
50.873652
20
235.820077
11
51.637158
21
235.874588
0
LINE
8
0
10
51.637158
20
235.874588
11
52.324728
21
236.210982
0
LINE
8
0
10
52.324728
20
236.210982
11
52.848959
21
236.805714
0
LINE
8
0
10
50.121593
20
236.070972
11
50.121593
21
236.070972
0
LINE
8
0
10
52.853328
20
236.803264
11
52.328068
21
236.207715
0
LINE
8
0
10
52.328068
20
236.207715
11
51.639136
21
235.871446
0
LINE
8
0
10
51.639136
20
235.871446
11
50.874382
21
235.818009
0
LINE
8
0
10
50.874382
20
235.818009
11
50.121656
21
236.070954
0
LINE
8
0
10
52.121607
20
239.535094
11
52.717043
21
239.009705
0
LINE
8
0
10
52.717043
20
239.009705
11
53.053163
21
238.320700
0
LINE
8
0
10
53.053163
20
238.320700
11
53.106435
21
237.555934
0
LINE
8
0
10
53.106435
20
237.555934
11
52.853328
21
236.803264
0
LINE
8
0
10
52.121576
20
239.535157
11
34.781335
21
249.546449
0
LINE
8
0
10
52.121576
20
239.535157
11
52.121576
21
239.535157
0
LINE
8
0
10
34.781335
20
249.546449
11
52.121576
21
239.535157
0
LINE
8
0
10
34.781335
20
249.546449
11
34.781335
21
249.546449
0
LINE
8
0
10
73.722396
20
272.047910
11
73.722396
21
272.047910
0
LINE
8
0
10
34.781311
20
249.546518
11
39.078182
21
253.260386
0
LINE
8
0
10
39.078182
20
253.260386
11
43.559550
21
256.729146
0
LINE
8
0
10
43.559550
20
256.729146
11
48.214705
21
259.946608
0
LINE
8
0
10
48.214705
20
259.946608
11
53.032933
21
262.906583
0
LINE
8
0
10
53.032933
20
262.906583
11
58.003521
21
265.602880
0
LINE
8
0
10
58.003521
20
265.602880
11
63.115758
21
268.029310
0
LINE
8
0
10
63.115758
20
268.029310
11
68.358931
21
270.179682
0
LINE
8
0
10
68.358931
20
270.179682
11
73.722328
21
272.047807
0
LINE
8
0
10
34.781335
20
249.546449
11
34.781335
21
249.546449
0
LINE
8
0
10
73.722343
20
272.047817
11
68.358940
21
270.179696
0
LINE
8
0
10
68.358940
20
270.179696
11
63.115760
21
268.029327
0
LINE
8
0
10
63.115760
20
268.029327
11
58.003516
21
265.602899
0
LINE
8
0
10
58.003516
20
265.602899
11
53.032921
21
262.906603
0
LINE
8
0
10
53.032921
20
262.906603
11
48.214687
21
259.946628
0
LINE
8
0
10
48.214687
20
259.946628
11
43.559527
21
256.729166
0
LINE
8
0
10
43.559527
20
256.729166
11
39.078152
21
253.260405
0
LINE
8
0
10
39.078152
20
253.260405
11
34.781277
21
249.546536
0
LINE
8
0
10
110.565579
20
171.992938
11
110.565579
21
171.992938
0
LINE
8
0
10
109.101118
20
168.457403
11
109.725524
21
169.218934
0
LINE
8
0
10
109.725524
20
169.218934
11
110.184979
21
170.079518
0
LINE
8
0
10
110.184979
20
170.079518
11
110.468620
21
171.012927
0
LINE
8
0
10
110.468620
20
171.012927
11
110.565582
21
171.992933
0
LINE
8
0
10
105.565588
20
166.992939
11
106.545592
21
167.089900
0
LINE
8
0
10
106.545592
20
167.089900
11
107.479002
21
167.373541
0
LINE
8
0
10
107.479002
20
167.373541
11
108.339586
21
167.832997
0
LINE
8
0
10
108.339586
20
167.832997
11
109.101118
21
168.457403
0
LINE
8
0
10
102.030057
20
168.457403
11
102.791589
21
167.832997
0
LINE
8
0
10
102.791589
20
167.832997
11
103.652174
21
167.373541
0
LINE
8
0
10
103.652174
20
167.373541
11
104.585583
21
167.089900
0
LINE
8
0
10
104.585583
20
167.089900
11
105.565588
21
166.992939
0
LINE
8
0
10
100.565593
20
171.992933
11
100.662555
21
171.012927
0
LINE
8
0
10
100.662555
20
171.012927
11
100.946196
21
170.079518
0
LINE
8
0
10
100.946196
20
170.079518
11
101.405651
21
169.218934
0
LINE
8
0
10
101.405651
20
169.218934
11
102.030057
21
168.457403
0
LINE
8
0
10
102.030057
20
175.528463
11
101.405651
21
174.766933
0
LINE
8
0
10
101.405651
20
174.766933
11
100.946196
21
173.906349
0
LINE
8
0
10
100.946196
20
173.906349
11
100.662555
21
172.972939
0
LINE
8
0
10
100.662555
20
172.972939
11
100.565593
21
171.992933
0
LINE
8
0
10
105.565588
20
176.992927
11
104.585583
21
176.895966
0
LINE
8
0
10
104.585583
20
176.895966
11
103.652174
21
176.612326
0
LINE
8
0
10
103.652174
20
176.612326
11
102.791589
21
176.152870
0
LINE
8
0
10
102.791589
20
176.152870
11
102.030057
21
175.528463
0
LINE
8
0
10
109.101118
20
175.528463
11
108.339586
21
176.152870
0
LINE
8
0
10
108.339586
20
176.152870
11
107.479002
21
176.612326
0
LINE
8
0
10
107.479002
20
176.612326
11
106.545592
21
176.895966
0
LINE
8
0
10
106.545592
20
176.895966
11
105.565588
21
176.992927
0
LINE
8
0
10
110.565582
20
171.992933
11
110.468620
21
172.972939
0
LINE
8
0
10
110.468620
20
172.972939
11
110.184979
21
173.906349
0
LINE
8
0
10
110.184979
20
173.906349
11
109.725524
21
174.766933
0
LINE
8
0
10
109.725524
20
174.766933
11
109.101118
21
175.528463
 0 
ENDSEC
 0 
EOF