<?xml version="1.0" encoding="UTF-8" standalone="no"?>
<svg
   width="213.92569873081698mm"
   height="214.16281387996037mm"
   viewBox="0 0 213.92569873081698 214.16281387996037"
   version="1.1"
   id="svg3"
   sodipodi:docname="RondYoTraitVertical2210Large MASTER V2.svg"
   inkscape:version="1.3.2 (1:1.3.2+202311252150+091e20ef0f)"
   xmlns:inkscape="http://www.inkscape.org/namespaces/inkscape"
   xmlns:sodipodi="http://sodipodi.sourceforge.net/DTD/sodipodi-0.dtd"
   xmlns="http://www.w3.org/2000/svg"
   xmlns:svg="http://www.w3.org/2000/svg">
  <defs
     id="defs3" />
  <sodipodi:namedview
     id="namedview3"
     pagecolor="#ffffff"
     bordercolor="#666666"
     borderopacity="1.0"
     inkscape:showpageshadow="2"
     inkscape:pageopacity="0.0"
     inkscape:pagecheckerboard="0"
     inkscape:deskcolor="#d1d1d1"
     inkscape:document-units="mm"
     showgrid="false"
     inkscape:zoom="3.7211176"
     inkscape:cx="568.24327"
     inkscape:cy="711.21107"
     inkscape:window-width="1680"
     inkscape:window-height="992"
     inkscape:window-x="0"
     inkscape:window-y="0"
     inkscape:window-maximized="1"
     inkscape:current-layer="svg3" />
  <g
     id="Body"
     transform="translate(106.828388,107.081407) scale(1,-1)">
    <path
       id="circle3"
       style="fill:#cccccc;stroke:#191919;stroke-width:0.35;stroke-linecap:square"
       d="M 5,0 A 5,5 0 0 1 0,5 5,5 0 0 1 -5,0 5,5 0 0 1 0,-5 5,5 0 0 1 5,0 Z M -31.843285,100.05501 A 105,105 0 0 1 -70.7844,77.5537 l 3.4e-5,-1.8e-5 A 105,105 0 0 0 -31.8433,100.055 Z M -70.784366,77.553682 v 0 l 17.34032,-10.011438 v 0 z m 17.34032,-10.011438 A 2.0000069,2.0000069 0 0 0 -55.444,64.0781 l -4.6e-5,4.2e-5 A 2,2 0 0 1 -53.444,67.5422 Z m -2,-3.464102 v 0 l -18.364769,10.602905 v 0 z M -73.808815,74.681047 A 105,105 0 0 1 -77.9605,70.3361 l 3.2e-5,-1.1e-5 A 105,105 0 0 0 -73.8088,74.681 Z m -4.151653,-4.344958 v 0 L -41.21965,49.123768 v 0 z M -41.21965,49.123768 A 2,2 0 1 0 -43.2196,45.6597 l -5e-5,-3.4e-5 a 2.0000265,2.0000265 0 1 1 2.00005,3.464134 z m -2,-3.464102 v 0 l -37.410733,21.599097 v 0 z M -80.630383,67.258763 A 105,105 0 0 1 -84.2894,62.6122 l -4.6e-5,1.3e-5 A 105,105 0 0 0 -80.6304,67.2588 Z m -3.659063,-4.64655 v 0 l 55.790689,-32.210769 v 0 z M -28.498757,30.401444 A 2.0000291,2.0000291 0 0 0 -30.4988,26.9373 l 4.3e-5,4.2e-5 A 2,2 0 0 1 -28.4988,30.4014 Z m -2,-3.464102 v 0 L -86.623573,59.34102 v 0 z M -86.623573,59.34102 A 105,105 0 0 1 -90.0052,54.0747 l 2.8e-5,-3.9e-5 A 105,105 0 0 0 -86.6236,59.341 Z m -3.381599,-5.266359 v 0 l 73.586216,-42.485022 v 0 z M -16.418956,11.589639 A 2.00001,2.00001 0 1 0 -18.419,8.12554 l 4.4e-5,-2.6e-6 A 2,2 0 1 1 -16.419,11.5896 Z m -2,-3.4641016 v 0 L -91.999478,50.607272 v 0 z M -91.999478,50.607272 A 105,105 0 0 1 -94.8111,45.1205 l 3.9e-5,3.5e-5 A 105,105 0 0 0 -91.9995,50.6073 Z m -2.811583,-5.486737 v 0 l 55.936162,-32.294759 v 0 z M -38.874899,12.825776 A 2.0000024,2.0000024 0 0 0 -40.8749,9.36167 l 10e-7,4.9e-6 A 2.0000099,2.0000099 0 0 1 -38.8749,12.8258 Z m -2,-3.4641011 v 0 L -96.468535,41.458676 v 0 z M -96.468535,41.458676 A 105,105 0 0 1 -98.6009,36.0951 l -1.7e-5,4.1e-5 A 105,105 0 0 0 -96.4685,41.4587 Z m -2.132382,-5.363535 v 0 l 37.528266,-21.666954 v 0 z M -61.072651,14.428187 A 2.0000059,2.0000059 0 0 0 -63.0727,10.9641 l 4.9e-5,-1.4e-5 A 2,2 0 0 1 -61.0727,14.4282 Z m -2,-3.464101 v 0 l -36.854564,21.277992 v 0 z M -99.927215,32.242078 A 105,105 0 0 1 -101.599,26.5075 l 3e-5,3.6e-5 a 105,105 0 0 0 1.67177,5.734564 z m -1.671755,-5.734542 v 0 l 18.311264,-10.572013 v 0 z M -83.287706,15.935523 A 2.0000079,2.0000079 0 1 0 -85.2877,12.4714 l -6e-6,2.2e-5 A 2,2 0 1 1 -83.2877,15.9355 Z m -2,-3.464101 v 0 l -17.284114,9.97899 v 0 z m -17.284114,9.97899 a 105,105 0 0 1 0.0158,-44.974612 l 3.6e-4,-1.8e-5 A 105,105 0 0 0 -102.572,22.4504 Z m 0.0162,-44.97463 v 0 l 17.340318,10.011439 v 0 z m 17.340318,10.011439 A 2.0000136,2.0000136 0 0 0 -83.2153,-15.9769 l -2.2e-5,1.9e-5 A 2,2 0 0 1 -85.2153,-12.5128 l -2.2e-5,2.1e-5 z m 2,-3.464102 v 0 l -18.364768,-10.602905 v 0 z m -18.364768,-10.602905 a 105,105 0 0 1 1.68699,-5.767914 l 2.6e-5,-10e-7 A 105,105 0 0 0 -101.58,-26.5798 Z m 1.687016,-5.767915 v 0 l 36.740818,21.212321 v 0 z m 36.740818,21.212321 a 2,2 0 1 0 1.999956,-3.46412 l 4.4e-5,1.8e-5 A 2.0000075,2.0000075 0 1 1 -63.1523,-11.1354 l 4.4e-5,2e-5 z m 2,-3.464102 v 0 l -37.410733,-21.599097 v 0 z M -98.562989,-36.198579 A 105,105 0 0 1 -96.3685,-41.6907 l 9e-6,5e-6 A 105,105 0 0 0 -98.563,-36.1986 Z m 2.194498,-5.492116 v 0 l 55.79069,32.2107696 v 0 z m 55.79069,32.2107696 A 2,2 0 0 0 -38.5778,-12.944 l -10e-7,-2.7e-5 A 2,2 0 0 1 -40.5778,-9.47993 Z m 2,-3.4641016 v 0 l -56.124816,-32.403678 v 0 z M -94.702617,-45.347705 A 105,105 0 0 1 -91.8326,-50.9094 l -1.6e-5,-3.5e-5 A 105,105 0 0 0 -94.7026,-45.3477 Z m 2.870001,-5.56173 v 0 L -18.2464,-8.4244131 v 0 z M -18.2464,-8.4244131 a 2,2 0 1 0 2,-3.4640869 v -1.5e-5 a 2.0000015,2.0000015 0 1 1 -2,3.464105 z m 2,-3.4641019 v 0 l -73.580522,-42.481734 v 0 z M -89.826922,-54.370249 A 105,105 0 0 1 -86.4811,-59.5485 l 4e-5,-2e-5 a 105,105 0 0 0 -3.34584,5.17832 z m 3.345862,-5.178271 v 0 l 55.936162,32.294758 v 0 z m 55.936162,32.294758 A 2.0000153,2.0000153 0 0 0 -28.5449,-30.7179 l 2e-6,3.7e-5 A 2,2 0 0 1 -30.5449,-27.2538 Z m 2,-3.464101 v 0 l -55.593636,-32.097001 v 0 z M -84.138534,-62.814864 A 105,105 0 0 1 -80.5598,-67.3433 l 3.2e-5,-2.8e-5 A 105,105 0 0 0 -84.1385,-62.8149 Z m 3.578766,-4.528464 v 0 l 37.528266,21.666954 v 0 z m 37.528266,21.666954 A 2.0000112,2.0000112 0 0 0 -41.0315,-49.1405 l -2e-6,2.5e-5 A 2,2 0 0 1 -43.0315,-45.6764 Z m 2,-3.464101 v 0 l -36.854564,-21.277993 v 0 z M -77.886066,-70.418468 A 105,105 0 0 1 -73.7557,-74.7335 l 1.6e-5,-2e-5 a 105,105 0 0 0 -4.130416,4.31502 z m 4.130382,-4.315052 v 0 l 18.311263,10.572012 v 0 z m 18.311263,10.572012 A 2.0000013,2.0000013 0 1 0 -53.4444,-67.6256 l -2.1e-5,-9e-6 A 2,2 0 1 1 -55.4444,-64.1615 Z m 2,-3.464101 v 0 l -17.284118,-9.97899 v 0 z m -17.284118,-9.97899 A 105,105 0 0 1 -31.7713,-100.078 l 2.4e-5,1e-4 A 105,105 0 0 0 -70.7285,-77.6046 Z m 38.957263,-22.473301 v 0 20.022877 0 z m 0,20.022877 a 2,2 0 0 0 3.999976,2.3e-5 l 2.4e-5,-2.3e-5 a 2.000012,2.000012 0 0 1 -4.000024,2.3e-5 z m 4,0 v 0 -21.205807 0 z m 0,-21.205807 a 105,105 0 0 1 5.838676,-1.42317 l -6e-6,2.1e-4 a 105,105 0 0 0 -5.838694,1.42279 z m 5.83867,-1.42296 v 0 42.424642 0 z m 0,42.424642 a 2.000003,2.000003 0 1 0 4.000006,4.8e-5 l -6e-6,-4.8e-5 a 2,2 0 1 1 -3.999994,4.8e-5 z m 4,0 v 0 -43.198192 0 z m 0,-43.198192 A 105,105 0 0 1 -12.079,-104.303 l -4.4e-5,9e-5 a 105,105 0 0 0 -5.853556,0.84591 z m 5.853562,-0.84557 v 0 64.421541 0 z m 0,64.421541 a 2.0000022,2.0000022 0 0 0 4.000004,-3.1e-5 l -4.4e-6,3.1e-5 A 2,2 0 0 1 -12.079,-39.8814 Z m 3.9999996,0 v 0 -64.807351 0 z m 0,-64.807351 A 105,105 0 0 1 -1.82744,-104.984 l -4.1e-6,-1e-4 a 105,105 0 0 0 -6.2515959,0.2951 z m 6.2516003,-0.29538 v 0 84.970048 0 z m 0,84.970048 A 2.0000021,2.0000021 0 1 0 2.17256,-20.0141 l -4.1e-6,4.8e-5 A 2,2 0 1 1 -1.82744,-20.0141 Z m 4,0 v 0 -84.963468 0 z m 0,-84.963468 A 105,105 0 0 1 8.33,-104.669 l 1.2e-6,-6e-5 A 105,105 0 0 0 2.17256,-104.978 Z m 6.1574453,0.30846 v 0 64.589522 0 z m 0,64.589522 A 2,2 0 0 0 12.33,-40.0795 l 10e-7,-3.8e-5 A 2.0000006,2.0000006 0 0 1 8.33,-40.0795 Z m 3.9999998,0 v 0 -64.194002 0 z m 0,-64.194002 a 105,105 0 0 1 5.711099,0.83554 l 4.9e-5,-4.7e-4 A 105,105 0 0 0 12.33,-104.274 Z m 5.711148,0.83507 v 0 43.333909 0 z m 0,43.333909 a 2,2 0 0 0 3.999951,-3.9e-5 l 4.9e-5,3.9e-5 A 2.0000245,2.0000245 0 0 1 18.0411,-60.1046 Z m 4,0 v 0 -42.555989 0 z m 0,-42.555989 a 105,105 0 0 1 5.802151,1.41955 l -1.5e-5,-6e-5 A 105,105 0 0 0 22.0411,-102.661 Z m 5.802136,1.41949 v 0 21.144029 0 z m 0,21.144029 a 2.0000075,2.0000075 0 1 0 4.000015,3.1e-5 l -1.5e-5,-3.1e-5 A 2,2 0 1 1 27.8433,-80.097 Z m 4,0 v 0 -19.957979 0 z m 0,-19.957979 A 105,105 0 0 1 70.7844,-77.5537 l -3.4e-5,1.8e-5 A 105,105 0 0 0 31.8433,-100.055 Z m 38.941081,22.501328 v 0 l -17.34032,10.011438 v 0 z m -17.34032,10.011438 A 2.0000069,2.0000069 0 0 0 55.444,-64.0781 l 4.6e-5,-4.2e-5 A 2,2 0 0 1 53.444,-67.5422 Z m 2,3.464102 v 0 l 18.364769,-10.602905 v 0 z M 73.808815,-74.681047 A 105,105 0 0 1 77.9605,-70.3361 l -3.2e-5,1.1e-5 A 105,105 0 0 0 73.8088,-74.681 Z m 4.151653,4.344958 v 0 L 41.21965,-49.123768 v 0 z M 41.21965,-49.123768 a 2,2 0 1 0 1.99995,3.464068 l 5e-5,3.4e-5 A 2.0000265,2.0000265 0 1 1 41.2196,-49.1238 Z m 2,3.464102 v 0 l 37.410733,-21.599097 v 0 z M 80.630383,-67.258763 A 105,105 0 0 1 84.2894,-62.6122 l 4.6e-5,-1.3e-5 A 105,105 0 0 0 80.6304,-67.2588 Z m 3.659063,4.64655 v 0 l -55.790689,32.210769 v 0 z M 28.498757,-30.401444 A 2.0000291,2.0000291 0 0 0 30.4988,-26.9373 l -4.3e-5,-4.2e-5 A 2,2 0 0 1 28.4988,-30.4014 Z m 2,3.464102 v 0 L 86.623573,-59.34102 v 0 z M 86.623573,-59.34102 a 105,105 0 0 1 3.381627,5.26632 l -2.8e-5,3.9e-5 A 105,105 0 0 0 86.6236,-59.341 Z m 3.381599,5.266359 v 0 l -73.586216,42.485022 v 0 z M 16.418956,-11.589639 A 2.00001,2.00001 0 1 0 18.419,-8.12554 l -4.4e-5,2.6e-6 A 2,2 0 1 1 16.419,-11.5896 Z m 2,3.4641016 v 0 L 91.999478,-50.607272 v 0 z M 91.999478,-50.607272 A 105,105 0 0 1 94.8111,-45.1205 l -3.9e-5,-3.5e-5 A 105,105 0 0 0 91.9995,-50.6073 Z m 2.811583,5.486737 v 0 l -55.936162,32.294759 v 0 z M 38.874899,-12.825776 A 2.0000024,2.0000024 0 0 0 40.8749,-9.36167 l -10e-7,-4.9e-6 A 2.0000099,2.0000099 0 0 1 38.8749,-12.8258 Z m 2,3.4641011 v 0 L 96.468535,-41.458676 v 0 z M 96.468535,-41.458676 A 105,105 0 0 1 98.6009,-36.0951 l 1.7e-5,-4.1e-5 A 105,105 0 0 0 96.4685,-41.4587 Z m 2.132382,5.363535 v 0 l -37.528266,21.666954 v 0 z M 61.072651,-14.428187 A 2.0000059,2.0000059 0 0 0 63.0727,-10.9641 l -4.9e-5,1.4e-5 A 2,2 0 0 1 61.0727,-14.4282 Z m 2,3.464101 v 0 l 36.854564,-21.277992 v 0 z M 99.927215,-32.242078 A 105,105 0 0 1 101.599,-26.5075 l -3e-5,-3.6e-5 A 105,105 0 0 0 99.9272,-32.2421 Z m 1.671755,5.734542 v 0 l -18.311264,10.572013 v 0 z M 83.287706,-15.935523 A 2.0000079,2.0000079 0 1 0 85.2877,-12.4714 l 6e-6,-2.2e-5 A 2,2 0 1 1 83.2877,-15.9355 Z m 2,3.464101 v 0 l 17.284114,-9.97899 v 0 z m -0.07238,24.984201 A 2.0000149,2.0000149 0 0 0 83.2153,15.9769 l 2.2e-5,-1.9e-5 A 2,2 0 0 1 85.2153,12.5128 l 2.2e-5,-2.1e-5 z m -2,3.464102 v 0 l 18.364764,10.602905 v 0 z m 18.364764,10.602905 v 0 A 105,105 0 0 1 99.8931,32.3477 l -2.6e-5,10e-7 A 105,105 0 0 0 101.58,26.5798 Z m -1.687012,5.767915 v 0 L 63.152256,11.13538 v 0 L 99.893074,32.347701 Z M 63.152256,11.13538 A 2,2 0 1 0 61.1523,14.5995 l -4.4e-5,-1.8e-5 A 2.0000025,2.0000025 0 1 1 63.1523,11.1354 Z m -2,3.464102 v 0 l 37.410733,21.599097 v 0 z m 37.410733,21.599097 v 0 A 105,105 0 0 1 96.3685,41.6907 l -9e-6,-5e-6 A 105,105 0 0 0 98.563,36.1986 Z m -2.194498,5.492116 v 0 L 40.577801,9.4799254 v 0 z M 40.577801,9.4799254 A 2,2 0 0 0 38.5778,12.944 l 10e-7,2.7e-5 A 2,2 0 0 1 40.5778,9.47993 Z m -2,3.4641016 v 0 l 56.124816,32.403678 v 0 z m 56.124816,32.403678 v 0 A 105,105 0 0 1 91.8326,50.9094 l 1.6e-5,3.5e-5 A 105,105 0 0 0 94.7026,45.3477 Z m -2.870001,5.56173 v 0 L 18.2464,8.4244131 v 0 z M 18.2464,8.4244131 a 2,2 0 1 0 -2,3.4640869 v 1.5e-5 a 2.0000015,2.0000015 0 1 1 2,-3.464105 z m -2,3.4641019 v 0 l 73.580522,42.481734 v 0 z m 73.580522,42.481734 v 0 A 105,105 0 0 1 86.4811,59.5485 l -4e-5,2e-5 A 105,105 0 0 0 89.8269,54.3702 Z M 86.48106,59.54852 v 0 L 30.544898,27.253762 v 0 z M 30.544898,27.253762 A 2.0000153,2.0000153 0 0 0 28.5449,30.7179 l -2e-6,-3.7e-5 A 2,2 0 0 1 30.5449,27.2538 Z m -2,3.464101 v 0 l 55.593636,32.097001 v 0 z m 55.593636,32.097001 v 0 A 105,105 0 0 1 80.5598,67.3433 l -3.2e-5,2.8e-5 A 105,105 0 0 0 84.1385,62.8149 Z m -3.578766,4.528464 v 0 L 43.031502,45.676374 v 0 z M 43.031502,45.676374 A 2.0000112,2.0000112 0 0 0 41.0315,49.1405 l 2e-6,-2.5e-5 A 2,2 0 0 1 43.0315,45.6764 Z m -2,3.464101 v 0 l 36.854564,21.277993 v 0 z m 36.854564,21.277993 v 0 A 105,105 0 0 1 73.7557,74.7335 l -1.6e-5,2e-5 A 105,105 0 0 0 77.8861,70.4185 Z m -4.130382,4.315052 v 0 L 55.444421,64.161508 v 0 z M 55.444421,64.161508 A 2.0000013,2.0000013 0 1 0 53.4444,67.6256 l 2.1e-5,9e-6 A 2,2 0 1 1 55.4444,64.1615 Z m -2,3.464101 v 0 l 17.284118,9.97899 v 0 z m 17.284118,9.97899 v 0 A 105,105 0 0 1 31.7713,100.078 l -2.4e-5,-1e-4 A 105,105 0 0 0 70.7285,77.6046 Z M 31.771276,100.0779 v 0 -20.022877 0 z m 0,-20.022877 A 2,2 0 0 0 27.7713,80.055 l -2.4e-5,2.3e-5 A 2.000012,2.000012 0 0 1 31.7713,80.055 Z m -4,0 v 0 21.205807 0 z m 0,21.205807 v 0 A 105,105 0 0 1 21.9326,102.684 l 6e-6,-2.1e-4 A 105,105 0 0 0 27.7713,101.261 Z m -5.83867,1.42296 v 0 -42.424642 0 z m 0,-42.424642 A 2.000003,2.000003 0 1 0 17.9326,60.2591 l 6e-6,4.8e-5 A 2,2 0 1 1 21.9326,60.2591 Z m -4,0 v 0 43.198192 0 z m 0,43.198192 v 0 A 105,105 0 0 1 12.079,104.303 l 4.4e-5,-9e-5 A 105,105 0 0 0 17.9326,103.457 Z m -5.853562,0.84557 v 0 -64.421541 0 z m 0,-64.421541 A 2.0000022,2.0000022 0 0 0 8.07904,39.8814 l 4.4e-6,-3.1e-5 A 2,2 0 0 1 12.079,39.8814 Z m -3.9999996,0 v 0 64.807351 0 z m 0,64.807351 v 0 A 105,105 0 0 1 1.82744,104.984 l 4.1e-6,1e-4 A 105,105 0 0 0 8.07904,104.689 Z m -6.2516003,0.29538 v 0 -84.970048 0 z m 0,-84.970048 A 2.0000021,2.0000021 0 1 0 -2.17256,20.0141 l 4.1e-6,-4.8e-5 A 2,2 0 1 1 1.82744,20.0141 Z m -4,0 v 0 84.963468 0 z m 0,84.963468 A 105,105 0 0 1 -8.33,104.669 l -1.2e-6,6e-5 A 105,105 0 0 0 -2.17256,104.978 Z m -6.1574453,-0.30846 v 0 -64.589522 0 z m 0,-64.589522 A 2,2 0 0 0 -12.33,40.0795 l -10e-7,3.8e-5 A 2.0000006,2.0000006 0 0 1 -8.33,40.0795 Z m -3.9999998,0 v 0 64.194002 0 z m 0,64.194002 A 105,105 0 0 1 -18.0411,103.438 l -4.9e-5,4.7e-4 A 105,105 0 0 0 -12.33,104.274 Z m -5.711148,-0.83507 v 0 -43.333909 0 z m 0,-43.333909 a 2,2 0 0 0 -3.999951,3.9e-5 l -4.9e-5,-3.9e-5 a 2.0000245,2.0000245 0 0 1 4.000049,3.9e-5 z m -4,0 v 0 42.555989 0 z m 0,42.555989 A 105,105 0 0 1 -27.8433,101.241 l 1.5e-5,6e-5 a 105,105 0 0 0 5.802185,1.41994 z m -5.802136,-1.41949 v 0 -21.144029 0 z m 0,-21.144029 A 2.0000075,2.0000075 0 1 0 -31.8433,80.097 l 1.5e-5,3.1e-5 A 2,2 0 1 1 -27.8433,80.097 Z m -4,0 v 0 19.957979 0 z M 102.57182,-22.450412 A 105,105 0 0 1 105,0 v 0 a 105,105 0 0 0 -2.428,-22.4504 z M 5,0 A 5,5 0 0 1 0,5 5,5 0 0 1 -5,0 5,5 0 0 1 0,-5 5,5 0 0 1 5,0 Z m 97.55564,22.524218 v 0 L 85.215322,12.512779 v 0 z M 5,0 A 5,5 0 0 1 0,5 5,5 0 0 1 -5,0 5,5 0 0 1 0,-5 5,5 0 0 1 5,0 Z m 97.55564,22.524218 v 0 A 105,105 0 0 0 105,0 v 0 a 105,105 0 0 1 -2.444,22.5242 z" />
    <title
       id="title3">b'Body'</title>
  </g>
</svg>
