<?xml version="1.0" encoding="UTF-8" standalone="no"?>
<svg
   width="306.0mm"
   height="305.9583304394133mm"
   viewBox="0 0 306.0 305.9583304394133"
   version="1.1"
   id="svg3"
   sodipodi:docname="Support de cables V3.svg"
   inkscape:version="1.4 (1:1.4+202410161351+e7c3feb100)"
   xmlns:inkscape="http://www.inkscape.org/namespaces/inkscape"
   xmlns:sodipodi="http://sodipodi.sourceforge.net/DTD/sodipodi-0.dtd"
   xmlns="http://www.w3.org/2000/svg"
   xmlns:svg="http://www.w3.org/2000/svg">
  <defs
     id="defs3" />
  <sodipodi:namedview
     id="namedview3"
     pagecolor="#ffffff"
     bordercolor="#666666"
     borderopacity="1.0"
     inkscape:showpageshadow="2"
     inkscape:pageopacity="0.0"
     inkscape:pagecheckerboard="0"
     inkscape:deskcolor="#d1d1d1"
     inkscape:document-units="mm"
     inkscape:zoom="0.64684732"
     inkscape:cx="558.8645"
     inkscape:cy="473.06372"
     inkscape:window-width="1680"
     inkscape:window-height="992"
     inkscape:window-x="0"
     inkscape:window-y="0"
     inkscape:window-maximized="1"
     inkscape:current-layer="svg3" />
  <path
     id="circle3"
     style="fill:#cccccc;stroke:#191919;stroke-width:0.7;stroke-linecap:square"
     d="m 158,-152.97916 a 5,5 0 0 1 -5,5 5,5 0 0 1 -5,-5 5,5 0 0 1 5,-5 5,5 0 0 1 5,5 z M 120.5,-6.54231 A 150,150 0 0 1 42.432,-51.61516 l -3e-5,2.5e-4 A 150,150 0 0 0 120.5,-6.54216 Z m -78.06803,-45.0726 v 0 l 48.875744,-28.218424 v 0 z M 91.307714,-79.833334 A 2.5000031,2.5000031 0 0 0 88.8077,-84.16346 l 1.4e-5,-10e-7 a 2.5,2.5 0 0 1 2.499986,4.330101 z m -2.5,-4.330127 v 0 l -49.759764,28.72881 v 0 z M 39.04795,-55.434651 A 150,150 0 0 1 32.733,-63.33586 l 2.9e-4,-2.1e-5 a 150,150 0 0 0 6.31471,7.901221 z m -6.31466,-7.90123 v 0 l 77.05519,-44.487829 v 0 z m 77.05519,-44.487839 a 2.5000018,2.5000018 0 1 0 -2.49998,-4.33014 l -2e-5,2e-5 a 2.5,2.5 0 1 1 2.50002,4.33008 z m -2.5,-4.33012 v 0 l -77.49045,44.739127 v 0 z M 29.79803,-67.414713 A 150,150 0 0 1 24.364,-75.82456 l 2.3e-4,4.6e-5 a 150,150 0 0 0 5.43377,8.409754 z m -5.4338,-8.409801 v 0 L 128.26924,-135.8141 v 0 z M 128.26924,-135.8141 a 2.5000255,2.5000255 0 0 0 -2.50004,-4.33016 l 4e-5,4e-5 a 2.5000065,2.5000065 0 0 1 2.49996,4.33016 z m -2.5,-4.33012 v 0 L 21.86423,-80.154641 v 0 z M 21.86423,-80.154641 A 150,150 0 0 1 17.298,-89.06536 l 3e-5,1.2e-5 a 150,150 0 0 0 4.56597,8.910688 z m -4.5662,-8.910707 v 0 l 77.490446,-44.739132 v 0 z m 77.490446,-44.739132 a 2.5,2.5 0 1 0 -2.499976,-4.33008 l -2.4e-5,-5e-5 a 2.500016,2.500016 0 1 1 2.500024,4.33015 z m -2.5,-4.33013 v 0 L 15.23329,-93.64677 v 0 z M 15.23329,-93.64677 a 150,150 0 0 1 -3.68529,-9.41929 l -5e-5,10e-6 a 150,150 0 0 0 3.68505,9.41929 z m -3.68534,-9.41928 v 0 l 49.759764,-28.72881 v 0 z m 49.759764,-28.72881 a 2.5,2.5 0 0 0 -2.500014,-4.3301 l 1.4e-5,-3e-5 a 2.5,2.5 0 0 1 2.499986,4.33013 z m -2.5,-4.33013 v 0 L 9.93197,-107.90656 v 0 z M 9.93197,-107.90656 a 150,150 0 0 1 3e-5,-90.1452 h -3e-5 a 150,150 0 0 0 3e-5,90.1452 z m 0,-90.1452 v 0 l 48.875744,28.21843 v 0 z m 48.875744,28.21843 a 2.5,2.5 0 0 0 2.499986,-4.33013 h 1.4e-5 a 2.5,2.5 0 0 1 -2.500014,4.3301 z m 2.5,-4.33013 v 0 L 11.54795,-202.89227 v 0 z M 11.54795,-202.89227 a 150,150 0 0 1 3.68505,-9.41929 l 2.9e-4,10e-6 a 150,150 0 0 0 -3.68529,9.41929 z m 3.68534,-9.41928 v 0 l 77.055186,44.48784 v 0 z m 77.055186,44.48784 a 2.500016,2.500016 0 1 0 2.500024,-4.33015 l -2.4e-5,2e-5 a 2.5,2.5 0 1 1 -2.499976,4.33008 z m 2.5,-4.33013 v 0 L 17.29803,-216.89297 v 0 z M 17.29803,-216.89297 a 150,150 0 0 1 4.56597,-8.91069 l 2.3e-4,-2e-5 a 150,150 0 0 0 -4.56623,8.91072 z m 4.5662,-8.91071 v 0 l 103.90501,59.98958 v 0 z m 103.90501,59.98958 a 2.5000065,2.5000065 0 0 0 2.49996,-4.33016 l 4e-5,4e-5 a 2.5000255,2.5000255 0 0 1 -2.50004,4.33016 z m 2.5,-4.33012 v 0 L 24.36423,-230.13381 v 0 z M 24.36423,-230.13381 a 150,150 0 0 1 5.43377,-8.40975 l 3e-5,-5e-5 a 150,150 0 0 0 -5.43403,8.40985 z m 5.4338,-8.4098 v 0 l 77.49045,44.73913 v 0 z m 77.49045,44.73913 a 2.5,2.5 0 1 0 2.50002,-4.33008 l -2e-5,-5e-5 a 2.500005,2.500005 0 1 1 -2.49998,4.33015 z m 2.5,-4.33013 v 0 l -77.05519,-44.48783 v 0 z m -77.05519,-44.48783 a 150,150 0 0 1 6.31471,-7.90122 l -5e-5,-1e-5 a 150,150 0 0 0 -6.31495,7.90121 z m 6.31466,-7.90123 v 0 l 49.759764,28.72881 v 0 z m 49.759764,28.72881 a 2.5,2.5 0 0 0 2.499986,-4.3301 l 1.4e-5,-3e-5 a 2.5000048,2.5000048 0 0 1 -2.500014,4.33013 z m 2.5,-4.33013 v 0 L 42.43197,-254.34341 v 0 z M 42.43197,-254.34341 A 150,150 0 0 1 120.5,-299.41616 v 1.5e-4 a 150,150 0 0 0 -78.068,45.07285 z M 120.5,-299.41601 v 0 56.43685 0 z m 0,56.43685 a 2.5,2.5 0 0 0 5,0 v 0 a 2.5,2.5 0 0 1 -5,0 z m 5,0 v 0 -57.45762 0 z m 0,-57.45762 a 150,150 0 0 1 10,-1.51838 v 3.3e-4 a 150,150 0 0 0 -10,1.51767 z m 10,-1.51805 v 0 88.97567 0 z m 0,88.97567 a 2.5,2.5 0 1 0 5,0 v 0 a 2.5,2.5 0 1 1 -5,0 z m 5,0 v 0 -89.47826 0 z m 0,-89.47826 a 150,150 0 0 1 10,-0.50074 v -1.7e-4 a 150,150 0 0 0 -10,0.50117 z m 10,-0.50091 v 0 119.97917 0 z m 0,119.97917 a 2.5,2.5 0 0 0 5,0 v 0 a 2.5,2.5 0 0 1 -5,0 z m 5,0 v 0 -119.97917 0 z m 0,-119.97917 a 150,150 0 0 1 10,0.50117 v -2.6e-4 a 150,150 0 0 0 -10,-0.50074 z m 10,0.50091 v 0 89.47826 0 z m 0,89.47826 a 2.5,2.5 0 1 0 5,0 v 0 a 2.5,2.5 0 1 1 -5,0 z m 5,0 v 0 -88.97567 0 z m 0,-88.97567 a 150,150 0 0 1 10,1.51767 v 3.8e-4 a 150,150 0 0 0 -10,-1.51838 z m 10,1.51805 v 0 57.45762 0 z m 0,57.45762 a 2.5,2.5 0 0 0 5,0 v 0 a 2.5,2.5 0 0 1 -5,0 z m 5,0 v 0 -56.43685 0 z m 0,-56.43685 a 150,150 0 0 1 78.068,45.07285 l 3e-5,-2.5e-4 A 150,150 0 0 0 185.5,-299.41616 Z m 78.06803,45.0726 v 0 l -48.87574,28.21842 v 0 z m -48.87574,28.21842 a 2.5000038,2.5000038 0 0 0 2.50001,4.33013 h -10e-6 a 2.5,2.5 0 0 1 -2.49999,-4.3301 z m 2.5,4.33013 v 0 l 49.75976,-28.72881 v 0 z m 49.75976,-28.72881 a 150,150 0 0 1 6.31495,7.90121 l -2.9e-4,2e-5 a 150,150 0 0 0 -6.31471,-7.90122 z m 6.31466,7.90123 v 0 l -77.05519,44.48783 v 0 z m -77.05519,44.48783 a 2.500005,2.500005 0 1 0 2.49998,4.33015 l 2e-5,-2e-5 a 2.5,2.5 0 1 1 -2.50002,-4.33008 z m 2.5,4.33013 v 0 l 77.49045,-44.73913 v 0 z m 77.49045,-44.73913 a 150,150 0 0 1 5.43403,8.40985 l -2.3e-4,-5e-5 a 150,150 0 0 0 -5.43377,-8.40975 z m 5.4338,8.4098 v 0 l -103.90501,59.98959 v 0 z m -103.90501,59.98959 a 2.5000255,2.5000255 0 0 0 2.50004,4.33016 l -4e-5,-4e-5 a 2.5000065,2.5000065 0 0 1 -2.49996,-4.33016 z m 2.5,4.33012 v 0 l 103.90501,-59.98958 v 0 z m 103.90501,-59.98958 a 150,150 0 0 1 4.56623,8.91072 l -3e-5,-1e-5 a 150,150 0 0 0 -4.56597,-8.91069 z m 4.5662,8.91071 v 0 l -77.49045,44.73913 v 0 z m -77.49045,44.73913 a 2.5,2.5 0 1 0 2.49998,4.33008 l 2e-5,5e-5 a 2.500015,2.500015 0 1 1 -2.50002,-4.33015 z m 2.5,4.33013 v 0 l 77.05519,-44.48784 v 0 z m 77.05519,-44.48784 a 150,150 0 0 1 3.68529,9.41929 l 5e-5,-1e-5 a 150,150 0 0 0 -3.68505,-9.41929 z m 3.68534,9.41928 v 0 l -49.75976,28.72881 v 0 z m -49.75976,28.72881 a 2.5,2.5 0 0 0 2.50001,4.3301 l -10e-6,3e-5 a 2.5,2.5 0 0 1 -2.49999,-4.33013 z m 2.5,4.33013 v 0 l 48.87574,-28.21843 v 0 z m 0,33.70834 a 2.5,2.5 0 0 0 -2.49999,4.33013 h -10e-6 a 2.5,2.5 0 0 1 2.50001,-4.3301 z m -2.5,4.33013 v 0 l 49.75976,28.72881 v 0 z m 49.75976,28.72881 v 0 a 150,150 0 0 1 -3.68505,9.41929 l -2.9e-4,-1e-5 a 150,150 0 0 0 3.68529,-9.41929 z m -3.68534,9.41928 v 0 l -77.05519,-44.48784 v 0 z m -77.05519,-44.48784 a 2.500015,2.500015 0 1 0 -2.50002,4.33015 l 2e-5,-2e-5 a 2.5,2.5 0 1 1 2.49998,-4.33008 z m -2.5,4.33013 v 0 l 77.49045,44.739132 v 0 z m 77.49045,44.739132 v 0 a 150,150 0 0 1 -4.56597,8.910688 l -2.3e-4,1.9e-5 a 150,150 0 0 0 4.56623,-8.910719 z m -4.5662,8.910707 v 0 L 180.23076,-140.14422 v 0 z M 180.23076,-140.14422 a 2.5000065,2.5000065 0 0 0 -2.49996,4.33016 l -4e-5,-4e-5 a 2.5000255,2.5000255 0 0 1 2.50004,-4.33016 z m -2.5,4.33012 v 0 l 103.90501,59.989586 v 0 z m 103.90501,59.989586 v 0 a 150,150 0 0 1 -5.43377,8.409754 l -3e-5,4.7e-5 a 150,150 0 0 0 5.43403,-8.409847 z m -5.4338,8.409801 v 0 l -77.49045,-44.739127 v 0 z m -77.49045,-44.739127 a 2.5,2.5 0 1 0 -2.50002,4.33008 l 2e-5,4e-5 a 2.5000018,2.5000018 0 1 1 2.49998,-4.33014 z m -2.5,4.33012 v 0 l 77.05519,44.487839 v 0 z m 77.05519,44.487839 v 0 a 150,150 0 0 1 -6.31471,7.901221 l 5e-5,9e-6 a 150,150 0 0 0 6.31495,-7.901209 z m -6.31466,7.90123 v 0 l -49.75976,-28.72881 v 0 z m -49.75976,-28.72881 a 2.5,2.5 0 0 0 -2.49999,4.330101 l -10e-6,2.6e-5 a 2.5000031,2.5000031 0 0 1 2.50001,-4.330126 z m -2.5,4.330127 v 0 l 48.87574,28.218424 v 0 z m 48.87574,28.218424 v 0 A 150,150 0 0 1 185.5,-6.54216 v -1.5e-4 a 150,150 0 0 0 78.068,-45.07285 z M 185.5,-6.54231 v 0 -56.43685 0 z m 0,-56.43685 a 2.5,2.5 0 0 0 -5,0 v 0 a 2.5,2.5 0 0 1 5,0 z m -5,0 v 0 57.45762 0 z m 0,57.45762 v 0 a 150,150 0 0 1 -10,1.51838 v -3.3e-4 a 150,150 0 0 0 10,-1.51767 z m -10,1.51805 v 0 -88.97567 0 z m 0,-88.97567 a 2.5,2.5 0 1 0 -5,0 v 0 a 2.5,2.5 0 1 1 5,0 z m -5,0 v 0 89.47826 0 z m 0,89.47826 v 0 a 150,150 0 0 1 -10,0.50074 v 1.7e-4 a 150,150 0 0 0 10,-0.50117 z m -10,0.50091 v 0 -119.97917 0 z m 0,-119.97917 a 2.5,2.5 0 0 0 -5,0 v 0 a 2.5,2.5 0 0 1 5,0 z m -5,0 v 0 119.97917 0 z m 0,119.97917 a 150,150 0 0 1 -10,-0.50117 v 2.6e-4 a 150,150 0 0 0 10,0.50074 z m -10,-0.50091 v 0 -89.47826 0 z m 0,-89.47826 a 2.5,2.5 0 1 0 -5,0 v 0 a 2.5,2.5 0 1 1 5,0 z m -5,0 v 0 88.97567 0 z m 0,88.97567 a 150,150 0 0 1 -10,-1.51767 v -3.8e-4 a 150,150 0 0 0 10,1.51838 z m -10,-1.51805 v 0 -57.45762 0 z m 0,-57.45762 a 2.5,2.5 0 0 0 -5,0 v 0 a 2.5,2.5 0 0 1 5,0 z m -5,0 v 0 56.43685 0 z m 175.56803,-135.0726 A 150,150 0 0 1 303,-152.97916 v 0 a 150,150 0 0 0 -6.932,-45.0726 z M 158,-152.97916 a 5,5 0 0 1 -5,5 5,5 0 0 1 -5,-5 5,5 0 0 1 5,-5 5,5 0 0 1 5,5 z m 138.06803,45.0726 v 0 l -48.87574,-28.21843 v 0 z M 158,-152.97916 a 5,5 0 0 1 -5,5 5,5 0 0 1 -5,-5 5,5 0 0 1 5,-5 5,5 0 0 1 5,5 z m 138.06803,45.0726 v 0 A 150,150 0 0 0 303,-152.97916 v 0 a 150,150 0 0 1 -6.932,45.0726 z"
     transform="scale(1,-1)" />
  <g
     id="g3119"
     transform="matrix(-0.08678582,0,0,-0.08678582,223.68907,171.04977)">
    <path
       inkscape:connector-curvature="0"
       id="path3097"
       d="m 99.052985,288.06282 c -4.402513,-1.41293 -2.343989,-7.50397 -1.914557,-10.93934 1.986738,-9.28346 5.546052,-18.18739 9.017342,-26.95505 -2.18673,-4.54165 -4.75176,-9.21052 -4.47092,-14.4359 -0.3162,-4.93121 1.4723,-9.72883 3.38165,-14.11301 3.20481,-5.22322 7.54644,-10.79094 13.55047,-13.31946 7.44954,-3.67806 16.89249,-3.41456 23.72824,1.45311 2.08604,2.45294 0.0314,5.81037 -1.26687,9.364 -5.25314,12.62221 -11.64148,24.81658 -19.81863,35.78516 -2.28873,5.31845 -7.62267,2.28794 -10.74305,-0.43011 -2.27629,-1.08646 -1.92202,5.17815 -3.01908,6.81748 -1.4612,3.47816 -0.92731,11.04169 4.21432,6.26999 6.77836,-5.93889 11.49736,-13.82765 16.17255,-21.43536 7.60501,-12.9482 14.3931,-26.52081 18.64224,-40.98422 0.61641,-3.08816 2.0733,-7.16208 0.28709,-9.79761 -4.73421,-0.82161 -7.02148,7.04197 -10.4792,6.70453 -4.98674,-3.40282 1.21343,-7.34558 3.0128,-10.66623 4.18172,-5.26611 8.17126,-11.15144 14.29427,-14.33942 4.94306,-2.14315 4.94037,5.30877 4.14569,8.34124 -1.44226,8.291 -4.36382,16.25818 -7.42213,24.04991 -0.9186,2.78016 -3.68562,5.76792 -0.85732,8.22481 7.87489,13.92233 0.36294,33.25734 -13.9752,39.55606 -3.46634,2.90944 -9.48556,0.52607 -11.97367,4.02038 -5.73838,8.48557 -11.29573,17.28639 -19.07171,24.07164 -1.61183,1.20714 -3.37673,2.53492 -5.434384,2.75744 z m 7.594025,-8.71765 c 1.62661,-1.00258 4.78132,-4.6972 1.53651,-1.67306 -3.13319,2.79761 -7.74299,3.63391 -7.5742,-1.8991 0.0601,-2.53506 1.49745,-8.07945 1.01812,-7.95325 -0.93256,3.95359 -2.233837,8.21461 -1.06254,12.23311 1.21949,2.6365 4.59442,0.459 6.08211,-0.7077 z m 3.84678,-3.67101 c 0.20311,-0.84171 -0.92437,1.11209 0,0 z m 0.65933,-0.88298 c -0.59944,0.53219 -0.0849,0.60338 0,0 z m 0.61879,-0.54282 c 0.26943,-0.82428 -0.99191,1.23016 0,0 z m -9.67321,-7.52381 c -0.44,-0.22547 -0.12846,0.74278 0,0 z m 0.28969,-0.92506 c 0.0168,-1.4446 -0.48022,1.69412 0,0 z m 49.08607,-64.45333 c 0.0556,-1.11044 -0.42211,1.30805 0,0 z m 0.53237,-2.05385 c -0.29855,0.53115 0.15364,0.78677 0,0 z m 1.64408,-6.06921 c 0.90013,-3.96852 2.41485,-9.58572 -2.20994,-9.82218 -1.79018,-0.12711 -5.33213,3.66679 -1.62206,1.07954 4.4795,-1.8124 4.36969,3.51879 3.49433,7.0777 -0.53083,2.13646 -1.69274,8.64042 -0.20212,3.64559 0.0588,-0.2961 0.41996,-1.41517 0.53979,-1.98065 z m -9.45892,-4.40155 c -0.59948,0.53221 -0.0849,0.60337 0,0 z m 0.69822,-0.57986 c -0.30322,-0.31392 -0.38526,0.91796 0,0 z m 0.99825,-0.99206 c -0.21534,-1.02015 -0.47915,1.18326 0,0 z m 1.2189,-1.1446 c -1.45237,0.12079 -0.81017,1.44722 0,0 z"
       style="fill:#000000"
       inkscape:transform-center-x="-26.818911"
       inkscape:transform-center-y="-3.3523653"
       sodipodi:nodetypes="cccccccccccccccccccccccccccccccccccccccccccccccccccccccccccc" />
    <g
       id="g3101"
       style="font-style:normal;font-variant:normal;font-weight:500;font-stretch:normal;font-size:40px;line-height:125%;font-family:'Atari ST 8x16 System Font';-inkscape-font-specification:'Atari ST 8x16 System Font, Medium';text-align:start;letter-spacing:0px;word-spacing:0px;writing-mode:lr-tb;text-anchor:start;fill:#000000;fill-opacity:1;stroke:none;stroke-width:1px;stroke-linecap:butt;stroke-linejoin:miter;stroke-opacity:1"
       transform="matrix(2.9021802,0,0,2.9021802,681.78265,1435.9132)">
      <path
         inkscape:connector-curvature="0"
         id="path3099"
         d="m -223.44531,-414.01864 v -15 h 2.5 2.5 v 2.5 2.5 h 1.25 1.25 v 2.5 2.5 h 1.25 1.25 v -2.5 -2.5 h 1.25 1.25 v -2.5 -2.5 h 2.5 2.5 v 15 15 h -2.5 -2.5 v -8.75 -8.75 h -1.25 -1.25 v 2.5 2.5 h -1.25 -1.25 v -2.5 -2.5 h -1.25 -1.25 v 8.75 8.75 h -2.5 -2.5 z" />
    </g>
    <g
       id="g3105"
       style="font-style:normal;font-variant:normal;font-weight:500;font-stretch:normal;font-size:385.068px;line-height:125%;font-family:'Atari ST 8x16 System Font';-inkscape-font-specification:'Atari ST 8x16 System Font, Medium';text-align:start;letter-spacing:0px;word-spacing:0px;writing-mode:lr-tb;text-anchor:start;fill:#000000;fill-opacity:1;stroke:none;stroke-width:1px;stroke-linecap:butt;stroke-linejoin:miter;stroke-opacity:1"
       transform="matrix(0.19753994,0,0,0.19753994,-125.15957,341.93215)">
      <path
         inkscape:connector-curvature="0"
         id="path3103"
         d="m 3011.6081,-729.52071 v -36.10013 h 24.0668 24.0667 v 36.10013 36.10014 h 24.0668 24.0667 v 24.06676 24.06675 h -24.0667 -24.0668 v 36.10014 36.10013 h -24.0667 -24.0668 v -36.10013 -36.10014 h -24.0668 -24.0667 v -24.06675 -24.06676 h 24.0667 24.0668 z" />
    </g>
    <g
       id="g3117"
       style="font-style:normal;font-variant:normal;font-weight:500;font-stretch:normal;font-size:587.664px;line-height:125%;font-family:'Atari ST 8x16 System Font';-inkscape-font-specification:'Atari ST 8x16 System Font, Medium';text-align:start;letter-spacing:0px;word-spacing:0px;writing-mode:lr-tb;text-anchor:start;fill:#000000;fill-opacity:1;stroke:none;stroke-width:1px;stroke-linecap:butt;stroke-linejoin:miter;stroke-opacity:1"
       transform="matrix(0.19753994,0,0,0.19753994,-125.15957,341.93215)">
      <path
         inkscape:connector-curvature="0"
         id="path3107"
         d="m 1484.7041,-545.30898 v -220.37416 h 73.4581 73.458 v 18.36452 18.36451 h 18.3645 18.3646 v 18.36451 18.36452 h 18.3645 18.3645 v 146.9161 146.91611 h -18.3645 -18.3645 v 18.36452 18.36451 h -18.3646 -18.3645 v 18.36451 18.36452 h -73.458 -73.4581 z m 110.1871,-128.55159 v -18.36451 h -18.3645 -18.3645 v 146.9161 146.91611 h 18.3645 18.3645 v -18.36451 -18.36451 h 18.3645 18.3645 v -110.18709 -110.18708 h -18.3645 -18.3645 z" />
      <path
         inkscape:connector-curvature="0"
         id="path3109"
         d="m 1778.5363,-563.67349 v -202.00965 h 36.7291 36.729 v 183.64514 183.64513 h 36.729 36.729 V -582.038 -765.68314 h 36.7291 36.729 v 202.00965 202.00965 h -18.3645 -18.3645 v 18.36451 18.36452 h -73.4581 -73.458 v -18.36452 -18.36451 h -18.3645 -18.3646 z" />
      <path
         inkscape:connector-curvature="0"
         id="path3111"
         d="m 2072.3686,-545.30898 v -220.37416 h 36.729 36.729 v 183.64514 183.64513 h 73.4581 73.458 v 36.72903 36.72903 h -110.1871 -110.187 z" />
      <path
         inkscape:connector-curvature="0"
         id="path3113"
         d="m 2439.6588,-747.31862 v -18.36452 h 36.729 36.7291 v 18.36452 18.36451 h 18.3645 18.3645 v 18.36451 18.36452 h 18.3645 18.3645 v 183.64513 183.64514 h -36.729 -36.729 v -73.45806 -73.45805 h -36.7291 -36.729 v 73.45805 73.45806 h -36.729 -36.729 v -183.64514 -183.64513 h 18.3645 18.3645 v -18.36452 -18.36451 h 18.3645 18.3645 z m 73.4581,146.9161 v -55.09354 h -36.7291 -36.729 v 55.09354 55.09354 h 36.729 36.7291 z" />
      <path
         inkscape:connector-curvature="0"
         id="path3115"
         d="m 2623.304,-545.30898 v -220.37416 h 91.8225 91.8226 v 18.36452 18.36451 h 18.3645 18.3645 v 91.82257 91.82256 h -18.3645 -18.3645 v 36.72903 36.72903 h 18.3645 18.3645 v 36.72903 36.72902 h 18.3645 18.3645 v 36.72903 36.72903 h -36.729 -36.729 v -36.72903 -36.72903 h -18.3645 -18.3645 v -36.72902 -36.72903 h -18.3646 -18.3645 v -18.36452 -18.36451 h -18.3645 -18.3645 v 91.82257 91.82257 h -36.729 -36.729 z m 146.9161,-91.82256 v -55.09354 h -36.7291 -36.729 v 55.09354 55.09354 h 36.729 36.7291 z" />
    </g>
  </g>
  <g
     id="g3512"
     transform="matrix(0.04235316,0.07574951,-0.07574951,0.04235316,133.74879,82.577871)">
    <path
       inkscape:connector-curvature="0"
       id="path3490"
       d="m 99.052985,288.06282 c -4.402513,-1.41293 -2.343989,-7.50397 -1.914557,-10.93934 1.986738,-9.28346 5.546052,-18.18739 9.017342,-26.95505 -2.18673,-4.54165 -4.75176,-9.21052 -4.47092,-14.4359 -0.3162,-4.93121 1.4723,-9.72883 3.38165,-14.11301 3.20481,-5.22322 7.54644,-10.79094 13.55047,-13.31946 7.44954,-3.67806 16.89249,-3.41456 23.72824,1.45311 2.08604,2.45294 0.0314,5.81037 -1.26687,9.364 -5.25314,12.62221 -11.64148,24.81658 -19.81863,35.78516 -2.28873,5.31845 -7.62267,2.28794 -10.74305,-0.43011 -2.27629,-1.08646 -1.92202,5.17815 -3.01908,6.81748 -1.4612,3.47816 -0.92731,11.04169 4.21432,6.26999 6.77836,-5.93889 11.49736,-13.82765 16.17255,-21.43536 7.60501,-12.9482 14.3931,-26.52081 18.64224,-40.98422 0.61641,-3.08816 2.0733,-7.16208 0.28709,-9.79761 -4.73421,-0.82161 -7.02148,7.04197 -10.4792,6.70453 -4.98674,-3.40282 1.21343,-7.34558 3.0128,-10.66623 4.18172,-5.26611 8.17126,-11.15144 14.29427,-14.33942 4.94306,-2.14315 4.94037,5.30877 4.14569,8.34124 -1.44226,8.291 -4.36382,16.25818 -7.42213,24.04991 -0.9186,2.78016 -3.68562,5.76792 -0.85732,8.22481 7.87489,13.92233 0.36294,33.25734 -13.9752,39.55606 -3.46634,2.90944 -9.48556,0.52607 -11.97367,4.02038 -5.73838,8.48557 -11.29573,17.28639 -19.07171,24.07164 -1.61183,1.20714 -3.37673,2.53492 -5.434384,2.75744 z m 7.594025,-8.71765 c 1.62661,-1.00258 4.78132,-4.6972 1.53651,-1.67306 -3.13319,2.79761 -7.74299,3.63391 -7.5742,-1.8991 0.0601,-2.53506 1.49745,-8.07945 1.01812,-7.95325 -0.93256,3.95359 -2.233837,8.21461 -1.06254,12.23311 1.21949,2.6365 4.59442,0.459 6.08211,-0.7077 z m 3.84678,-3.67101 c 0.20311,-0.84171 -0.92437,1.11209 0,0 z m 0.65933,-0.88298 c -0.59944,0.53219 -0.0849,0.60338 0,0 z m 0.61879,-0.54282 c 0.26943,-0.82428 -0.99191,1.23016 0,0 z m -9.67321,-7.52381 c -0.44,-0.22547 -0.12846,0.74278 0,0 z m 0.28969,-0.92506 c 0.0168,-1.4446 -0.48022,1.69412 0,0 z m 49.08607,-64.45333 c 0.0556,-1.11044 -0.42211,1.30805 0,0 z m 0.53237,-2.05385 c -0.29855,0.53115 0.15364,0.78677 0,0 z m 1.64408,-6.06921 c 0.90013,-3.96852 2.41485,-9.58572 -2.20994,-9.82218 -1.79018,-0.12711 -5.33213,3.66679 -1.62206,1.07954 4.4795,-1.8124 4.36969,3.51879 3.49433,7.0777 -0.53083,2.13646 -1.69274,8.64042 -0.20212,3.64559 0.0588,-0.2961 0.41996,-1.41517 0.53979,-1.98065 z m -9.45892,-4.40155 c -0.59948,0.53221 -0.0849,0.60337 0,0 z m 0.69822,-0.57986 c -0.30322,-0.31392 -0.38526,0.91796 0,0 z m 0.99825,-0.99206 c -0.21534,-1.02015 -0.47915,1.18326 0,0 z m 1.2189,-1.1446 c -1.45237,0.12079 -0.81017,1.44722 0,0 z"
       style="fill:#000000"
       inkscape:transform-center-x="-26.818911"
       inkscape:transform-center-y="-3.3523653"
       sodipodi:nodetypes="cccccccccccccccccccccccccccccccccccccccccccccccccccccccccccc" />
    <g
       id="g3494"
       style="font-style:normal;font-variant:normal;font-weight:500;font-stretch:normal;font-size:40px;line-height:125%;font-family:'Atari ST 8x16 System Font';-inkscape-font-specification:'Atari ST 8x16 System Font, Medium';text-align:start;letter-spacing:0px;word-spacing:0px;writing-mode:lr-tb;text-anchor:start;fill:#000000;fill-opacity:1;stroke:none;stroke-width:1px;stroke-linecap:butt;stroke-linejoin:miter;stroke-opacity:1"
       transform="matrix(2.9021802,0,0,2.9021802,681.78265,1435.9132)">
      <path
         inkscape:connector-curvature="0"
         id="path3492"
         d="m -223.44531,-414.01864 v -15 h 2.5 2.5 v 2.5 2.5 h 1.25 1.25 v 2.5 2.5 h 1.25 1.25 v -2.5 -2.5 h 1.25 1.25 v -2.5 -2.5 h 2.5 2.5 v 15 15 h -2.5 -2.5 v -8.75 -8.75 h -1.25 -1.25 v 2.5 2.5 h -1.25 -1.25 v -2.5 -2.5 h -1.25 -1.25 v 8.75 8.75 h -2.5 -2.5 z" />
    </g>
    <g
       id="g3498"
       style="font-style:normal;font-variant:normal;font-weight:500;font-stretch:normal;font-size:385.068px;line-height:125%;font-family:'Atari ST 8x16 System Font';-inkscape-font-specification:'Atari ST 8x16 System Font, Medium';text-align:start;letter-spacing:0px;word-spacing:0px;writing-mode:lr-tb;text-anchor:start;fill:#000000;fill-opacity:1;stroke:none;stroke-width:1px;stroke-linecap:butt;stroke-linejoin:miter;stroke-opacity:1"
       transform="matrix(0.19753994,0,0,0.19753994,-125.15957,341.93215)">
      <path
         inkscape:connector-curvature="0"
         id="path3496"
         d="m 3011.6081,-729.52071 v -36.10013 h 24.0668 24.0667 v 36.10013 36.10014 h 24.0668 24.0667 v 24.06676 24.06675 h -24.0667 -24.0668 v 36.10014 36.10013 h -24.0667 -24.0668 v -36.10013 -36.10014 h -24.0668 -24.0667 v -24.06675 -24.06676 h 24.0667 24.0668 z" />
    </g>
    <g
       id="g3510"
       style="font-style:normal;font-variant:normal;font-weight:500;font-stretch:normal;font-size:587.664px;line-height:125%;font-family:'Atari ST 8x16 System Font';-inkscape-font-specification:'Atari ST 8x16 System Font, Medium';text-align:start;letter-spacing:0px;word-spacing:0px;writing-mode:lr-tb;text-anchor:start;fill:#000000;fill-opacity:1;stroke:none;stroke-width:1px;stroke-linecap:butt;stroke-linejoin:miter;stroke-opacity:1"
       transform="matrix(0.19753994,0,0,0.19753994,-125.15957,341.93215)">
      <path
         inkscape:connector-curvature="0"
         id="path3500"
         d="m 1484.7041,-545.30898 v -220.37416 h 73.4581 73.458 v 18.36452 18.36451 h 18.3645 18.3646 v 18.36451 18.36452 h 18.3645 18.3645 v 146.9161 146.91611 h -18.3645 -18.3645 v 18.36452 18.36451 h -18.3646 -18.3645 v 18.36451 18.36452 h -73.458 -73.4581 z m 110.1871,-128.55159 v -18.36451 h -18.3645 -18.3645 v 146.9161 146.91611 h 18.3645 18.3645 v -18.36451 -18.36451 h 18.3645 18.3645 v -110.18709 -110.18708 h -18.3645 -18.3645 z" />
      <path
         inkscape:connector-curvature="0"
         id="path3502"
         d="m 1778.5363,-563.67349 v -202.00965 h 36.7291 36.729 v 183.64514 183.64513 h 36.729 36.729 V -582.038 -765.68314 h 36.7291 36.729 v 202.00965 202.00965 h -18.3645 -18.3645 v 18.36451 18.36452 h -73.4581 -73.458 v -18.36452 -18.36451 h -18.3645 -18.3646 z" />
      <path
         inkscape:connector-curvature="0"
         id="path3504"
         d="m 2072.3686,-545.30898 v -220.37416 h 36.729 36.729 v 183.64514 183.64513 h 73.4581 73.458 v 36.72903 36.72903 h -110.1871 -110.187 z" />
      <path
         inkscape:connector-curvature="0"
         id="path3506"
         d="m 2439.6588,-747.31862 v -18.36452 h 36.729 36.7291 v 18.36452 18.36451 h 18.3645 18.3645 v 18.36451 18.36452 h 18.3645 18.3645 v 183.64513 183.64514 h -36.729 -36.729 v -73.45806 -73.45805 h -36.7291 -36.729 v 73.45805 73.45806 h -36.729 -36.729 v -183.64514 -183.64513 h 18.3645 18.3645 v -18.36452 -18.36451 h 18.3645 18.3645 z m 73.4581,146.9161 v -55.09354 h -36.7291 -36.729 v 55.09354 55.09354 h 36.729 36.7291 z" />
      <path
         inkscape:connector-curvature="0"
         id="path3508"
         d="m 2623.304,-545.30898 v -220.37416 h 91.8225 91.8226 v 18.36452 18.36451 h 18.3645 18.3645 v 91.82257 91.82256 h -18.3645 -18.3645 v 36.72903 36.72903 h 18.3645 18.3645 v 36.72903 36.72902 h 18.3645 18.3645 v 36.72903 36.72903 h -36.729 -36.729 v -36.72903 -36.72903 h -18.3645 -18.3645 v -36.72902 -36.72903 h -18.3646 -18.3645 v -18.36452 -18.36451 h -18.3645 -18.3645 v 91.82257 91.82257 h -36.729 -36.729 z m 146.9161,-91.82256 v -55.09354 h -36.7291 -36.729 v 55.09354 55.09354 h 36.729 36.7291 z" />
    </g>
  </g>
  <g
     id="g3584"
     transform="matrix(0.04383739,-0.07490035,0.07490035,0.04383739,102.08545,205.46714)">
    <path
       inkscape:connector-curvature="0"
       id="path3562"
       d="m 99.052985,288.06282 c -4.402513,-1.41293 -2.343989,-7.50397 -1.914557,-10.93934 1.986738,-9.28346 5.546052,-18.18739 9.017342,-26.95505 -2.18673,-4.54165 -4.75176,-9.21052 -4.47092,-14.4359 -0.3162,-4.93121 1.4723,-9.72883 3.38165,-14.11301 3.20481,-5.22322 7.54644,-10.79094 13.55047,-13.31946 7.44954,-3.67806 16.89249,-3.41456 23.72824,1.45311 2.08604,2.45294 0.0314,5.81037 -1.26687,9.364 -5.25314,12.62221 -11.64148,24.81658 -19.81863,35.78516 -2.28873,5.31845 -7.62267,2.28794 -10.74305,-0.43011 -2.27629,-1.08646 -1.92202,5.17815 -3.01908,6.81748 -1.4612,3.47816 -0.92731,11.04169 4.21432,6.26999 6.77836,-5.93889 11.49736,-13.82765 16.17255,-21.43536 7.60501,-12.9482 14.3931,-26.52081 18.64224,-40.98422 0.61641,-3.08816 2.0733,-7.16208 0.28709,-9.79761 -4.73421,-0.82161 -7.02148,7.04197 -10.4792,6.70453 -4.98674,-3.40282 1.21343,-7.34558 3.0128,-10.66623 4.18172,-5.26611 8.17126,-11.15144 14.29427,-14.33942 4.94306,-2.14315 4.94037,5.30877 4.14569,8.34124 -1.44226,8.291 -4.36382,16.25818 -7.42213,24.04991 -0.9186,2.78016 -3.68562,5.76792 -0.85732,8.22481 7.87489,13.92233 0.36294,33.25734 -13.9752,39.55606 -3.46634,2.90944 -9.48556,0.52607 -11.97367,4.02038 -5.73838,8.48557 -11.29573,17.28639 -19.07171,24.07164 -1.61183,1.20714 -3.37673,2.53492 -5.434384,2.75744 z m 7.594025,-8.71765 c 1.62661,-1.00258 4.78132,-4.6972 1.53651,-1.67306 -3.13319,2.79761 -7.74299,3.63391 -7.5742,-1.8991 0.0601,-2.53506 1.49745,-8.07945 1.01812,-7.95325 -0.93256,3.95359 -2.233837,8.21461 -1.06254,12.23311 1.21949,2.6365 4.59442,0.459 6.08211,-0.7077 z m 3.84678,-3.67101 c 0.20311,-0.84171 -0.92437,1.11209 0,0 z m 0.65933,-0.88298 c -0.59944,0.53219 -0.0849,0.60338 0,0 z m 0.61879,-0.54282 c 0.26943,-0.82428 -0.99191,1.23016 0,0 z m -9.67321,-7.52381 c -0.44,-0.22547 -0.12846,0.74278 0,0 z m 0.28969,-0.92506 c 0.0168,-1.4446 -0.48022,1.69412 0,0 z m 49.08607,-64.45333 c 0.0556,-1.11044 -0.42211,1.30805 0,0 z m 0.53237,-2.05385 c -0.29855,0.53115 0.15364,0.78677 0,0 z m 1.64408,-6.06921 c 0.90013,-3.96852 2.41485,-9.58572 -2.20994,-9.82218 -1.79018,-0.12711 -5.33213,3.66679 -1.62206,1.07954 4.4795,-1.8124 4.36969,3.51879 3.49433,7.0777 -0.53083,2.13646 -1.69274,8.64042 -0.20212,3.64559 0.0588,-0.2961 0.41996,-1.41517 0.53979,-1.98065 z m -9.45892,-4.40155 c -0.59948,0.53221 -0.0849,0.60337 0,0 z m 0.69822,-0.57986 c -0.30322,-0.31392 -0.38526,0.91796 0,0 z m 0.99825,-0.99206 c -0.21534,-1.02015 -0.47915,1.18326 0,0 z m 1.2189,-1.1446 c -1.45237,0.12079 -0.81017,1.44722 0,0 z"
       style="fill:#000000"
       inkscape:transform-center-x="-26.818911"
       inkscape:transform-center-y="-3.3523653"
       sodipodi:nodetypes="cccccccccccccccccccccccccccccccccccccccccccccccccccccccccccc" />
    <g
       id="g3566"
       style="font-style:normal;font-variant:normal;font-weight:500;font-stretch:normal;font-size:40px;line-height:125%;font-family:'Atari ST 8x16 System Font';-inkscape-font-specification:'Atari ST 8x16 System Font, Medium';text-align:start;letter-spacing:0px;word-spacing:0px;writing-mode:lr-tb;text-anchor:start;fill:#000000;fill-opacity:1;stroke:none;stroke-width:1px;stroke-linecap:butt;stroke-linejoin:miter;stroke-opacity:1"
       transform="matrix(2.9021802,0,0,2.9021802,681.78265,1435.9132)">
      <path
         inkscape:connector-curvature="0"
         id="path3564"
         d="m -223.44531,-414.01864 v -15 h 2.5 2.5 v 2.5 2.5 h 1.25 1.25 v 2.5 2.5 h 1.25 1.25 v -2.5 -2.5 h 1.25 1.25 v -2.5 -2.5 h 2.5 2.5 v 15 15 h -2.5 -2.5 v -8.75 -8.75 h -1.25 -1.25 v 2.5 2.5 h -1.25 -1.25 v -2.5 -2.5 h -1.25 -1.25 v 8.75 8.75 h -2.5 -2.5 z" />
    </g>
    <g
       id="g3570"
       style="font-style:normal;font-variant:normal;font-weight:500;font-stretch:normal;font-size:385.068px;line-height:125%;font-family:'Atari ST 8x16 System Font';-inkscape-font-specification:'Atari ST 8x16 System Font, Medium';text-align:start;letter-spacing:0px;word-spacing:0px;writing-mode:lr-tb;text-anchor:start;fill:#000000;fill-opacity:1;stroke:none;stroke-width:1px;stroke-linecap:butt;stroke-linejoin:miter;stroke-opacity:1"
       transform="matrix(0.19753994,0,0,0.19753994,-125.15957,341.93215)">
      <path
         inkscape:connector-curvature="0"
         id="path3568"
         d="m 3011.6081,-729.52071 v -36.10013 h 24.0668 24.0667 v 36.10013 36.10014 h 24.0668 24.0667 v 24.06676 24.06675 h -24.0667 -24.0668 v 36.10014 36.10013 h -24.0667 -24.0668 v -36.10013 -36.10014 h -24.0668 -24.0667 v -24.06675 -24.06676 h 24.0667 24.0668 z" />
    </g>
    <g
       id="g3582"
       style="font-style:normal;font-variant:normal;font-weight:500;font-stretch:normal;font-size:587.664px;line-height:125%;font-family:'Atari ST 8x16 System Font';-inkscape-font-specification:'Atari ST 8x16 System Font, Medium';text-align:start;letter-spacing:0px;word-spacing:0px;writing-mode:lr-tb;text-anchor:start;fill:#000000;fill-opacity:1;stroke:none;stroke-width:1px;stroke-linecap:butt;stroke-linejoin:miter;stroke-opacity:1"
       transform="matrix(0.19753994,0,0,0.19753994,-125.15957,341.93215)">
      <path
         inkscape:connector-curvature="0"
         id="path3572"
         d="m 1484.7041,-545.30898 v -220.37416 h 73.4581 73.458 v 18.36452 18.36451 h 18.3645 18.3646 v 18.36451 18.36452 h 18.3645 18.3645 v 146.9161 146.91611 h -18.3645 -18.3645 v 18.36452 18.36451 h -18.3646 -18.3645 v 18.36451 18.36452 h -73.458 -73.4581 z m 110.1871,-128.55159 v -18.36451 h -18.3645 -18.3645 v 146.9161 146.91611 h 18.3645 18.3645 v -18.36451 -18.36451 h 18.3645 18.3645 v -110.18709 -110.18708 h -18.3645 -18.3645 z" />
      <path
         inkscape:connector-curvature="0"
         id="path3574"
         d="m 1778.5363,-563.67349 v -202.00965 h 36.7291 36.729 v 183.64514 183.64513 h 36.729 36.729 V -582.038 -765.68314 h 36.7291 36.729 v 202.00965 202.00965 h -18.3645 -18.3645 v 18.36451 18.36452 h -73.4581 -73.458 v -18.36452 -18.36451 h -18.3645 -18.3646 z" />
      <path
         inkscape:connector-curvature="0"
         id="path3576"
         d="m 2072.3686,-545.30898 v -220.37416 h 36.729 36.729 v 183.64514 183.64513 h 73.4581 73.458 v 36.72903 36.72903 h -110.1871 -110.187 z" />
      <path
         inkscape:connector-curvature="0"
         id="path3578"
         d="m 2439.6588,-747.31862 v -18.36452 h 36.729 36.7291 v 18.36452 18.36451 h 18.3645 18.3645 v 18.36451 18.36452 h 18.3645 18.3645 v 183.64513 183.64514 h -36.729 -36.729 v -73.45806 -73.45805 h -36.7291 -36.729 v 73.45805 73.45806 h -36.729 -36.729 v -183.64514 -183.64513 h 18.3645 18.3645 v -18.36452 -18.36451 h 18.3645 18.3645 z m 73.4581,146.9161 v -55.09354 h -36.7291 -36.729 v 55.09354 55.09354 h 36.729 36.7291 z" />
      <path
         inkscape:connector-curvature="0"
         id="path3580"
         d="m 2623.304,-545.30898 v -220.37416 h 91.8225 91.8226 v 18.36452 18.36451 h 18.3645 18.3645 v 91.82257 91.82256 h -18.3645 -18.3645 v 36.72903 36.72903 h 18.3645 18.3645 v 36.72903 36.72902 h 18.3645 18.3645 v 36.72903 36.72903 h -36.729 -36.729 v -36.72903 -36.72903 h -18.3645 -18.3645 v -36.72902 -36.72903 h -18.3646 -18.3645 v -18.36452 -18.36451 h -18.3645 -18.3645 v 91.82257 91.82257 h -36.729 -36.729 z m 146.9161,-91.82256 v -55.09354 h -36.7291 -36.729 v 55.09354 55.09354 h 36.729 36.7291 z" />
    </g>
  </g>
  <circle
     style="fill:none;fill-opacity:1;stroke:#191919;stroke-width:0.264583;stroke-opacity:1"
     id="path3"
     cx="153.00002"
     cy="152.97916"
     r="28.272387" />
  <text
     xml:space="preserve"
     style="font-style:normal;font-weight:normal;font-size:10.5833px;line-height:1.25;font-family:sans-serif;fill:#000000;fill-opacity:1;stroke:none;stroke-width:0.264583"
     x="224.14722"
     y="207.59886"
     id="text3242"
     transform="rotate(27.537164)"><tspan
       sodipodi:role="line"
       id="tspan3240"
       style="stroke-width:0.264583"
       x="224.14722"
       y="207.59886">20</tspan></text>
  <text
     xml:space="preserve"
     style="font-style:normal;font-weight:normal;font-size:10.5833px;line-height:1.25;font-family:sans-serif;fill:#000000;fill-opacity:1;stroke:none;stroke-width:0.264583"
     x="78.001602"
     y="341.49057"
     id="text5628"
     transform="rotate(-20.179782)"><tspan
       sodipodi:role="line"
       id="tspan5626"
       style="stroke-width:0.264583"
       x="78.001602"
       y="341.49057">20</tspan></text>
  <text
     xml:space="preserve"
     style="font-style:normal;font-weight:normal;font-size:10.5833px;line-height:1.25;font-family:sans-serif;fill:#000000;fill-opacity:1;stroke:none;stroke-width:0.264583"
     x="49.373432"
     y="358.01767"
     id="text6688"
     transform="rotate(-35.05618)"><tspan
       sodipodi:role="line"
       id="tspan6686"
       style="stroke-width:0.264583"
       x="49.373432"
       y="358.01767">30</tspan></text>
  <text
     xml:space="preserve"
     style="font-style:normal;font-weight:normal;font-size:10.5833px;line-height:1.25;font-family:sans-serif;fill:#000000;fill-opacity:1;stroke:none;stroke-width:0.264583"
     x="-67.669159"
     y="343.6535"
     id="text7586"
     transform="rotate(-67.946293)"><tspan
       sodipodi:role="line"
       id="tspan7584"
       style="stroke-width:0.264583"
       x="-67.669159"
       y="343.6535">30</tspan></text>
  <text
     xml:space="preserve"
     style="font-style:normal;font-weight:normal;font-size:10.5833px;line-height:1.25;font-family:sans-serif;fill:#000000;fill-opacity:1;stroke:none;stroke-width:0.264583"
     x="-216.6243"
     y="241.41235"
     id="text8204"
     transform="rotate(-109.21592)"><tspan
       sodipodi:role="line"
       id="tspan8202"
       style="stroke-width:0.264583"
       x="-216.6243"
       y="241.41235">40</tspan></text>
  <text
     xml:space="preserve"
     style="font-style:normal;font-weight:normal;font-size:10.5833px;line-height:1.25;font-family:sans-serif;fill:#000000;fill-opacity:1;stroke:none;stroke-width:0.264583"
     x="-224.99257"
     y="138.55211"
     id="text8868"
     transform="rotate(-137.48591)"><tspan
       sodipodi:role="line"
       id="tspan8866"
       style="stroke-width:0.264583"
       x="-224.99257"
       y="138.55211">40</tspan></text>
  <text
     xml:space="preserve"
     style="font-style:normal;font-weight:normal;font-size:10.5833px;line-height:1.25;font-family:sans-serif;fill:#000000;fill-opacity:1;stroke:none;stroke-width:0.264583"
     x="-195.21361"
     y="60.636414"
     id="text9444"
     transform="rotate(-158.36101)"><tspan
       sodipodi:role="line"
       id="tspan9442"
       style="stroke-width:0.264583"
       x="-195.21361"
       y="60.636414">60</tspan></text>
  <text
     xml:space="preserve"
     style="font-style:normal;font-weight:normal;font-size:10.5833px;line-height:1.25;font-family:sans-serif;fill:#000000;fill-opacity:1;stroke:none;stroke-width:0.264583"
     x="-108.36738"
     y="-46.888306"
     id="text9712"
     transform="rotate(161.14052)"><tspan
       sodipodi:role="line"
       id="tspan9710"
       style="stroke-width:0.264583"
       x="-108.36738"
       y="-46.888306">60</tspan></text>
  <text
     xml:space="preserve"
     style="font-style:normal;font-weight:normal;font-size:10.5833px;line-height:1.25;font-family:sans-serif;fill:#000000;fill-opacity:1;stroke:none;stroke-width:0.264583"
     x="-18.928364"
     y="-68.994217"
     id="text10310"
     transform="rotate(139.31542)"><tspan
       sodipodi:role="line"
       id="tspan10308"
       style="stroke-width:0.264583"
       x="-18.928364"
       y="-68.994217">80</tspan></text>
  <text
     xml:space="preserve"
     style="font-style:normal;font-weight:normal;font-size:10.5833px;line-height:1.25;font-family:sans-serif;fill:#000000;fill-opacity:1;stroke:none;stroke-width:0.264583"
     x="101.39122"
     y="-51.283947"
     id="text11238"
     transform="rotate(110.41556)"><tspan
       sodipodi:role="line"
       id="tspan11236"
       style="stroke-width:0.264583"
       x="101.39122"
       y="-51.283947">80</tspan></text>
  <text
     xml:space="preserve"
     style="font-style:normal;font-weight:normal;font-size:10.5833px;line-height:1.25;font-family:sans-serif;fill:#000000;fill-opacity:1;stroke:none;stroke-width:0.264583"
     x="157.4393"
     y="22.395525"
     id="text12254"
     transform="rotate(79.731087)"><tspan
       sodipodi:role="line"
       id="tspan12252"
       style="stroke-width:0.264583"
       x="157.4393"
       y="22.395525">100 +</tspan></text>
  <text
     xml:space="preserve"
     style="font-style:normal;font-weight:normal;font-size:10.5833px;line-height:1.25;font-family:sans-serif;fill:#000000;fill-opacity:1;stroke:none;stroke-width:0.264583"
     x="207.34262"
     y="158.05212"
     id="text12852"
     transform="rotate(41.619514)"><tspan
       sodipodi:role="line"
       id="tspan12850"
       style="stroke-width:0.264583"
       x="207.34262"
       y="158.05212">100 +</tspan></text>
  <path
     style="fill:#000000;stroke-width:0.0599377"
     d="m 227.48164,62.411102 c -0.0506,0.410377 -0.46309,0.693968 -0.95256,0.654985 -0.12179,-0.01051 -0.27361,-0.01982 -0.33706,-0.02071 -0.42973,-0.01478 -1.07291,-0.143797 -1.59143,-0.320056 -0.87314,-0.296703 -1.70524,-0.614257 -2.29424,-0.875466 -0.72491,-0.321518 -3.21018,-1.538929 -3.62839,-1.77738 -0.24564,-0.139986 -1.23562,-0.694484 -1.34011,-0.750494 -0.0386,-0.02083 -0.23218,-0.136426 -0.42971,-0.25679 -0.19759,-0.120436 -0.40383,-0.242328 -0.4584,-0.270936 -0.0835,-0.04371 -0.25768,0.0053 -1.09774,0.309134 -1.0468,0.358701 -1.59738,0.473027 -2.57401,0.536089 -0.21765,0.01122 -0.41736,-0.013 -1.21413,-0.117801 -0.35992,-0.08317 -0.81745,-0.128679 -1.18554,-0.272383 -0.7995,-0.252677 -1.49414,-0.645593 -2.17714,-1.00273 -1.07215,-0.600458 -2.3277,-1.773071 -2.96872,-2.693312 -0.26198,-0.273607 -0.82914,-1.383718 -1.06786,-2.071712 -0.18345,-0.607719 -0.56535,-2.143362 -0.46584,-2.66633 -0.0677,-1.808683 0.24222,-2.353591 1.14405,-3.87549 0.48356,-0.618323 1.13718,-0.791266 1.39069,-0.69713 0.344,0.134591 0.94629,0.456664 1.39577,0.716364 4.02844,2.498419 8.43526,5.422903 11.48848,8.344482 0.16061,0.262192 -0.0278,0.711293 -0.15473,0.9315 -0.2406,0.387939 -1.0344,1.369589 -1.13536,1.404071 -0.0203,0.0068 -0.0771,0.06802 -0.12677,0.135357 l -0.0899,0.122875 0.46102,0.208737 c 0.85373,0.386537 1.46081,0.63813 1.84033,0.762684 0.50359,0.168137 1.08271,0.356502 1.57022,0.320401 0.61061,-0.02822 0.79352,-0.155672 0.62752,-0.765569 -0.37375,-0.870699 -0.79551,-1.354438 -1.34823,-2.010408 -0.67754,-0.804413 -1.15635,-1.222201 -1.89925,-1.900148 -1.27566,-1.155993 -3.05667,-2.591 -4.32769,-3.558906 -1.19416,-0.924849 -2.54233,-1.799909 -3.61986,-2.508048 -1.72034,-1.061799 -3.6304,-2.195536 -5.28018,-3.030849 -1.16902,-0.569302 -2.12568,-0.930736 -2.94762,-1.113653 -0.36154,-0.11951 -0.95291,-0.232848 -1.21833,0.08675 -0.14387,0.184623 -0.1063,0.488918 0.11591,0.936038 0.1047,0.210845 0.22631,0.4223 0.27054,0.469907 0.044,0.04763 0.11039,0.140431 0.14725,0.206236 0.0719,0.12868 0.34863,0.486785 0.54012,0.699048 0.56802,0.629596 0.76954,0.882866 0.74399,0.934954 -0.32086,0.285522 -0.76555,0.521086 -1.07556,0.68795 -0.16826,0.0566 -0.20358,0.04223 -0.48758,-0.199239 -1.79465,-1.669823 -3.43098,-3.336739 -4.94458,-5.326219 -0.36683,-0.567241 -0.67556,-1.407121 -0.62684,-1.705107 0.15526,-0.579962 0.72279,-0.713711 1.23122,-0.689191 0.37201,0.02119 1.11238,0.162332 1.52181,0.291629 0.87947,0.277774 1.57294,0.529514 2.28056,0.827945 2.19185,0.922269 4.3921,2.255676 6.33743,3.293299 l 0.55166,-0.262216 c 1.11631,-0.530716 2.62967,-0.751532 3.99098,-0.58204 0.48456,0.06032 0.87316,0.134449 1.12803,0.215066 1.26502,0.400309 1.34119,0.432029 2.29264,0.954294 0.43107,0.179064 0.71136,0.464624 1.05857,0.697157 0.27997,0.186387 0.42646,0.31704 0.95704,0.853608 0.52262,0.528552 0.53122,0.538324 0.81015,0.920362 0.68939,0.944204 0.8668,1.277947 1.21814,2.291486 0.31531,0.910828 0.3982,1.282722 0.4285,1.934367 0.0338,0.72554 0.0283,1.027347 -0.0292,1.589684 -0.0185,0.174243 -0.009,0.198364 0.13034,0.297512 0.3776,0.312765 0.78735,0.646385 1.11693,0.94602 0.29005,0.26657 0.53968,0.489416 0.81875,0.730852 0.10986,0.09501 0.34535,0.309558 0.52337,0.476777 0.73374,0.689216 1.12849,1.065364 1.25607,1.19684 0.2124,0.192574 0.42083,0.40039 0.60757,0.590808 0.34902,0.382708 0.72879,0.774871 1.05412,1.135988 0.24062,0.264157 0.28996,0.322858 0.42811,0.50931 0.35146,0.390148 0.61192,0.761852 0.81353,1.061706 0.52588,0.783346 0.85485,1.618718 0.80297,2.038906 z m -3.52405,-4.161679 c -0.73441,-0.817311 -1.132,-1.190899 -1.25772,-1.321886 -0.0107,0.02461 1.75182,2.095354 1.90398,2.302441 0.61641,0.838878 0.86666,1.391752 0.70593,1.799781 -0.0554,0.140271 -0.2985,0.368029 -0.44757,0.418938 -1.04066,0.138883 -1.99561,-0.163542 -2.89798,-0.501537 -0.20453,-0.05146 -2.0895,-0.973415 -2.15817,-0.946054 0.13478,0.06811 1.90432,0.922786 1.99732,0.959654 0.64749,0.25682 0.78485,0.354847 1.43912,0.550183 0.79826,0.189569 1.17885,0.185517 1.57536,0.180866 0.0271,0.02228 0.16808,-0.0012 0.31355,-0.05139 0.53648,-0.187014 0.59187,-0.605978 0.20312,-1.550233 -0.14992,-0.311495 -1.13839,-1.627636 -1.377,-1.840856 z M 201.1297,42.249009 c -0.63369,-0.218449 -1.08461,-0.343903 -1.42179,-0.395519 -0.40606,-0.06155 -0.86022,-0.101135 -1.17112,0.0021 -0.56213,0.159946 -0.4795,0.504718 -0.45917,0.967094 0.0454,0.685831 2.41996,3.157182 2.49214,3.137171 0.0279,-0.01033 -1.34714,-1.450608 -2.07161,-2.468093 -0.48829,-0.732894 -0.18496,-1.644598 0.69449,-1.547923 1.21196,0.02215 2.06738,0.463183 3.1264,0.81177 0.0769,-0.02475 -0.4823,-0.262843 -1.18934,-0.506617 z"
     id="path4789"
     inkscape:connector-curvature="0"
     sodipodi:nodetypes="ssssssssscccccccccccccsscsccccccccccssssccccccsccsccccsssssccsscccccsccssccccccsccscccccccs" />
  <path
     style="fill:#000000;stroke-width:0.0336626"
     d="m 31.157112,161.0868 c -0.20891,-0.10145 -0.28475,-0.37212 -0.17517,-0.62518 0.0273,-0.063 0.06,-0.1419 0.0726,-0.17523 0.0857,-0.22576 0.27124,-0.54411 0.45903,-0.78771 0.31621,-0.41016 0.63605,-0.79476 0.88181,-1.06037 0.30249,-0.3269 1.40071,-1.42672 1.60337,-1.6057 0.11903,-0.10512 0.59343,-0.53063 0.64217,-0.57598 0.0181,-0.0168 0.11462,-0.0987 0.21449,-0.18177 0.0999,-0.0831 0.20211,-0.17062 0.22722,-0.19443 0.0384,-0.0364 0.0439,-0.13795 0.035,-0.63954 -5.9e-4,-0.62147 0.0386,-0.93485 0.1824,-1.46535 0.0333,-0.11779 0.0826,-0.21949 0.28305,-0.62389 0.10949,-0.17621 0.21681,-0.41109 0.36,-0.58062 0.27944,-0.37904 0.61437,-0.67689 0.92818,-0.97505 0.51378,-0.46081 1.36494,-0.9152 1.9704,-1.08883 0.19298,-0.0896 0.88594,-0.18945 1.29493,-0.19141 0.3563,0.0128 1.24178,0.0887 1.50165,0.23653 0.97354,0.29244 1.2069,0.55602 1.85202,1.31162 0.24083,0.36925 0.21408,0.74804 0.11802,0.86568 -0.13403,0.15837 -0.4145,0.42002 -0.63413,0.61176 -2.05921,1.68741 -4.41356,3.49858 -6.52062,4.59087 -0.16852,0.0378 -0.37297,-0.14397 -0.467,-0.2513 -0.16249,-0.1983 -0.54009,-0.79842 -0.54009,-0.85833 0,-0.0121 -0.0221,-0.0534 -0.049,-0.0919 l -0.049,-0.07 -0.19464,0.20713 c -0.36043,0.38356 -0.60436,0.66053 -0.73946,0.83962 -0.18082,0.2371 -0.38604,0.51071 -0.45536,0.77636 -0.0959,0.32964 -0.0613,0.45002 0.29295,0.47251 0.53061,-0.0406 0.86428,-0.17691 1.31325,-0.35156 0.55053,-0.21405 0.85951,-0.39269 1.35469,-0.66443 0.84598,-0.46812 1.93199,-1.15413 2.67716,-1.65393 0.70834,-0.46676 1.41817,-1.02439 1.99016,-1.46852 0.87664,-0.72154 1.82597,-1.53084 2.56944,-2.25602 0.5148,-0.51794 0.88058,-0.96076 1.12702,-1.36438 0.12916,-0.17045 0.29675,-0.46417 0.17508,-0.66326 -0.072,-0.10995 -0.24056,-0.1452 -0.5185,-0.10847 -0.13104,0.0173 -0.26553,0.0436 -0.29885,0.0585 -0.0333,0.0148 -0.0947,0.0332 -0.13634,0.0408 -0.0815,0.0149 -0.32201,0.0969 -0.46959,0.16015 -0.43774,0.18758 -0.60893,0.24871 -0.63197,0.22567 -0.0935,-0.22236 -0.13796,-0.50147 -0.17036,-0.69653 4.8e-4,-0.0998 0.0145,-0.11587 0.19441,-0.22296 1.21329,-0.65065 2.39629,-1.21769 3.72844,-1.66094 0.36807,-0.092 0.8705,-0.10357 1.02002,-0.0236 0.28003,0.18786 0.2481,0.51373 0.14276,0.77949 -0.0784,0.19401 -0.28823,0.56173 -0.43128,0.75585 -0.3073,0.41699 -0.56699,0.73984 -0.85407,1.06175 -0.8881,0.99746 -1.99623,1.92476 -2.90087,2.77026 l 0.0392,0.34081 c 0.0794,0.68964 -0.078,1.53405 -0.41522,2.22675 -0.12004,0.24659 -0.22996,0.43967 -0.3191,0.56049 -0.44242,0.59963 -0.47311,0.63436 -0.92341,1.04522 -0.17341,0.1966 -0.37609,0.29371 -0.56271,0.43603 -0.14989,0.11496 -0.24592,0.16908 -0.62742,0.35366 -0.3758,0.18181 -0.38255,0.1846 -0.63623,0.26349 -0.62698,0.19495 -0.83656,0.22866 -1.43902,0.23139 -0.54132,0.002 -0.75403,-0.0213 -1.10586,-0.12346 -0.39175,-0.11376 -0.55114,-0.1715 -0.83956,-0.30416 -0.0894,-0.0412 -0.1041,-0.0399 -0.18177,0.0152 -0.23478,0.14391 -0.48648,0.30111 -0.70556,0.42188 -0.19433,0.10575 -0.35809,0.19797 -0.53708,0.30246 -0.0704,0.0411 -0.22722,0.12734 -0.34841,0.19159 -0.49951,0.26483 -0.77109,0.40635 -0.86413,0.45028 -0.14091,0.0779 -0.2892,0.15096 -0.4243,0.21564 -0.26677,0.11603 -0.54414,0.24666 -0.79512,0.35399 -0.18408,0.0799 -0.22424,0.0955 -0.34841,0.13507 -0.27117,0.11597 -0.516,0.18691 -0.71197,0.23962 -0.5118,0.13726 -1.01551,0.16045 -1.22941,0.0566 z m 2.85162,-1.11738 c 0.56771,-0.24194 0.83845,-0.38542 0.93089,-0.42846 -0.0109,-0.0109 -1.43168,0.55064 -1.56936,0.59391 -0.55775,0.1753 -0.89702,0.20792 -1.0847,0.0484 -0.0645,-0.0549 -0.1414,-0.22548 -0.1414,-0.31393 0.11516,-0.57827 0.44922,-1.03093 0.79269,-1.44914 0.0645,-0.0994 0.8967,-0.93379 0.89462,-0.97525 -0.0607,0.0593 -0.83617,0.84456 -0.87264,0.88728 -0.25405,0.29751 -0.33108,0.3527 -0.55369,0.66498 -0.24567,0.38983 -0.31262,0.59284 -0.38218,0.8044 -0.0167,0.0103 -0.03,0.0895 -0.0296,0.17598 0.002,0.31908 0.21461,0.42458 0.78703,0.3894 0.19277,-0.0231 1.07172,-0.30951 1.22836,-0.39762 z m 12.64823,-9.22751 c 0.23115,-0.29713 0.37968,-0.514 0.46833,-0.68384 0.10639,-0.20465 0.20991,-0.43883 0.2115,-0.62279 0.017,-0.32783 -0.18119,-0.34648 -0.43062,-0.41962 -0.37272,-0.10043 -2.11731,0.71295 -2.11977,0.75494 0,0.0165 1.01553,-0.4526 1.68782,-0.65292 0.47817,-0.12645 0.90763,0.20036 0.6966,0.65013 -0.23141,0.64025 -0.62151,1.01467 -0.99904,1.51422 -7.5e-4,0.0453 0.22725,-0.2086 0.48518,-0.54012 z"
     id="path2867"
     inkscape:connector-curvature="0"
     sodipodi:nodetypes="ssssssssscccccccccccccsscsccccccccccssssccccccsccsccccsssssccsscccccsccssccccccsccscccccccs" />
  <path
     style="fill:#000000;stroke-width:0.0525641"
     d="m 201.10296,246.51356 c 0.0251,-0.36177 0.37306,-0.62942 0.8035,-0.61823 0.10712,0.003 0.24057,0.005 0.29617,0.003 0.37701,-0.008 0.94633,0.0757 1.40869,0.20572 0.77849,0.21893 1.52209,0.45803 2.05013,0.65918 0.64989,0.24761 2.88332,1.19727 3.26073,1.38651 0.22175,0.11102 1.11465,0.55027 1.20874,0.59443 0.0348,0.0164 0.20987,0.10852 0.38836,0.20474 0.17858,0.0963 0.36499,0.19331 0.41413,0.2158 0.0751,0.0345 0.2254,-0.0169 0.94683,-0.32212 0.89991,-0.36319 1.37673,-0.48909 2.22904,-0.59008 0.19,-0.0205 0.36609,-0.008 1.06875,0.0462 0.31909,0.0559 0.7219,0.0745 1.05095,0.183 0.712,0.18382 1.33871,0.49533 1.95358,0.77609 0.96707,0.4756 2.1215,1.44367 2.72598,2.2195 0.24226,0.22735 0.79095,1.1729 1.03228,1.76421 0.18924,0.52356 0.59548,1.85052 0.53283,2.31316 0.14397,1.58074 -0.10181,2.07244 -0.82027,3.44746 -0.39448,0.56414 -0.95879,0.74621 -1.18518,0.67569 -0.30755,-0.10181 -0.85009,-0.35555 -1.25588,-0.56193 -3.64488,-1.99917 -7.64109,-4.35374 -10.45175,-6.76919 -0.15303,-0.22208 -0.009,-0.62421 0.0918,-0.82301 0.19254,-0.35098 0.84173,-1.24782 0.92852,-1.28275 0.0175,-0.008 0.0643,-0.0631 0.10446,-0.12461 l 0.0729,-0.1118 -0.41351,-0.16121 c -0.76575,-0.29848 -1.30918,-0.49038 -1.64737,-0.58166 -0.44887,-0.12367 -0.96485,-0.26147 -1.39009,-0.20703 -0.53341,0.0533 -0.68761,0.17361 -0.51367,0.69984 0.36814,0.74497 0.76012,1.14884 1.27487,1.69739 0.63103,0.67268 1.06992,1.01613 1.75227,1.57501 1.17131,0.95256 2.79819,2.12579 3.95662,2.91385 1.08909,0.75397 2.3107,1.45713 3.28753,2.02678 1.55628,0.84924 3.28208,1.75259 4.76601,2.4068 1.0504,0.44376 1.90512,0.71546 2.63346,0.83713 0.32222,0.0878 0.8454,0.15928 1.06287,-0.13303 0.11727,-0.16832 0.0701,-0.43312 -0.14522,-0.81433 -0.1015,-0.17974 -0.21792,-0.35924 -0.25891,-0.39883 -0.0409,-0.0397 -0.10322,-0.1179 -0.13866,-0.17369 -0.0689,-0.10931 -0.32807,-0.40997 -0.50576,-0.58687 -0.52693,-0.52475 -0.71527,-0.73709 -0.69533,-0.78389 0.26758,-0.26514 0.64599,-0.4922 0.90966,-0.65285 0.14522,-0.0568 0.17627,-0.0467 0.43632,0.15162 1.64986,1.37823 3.16096,2.76131 4.57967,4.43263 0.3479,0.47952 0.6575,1.20062 0.62888,1.46381 -0.10884,0.51517 -0.59954,0.65891 -1.04597,0.66119 -0.32674,-4.4e-4 -0.98175,-0.0901 -1.34634,-0.18407 -0.7832,-0.20206 -1.40227,-0.39002 -2.03595,-0.61822 -1.96268,-0.70495 -3.95198,-1.76956 -5.70415,-2.58709 l -0.47086,0.25543 c -0.9527,0.51711 -2.26765,0.78138 -3.46769,0.69673 -0.4272,-0.0301 -0.77098,-0.0768 -0.99796,-0.13554 -1.12654,-0.2913 -1.19475,-0.31552 -2.05243,-0.72828 -0.3859,-0.13663 -0.64471,-0.37356 -0.95968,-0.56093 -0.25392,-0.15006 -0.3883,-0.25766 -0.8781,-0.70269 -0.48245,-0.43837 -0.49042,-0.44654 -0.75261,-0.76802 -0.64791,-0.79457 -0.81893,-1.07851 -1.17412,-1.94964 -0.31855,-0.78295 -0.40877,-1.10468 -0.46587,-1.67391 -0.0636,-0.6338 -0.0729,-0.89835 -0.0489,-1.39348 0.008,-0.15365 -0.003,-0.17409 -0.12757,-0.25468 -0.34536,-0.2562 -0.71982,-0.52916 -1.02249,-0.7761 -0.26653,-0.21983 -0.49554,-0.4033 -0.75125,-0.60168 -0.10056,-0.0779 -0.31694,-0.25489 -0.48066,-0.39299 -0.67483,-0.56919 -1.03816,-0.8801 -1.15604,-0.98926 -0.19492,-0.15873 -0.38728,-0.33091 -0.55974,-0.48891 -0.32362,-0.31879 -0.67455,-0.64443 -0.97634,-0.94542 -0.22306,-0.22006 -0.26905,-0.26917 -0.39878,-0.42595 -0.32605,-0.32522 -0.57157,-0.63849 -0.76219,-0.89166 -0.4972,-0.66136 -0.82444,-1.37752 -0.79871,-1.74791 z m 3.28112,3.47938 c 0.68143,0.68133 1.04712,0.98986 1.16336,1.09869 0.009,-0.0222 -1.6323,-1.7529 -1.77527,-1.92711 -0.5791,-0.70575 -0.82414,-1.17819 -0.70255,-1.54304 0.0418,-0.12555 0.24421,-0.33629 0.37234,-0.38785 0.90481,-0.17031 1.75527,0.0497 2.56133,0.30345 0.18162,0.0356 1.87545,0.75453 1.93429,0.72734 -0.12133,-0.0532 -1.7109,-0.71888 -1.79404,-0.7468 -0.57908,-0.19456 -0.70394,-0.27398 -1.28608,-0.41438 -0.70794,-0.12866 -1.04104,-0.10727 -1.38805,-0.0846 -0.0245,-0.0183 -0.14725,0.009 -0.27221,0.0597 -0.461,0.18897 -0.48992,0.55839 -0.10525,1.36709 0.14522,0.26607 1.07316,1.37205 1.29211,1.54757 z m 20.74067,12.94239 c 0.56518,0.16161 0.96593,0.25034 1.26364,0.27974 0.35849,0.0348 0.75806,0.0482 1.02547,-0.0567 0.4848,-0.16652 0.39628,-0.46447 0.3568,-0.86843 -0.0718,-0.59846 -2.26715,-2.65144 -2.32941,-2.63053 -0.0239,0.009 1.24768,1.20721 1.92981,2.06429 0.46187,0.61899 0.23891,1.43159 -0.53566,1.38812 -1.06236,0.0381 -1.83217,-0.30875 -2.77591,-0.56442 -0.0661,0.0253 0.43466,0.20759 1.06526,0.38794 z"
     id="path2869"
     inkscape:connector-curvature="0"
     sodipodi:nodetypes="ssssssssscccccccccccccsscsccccccccccssssccccccsccsccccsssssccsscccccsccssccccccsccscccccccs" />
</svg>
